<ttFont>
          <CharString index="0">
            rmoveto
            10 5 4 10 9 vvcurveto
            16 -11 18 -17 -3 -4 -1 -1 -3 vhcurveto
            -117 -62 rlineto
            -9 -5 -4 -8 -9 vvcurveto
            -16 13 -18 17 4 3 2 -29 callsubr
            return
          </CharString>
          <CharString index="1">
            68 hmoveto
            15 12 6 13 4 hvcurveto
            44 149 rlineto
            263 hlineto
            44 -149 rlineto
            -13 4 12 -6 14 hhcurveto
            24 28 16 20 hvcurveto
            2 -1 2 3 vvcurveto
            -204 665 rlineto
            19 -6 -23 10 -23 hhcurveto
            -23 -23 -9 -20 -6 hvcurveto
            -204 -665 5 callgsubr
            -2 -3 vvcurveto
            -21 29 -14 22 vhcurveto
            94 237 rmoveto
            113 376 111 -376 rlineto
            return
          </CharString>
          <CharString index="2">
            -23 -18 -18 -23 -23 18 -19 23 22 18 19 23 23 -18 18 -22 hvcurveto
            130 hmoveto
            -23 -17 -18 -23 -23 17 -19 23 23 17 19 23 23 -17 18 -23 hvcurveto
            return
          </CharString>
          <CharString index="3">
            rmoveto
            44 callgsubr
            159 -95 59 -121 -48 callgsubr
            vhcurveto
            -14 callsubr
            -159 94 -59 121 vhcurveto
            132 218 rmoveto
            -44 callsubr
            82 50 -45 -97 vhcurveto
            return
          </CharString>
          <CharString index="4">
            rmoveto
            107 90 90 102 hvcurveto
            261 vlineto
            15 -17 14 -24 -23 -19 -14 -15 vhcurveto
            -261 vlineto
            -60 -51 -57 -63 -64 -51 58 59 vhcurveto
            260 vlineto
            15 -20 15 -21 -24 -18 -15 -15 vhcurveto
            -260 vlineto
            -101 89 -91 109 vhcurveto
            return
          </CharString>
          <CharString index="5">
            rmoveto
            1 3 0 2 4 vvcurveto
            20 -27 14 -23 -15 -13 -6 -13 -4 vhcurveto
            -168 -594 -96 366 rlineto
            19 -5 -18 7 -19 hhcurveto
            -20 -19 -7 -19 -5 hvcurveto
            -95 -366 -169 594 rlineto
            13 -4 -13 6 -14 hhcurveto
            -23 -28 -14 -20 -4 1 -2 1 -3 hvcurveto
            198 -665 rlineto
            -20 6 22 -9 24 hhcurveto
            23 23 10 19 5 hvcurveto
            87 330 86 -330 rlineto
            -20 5 24 -9 23 hhcurveto
            23 23 10 19 6 hvcurveto
            return
          </CharString>
          <CharString index="6">
            rmoveto
            -108 -89 -90 -102 hvcurveto
            -102 vlineto
            -102 91 -92 106 106 92 93 101 vhcurveto
            102 vlineto
            105 -92 87 -106 vhcurveto
            -75 callsubr
            -59 callsubr
            return
          </CharString>
          <CharString index="7">
            231 -70 callsubr
            253 vlineto
            4 0 3 2 3 vhcurveto
            207 386 rlineto
            3 7 1 6 4 vvcurveto
            21 -28 14 -22 -13 -9 -7 -15 -8 vhcurveto
            -175 -343 -176 343 rlineto
            15 -8 -8 7 -14 hhcurveto
            -21 -29 -14 -21 -4 1 -6 3 -7 hvcurveto
            207 -386 rlineto
            2 -3 1 -3 -4 vvcurveto
            return
          </CharString>
          <CharString index="8">
            182 24 rmoveto
            -108 -21 -66 -72 -58 hhcurveto
            -18 -6 -17 -19 -30 17 -7 22 126 49 139 112 42 hvcurveto
            152 407 rlineto
            2 3 1 4 3 vvcurveto
            24 -34 17 -20 -11 -10 -5 -12 -5 vhcurveto
            -119 -348 -132 348 rlineto
            12 -4 -11 5 -12 hhcurveto
            -22 -32 -18 -22 -4 2 -4 2 -3 hvcurveto
            return
          </CharString>
          <CharString index="9">
            -40 callgsubr
            21 21 21 10 20 vhcurveto
            return
          </CharString>
          <CharString index="10">
            21 21 10 20 hvcurveto
            -83 callgsubr
            -511 vlineto
            -249 487 rlineto
            35 -18 -16 18 -30 hhcurveto
            -22 -20 -8 -21 hvcurveto
            -64 callgsubr
            511 vlineto
            260 -503 rlineto
            -22 12 18 -16 23 hhcurveto
            return
          </CharString>
          <CharString index="11">
            vlineto
            -98 callgsubr
            return
          </CharString>
          <CharString index="12">
            -107 callsubr
            endchar
          </CharString>
          <CharString index="13">
            -107 callgsubr
            endchar
          </CharString>
          <CharString index="14">
            -23 -18 -12 -17 hvcurveto
            -30 callsubr
            18 -15 23 23 19 15 15 vhcurveto
            415 -62 callgsubr
            vhcurveto
            return
          </CharString>
          <CharString index="15">
            -21 1 19 -8 22 hhcurveto
            27 15 9 32 106 -87 73 -131 -118 -95 -61 callsubr
            -159 94 -59 121 -69 callgsubr
            vhcurveto
            141 vlineto
            16 -10 15 -19 vhcurveto
            -174 hlineto
            return
          </CharString>
          <CharString index="16">
            -53 -28 33 -54 hhcurveto
            -29 -58 -17 -44 -10 6 -19 17 hvcurveto
            18 15 29 43 hhcurveto
            return
          </CharString>
          <CharString index="17">
            -17 9 12 -16 17 hhcurveto
            24 26 21 22 4 -1 5 -3 5 hvcurveto
            -148 281 rlineto
            84 17 65 56 122 vvcurveto
            152 -101 48 -121 vhcurveto
            -183 hlineto
            -18 -1 -12 -13 -15 vvcurveto
            213 -47 rmoveto
            83 55 -36 -94 -95 -55 -36 -83 hvcurveto
            -129 261 hlineto
            endchar
          </CharString>
          <CharString index="18">
            -18 1 14 -11 27 hhcurveto
            28 14 8 38 98 -82 76 -134 -117 -98 -61 callsubr
            -159 97 -59 117 134 83 78 99 38 -14 9 -28 -25 -15 -9 -20 -2 vhcurveto
            return
          </CharString>
          <CharString index="19">
            rmoveto
            232 339 rlineto
            8 10 4 11 11 vvcurveto
            20 -14 12 -16 vhcurveto
            -286 hlineto
            -17 -11 -17 -19 -19 13 -16 15 hvcurveto
            207 hlineto
            -231 -339 rlineto
            -7 -9 -6 -12 -12 vvcurveto
            -15 10 -16 21 vhcurveto
            307 hlineto
            17 11 16 19 20 -13 16 -15 hvcurveto
            return
          </CharString>
          <CharString index="20">
            rmoveto
            6 11 4 11 10 vvcurveto
            15 -10 10 -19 vhcurveto
            -368 hlineto
            -20 -9 -19 -19 -20 10 -18 19 hvcurveto
            288 hlineto
            -323 -599 rlineto
            -5 -10 -3 -11 -8 vvcurveto
            -16 10 -11 19 vhcurveto
            395 hlineto
            19 11 20 18 18 -11 20 -19 hvcurveto
            -316 hlineto
            return
          </CharString>
          <CharString index="21">
            184 -308 -87 83 vvcurveto
            17 12 9 13 8 vhcurveto
            -10 22 25 -5 27 hhcurveto
            100 166 rmoveto
            -63 -38 -46 -60 -63 -36 48 62 vhcurveto
            32 vlineto
            60 35 48 63 62 37 -48 -60 vhcurveto
            return
          </CharString>
          <CharString index="22">
            rmoveto
            -29 -23 -51 callsubr
            -1 -3 -1 -4 -3 vvcurveto
            -15 17 -9 13 7 9 4 9 4 vhcurveto
            33 74 12 34 14 vvcurveto
            28 -24 24 -28 vhcurveto
            return
          </CharString>
          <CharString index="23">
            -82 callsubr
            endchar
          </CharString>
          <CharString index="24">
            -20 hstem
            41 -37 callsubr
            238 480 rmoveto
            -108 -89 -90 -102 hvcurveto
            -102 vlineto
            -50 22 -48 35 -36 vhcurveto
            -31 -50 rlineto
            -2 -4 -2 -5 -4 vvcurveto
            -12 12 -9 10 7 6 3 7 4 vhcurveto
            29 47 rlineto
            -21 31 37 -12 39 hhcurveto
            106 92 93 101 hvcurveto
            102 vlineto
            52 -23 49 -37 35 vhcurveto
            29 46 rlineto
            3 5 2 5 5 vvcurveto
            14 -12 10 -12 -6 -6 -2 -8 -5 vhcurveto
            -29 -48 rlineto
            18 -30 -36 11 -36 hhcurveto
            115 -294 rmoveto
            -61 -52 -58 -63 -25 -23 9 14 -19 vhcurveto
            161 262 rlineto
            13 -19 8 -23 -22 vvcurveto
            -229 -102 rmoveto
            102 vlineto
            59 50 58 64 23 21 -8 -12 18 vhcurveto
            -159 -261 rlineto
            -11 19 -6 21 22 vvcurveto
            return
          </CharString>
          <CharString index="25">
            rmoveto
            -23 -18 -18 -23 -23 18 -19 23 22 18 19 23 23 -18 18 -22 hvcurveto
            return
          </CharString>
          <CharString index="26">
            100 474 rmoveto
            -93 callsubr
            return
          </CharString>
          <CharString index="27">
            vstem
            -90 callgsubr
            return
          </CharString>
          <CharString index="28">
            -36 -34 34 45 hvcurveto
            -51 hlineto
            -65 58 -56 63 vhcurveto
            return
          </CharString>
          <CharString index="29">
            19 callgsubr
            421 212 rmoveto
            -97 -51 -45 -84 -84 -50 45 97 vhcurveto
            490 -96 callsubr
            -490 vlineto
            -159 95 -59 123 123 96 5 callsubr
            -1 callsubr
            -22 9 -20 -22 -20 -9 -20 vhcurveto
            return
          </CharString>
          <CharString index="30">
            -46 -64 -56 -57 -44 -33 23 52 71 78 8 85 vhcurveto
            35 hlineto
            return
          </CharString>
          <CharString index="31">
            24 -30 -40 15 -47 hhcurveto
            -107 -71 -68 -97 hvcurveto
            -33 vlineto
            -52 21 -45 36 -29 vhcurveto
            -30 -17 -20 -20 -37 vvcurveto
            -38 21 -18 30 -11 vhcurveto
            return
          </CharString>
          <CharString index="32">
            115 -294 rmoveto
            -61 -52 -58 -63 -63 -51 58 61 vhcurveto
            102 vlineto
            return
          </CharString>
          <CharString index="33">
            -94 callgsubr
            -23 -45 callsubr
            endchar
          </CharString>
          <CharString index="34">
            28 -400 rmoveto
            -52 -48 -34 -75 -77 -50 34 52 43 36 25 43 14 vhcurveto
            63 -8 108 1 -75 vvcurveto
            return
          </CharString>
          <CharString index="35">
            -40 -13 -27 -31 -54 vvcurveto
            -6 vlineto
            -78 57 -30 73 72 56 30 78 vhcurveto
            6 vlineto
            54 -26 31 -40 13 vhcurveto
            return
          </CharString>
          <CharString index="36">
            vvcurveto
            -54 45 -25 57 21 5 7 12 12 -7 10 -13 return
          </CharString>
          <CharString index="37">
            30 rmoveto
            -98 callsubr
            return
          </CharString>
          <CharString index="38">
            rmoveto
            30 22 23 29 21 -13 19 -19 8 hvcurveto
            21 52 rlineto
            2 4 0 3 3 vvcurveto
            16 -16 9 -14 -7 -9 -4 -9 -4 vhcurveto
            -33 -74 -12 -34 -14 vvcurveto
            -29 24 -23 28 vhcurveto
            return
          </CharString>
          <CharString index="39">
            -51 -8 67 -38 -21 213 51 116 100 -71 71 return
          </CharString>
          <CharString index="40">
            rmoveto
            -21 11 -14 18 vhcurveto
            320 -34 callgsubr
            -320 -38 callgsubr
          </CharString>
          <CharString index="41">
            rmoveto
            -20 -10 -20 -18 -21 11 -19 19 hvcurveto
            162 -623 hlineto
            -98 callsubr
            623 161 vlineto
            20 10 20 20 19 -10 19 -20 hvcurveto
            endchar
          </CharString>
          <CharString index="42">
            -34 -8 70 -70 109 112 56 145 66 return
          </CharString>
          <CharString index="43">
            43 -3 rlineto
            37 -3 22 -12 -26 vvcurveto
            -21 -16 -16 -36 vhcurveto
            -32 -15 14 -9 hhcurveto
            return
          </CharString>
          <CharString index="44">
            13 -19 19 -8 hvcurveto
            -21 -52 rlineto
            return
          </CharString>
          <CharString index="45">
            95 -21 407 -20 hstem
            122 277 rmoveto
            81 151 rlineto
            2 4 1 3 4 vvcurveto
            18 -22 24 -27 -12 -10 -5 -8 -5 vhcurveto
            -84 -157 rlineto
            -8 -15 -6 -9 -10 vvcurveto
            -11 6 -8 8 -15 vhcurveto
            84 -156 rlineto
            -9 5 10 -4 11 hhcurveto
            26 24 23 18 4 -1 4 -2 3 hvcurveto
            return
          </CharString>
          <CharString index="46">
            6 callsubr
            -14 callsubr
            return
          </CharString>
          <CharString index="47">
            21 14 20 47 37 20 -15 -37 -45 -24 -9 -35 -1 vhcurveto
            -15 -5 -12 -12 -12 5 -12 15 42 28 -13 -41 hvcurveto
            -10 vlineto
            -43 -22 -19 -48 vhcurveto
            return
          </CharString>
          <CharString index="48">
            59 50 58 64 64 51 -58 -59 vhcurveto
            return
          </CharString>
          <CharString index="49">
            -20 -78 callsubr
            return
          </CharString>
          <CharString index="50">
            22 -21 7 -21 -27 -15 -9 -32 -109 87 -74 131 118 95 5 callsubr
            489 vlineto
            20 -19 10 -19 vhcurveto
            -176 hlineto
            return
          </CharString>
          <CharString index="51">
            -22 -15 -36 -72 hhcurveto
            -84 -39 45 74 hvcurveto
            100 vlineto
            74 40 45 82 vhcurveto
            return
          </CharString>
          <CharString index="52">
            -43 -19 -38 -34 -56 vvcurveto
            -84 90 -51 117 114 89 47 99 vhcurveto
            return
          </CharString>
          <CharString index="53">
            -12 8 11 -5 12 hhcurveto
            24 25 20 22 5 -2 5 -3 5 hvcurveto
            -238 360 204 255 rlineto
            5 6 2 7 5 vvcurveto
            21 -27 22 -21 -9 -10 -4 -8 -6 vhcurveto
            -268 -348 rlineto
            331 -96 callsubr
            endchar
          </CharString>
          <CharString index="54">
            15 15 14 21 20 -15 16 -15 hvcurveto
            return
          </CharString>
          <CharString index="55">
            rmoveto
            7 6 2 7 7 vvcurveto
            20 -23 19 -19 -6 -7 -3 -4 -5 vhcurveto
            -228 -206 rlineto
            468 vlineto
            -22 callsubr
            -701 vlineto
            -15 17 -15 24 23 19 15 15 vhcurveto
            138 vlineto
            83 74 159 -233 rlineto
            return
          </CharString>
          <CharString index="56">
            -24 -28 -22 -63 callsubr
            return
          </CharString>
          <CharString index="57">
            -18 -18 -10 -15 hvcurveto
            10 -145 rlineto
            -13 7 -13 19 18 9 13 13 vhcurveto
            10 145 rlineto
            15 -20 10 -17 vhcurveto
            return
          </CharString>
          <CharString index="58">
            rmoveto
            8 96 rlineto
            134 hlineto
            12 6 13 13 14 -6 13 -12 hvcurveto
            -171 hlineto
            -9 -3 -7 -13 -2 hvcurveto
            -13 return
          </CharString>
          <CharString index="59">
            21 -17 callsubr
            return
          </CharString>
          <CharString index="60">
            rmoveto
            10 -15 10 -12 vhcurveto
            -204 hlineto
            -14 -13 -10 -10 hvcurveto
            -80 vlineto
            -11 13 -9 17 15 16 9 11 vhcurveto
            return
          </CharString>
          <CharString index="61">
            39 -22 -45 37 -64 hhcurveto
            -98 -81 -87 -105 hvcurveto
            -102 vlineto
            -101 82 -93 94 63 54 37 41 21 vhcurveto
            -40 vlineto
            return
          </CharString>
          <CharString index="62">
            436 -102 callgsubr
            return
          </CharString>
          <CharString index="63">
            -80 callgsubr
            -3 callgsubr
            82 return
          </CharString>
          <CharString index="64">
            rmoveto
            hintmask 11110100
            -105 callsubr
            endchar
          </CharString>
          <CharString index="65">
            -30 -44 callgsubr
            -3 vvcurveto
            -15 16 -10 13 8 9 4 10 4 vhcurveto
            33 74 11 33 15 vvcurveto
            28 -23 24 -28 vhcurveto
            endchar
          </CharString>
          <CharString index="66">
            -298 21 -21 474 -20 return
          </CharString>
          <CharString index="67">
            18 23 30 67 hhcurveto
            83 28 -65 -59 hvcurveto
            -22 -48 vlineto
            -138 -94 -28 -112 -90 68 -42 77 60 69 32 68 43 hvcurveto
            -63 36 68 -37 76 hhcurveto
            84 80 39 32 hvcurveto
            return
          </CharString>
          <CharString index="68">
            rmoveto
            -68 -49 -25 -68 -44 22 -26 32 -11 hvcurveto
            return
          </CharString>
          <CharString index="69">
            -45 -34 -34 -36 vhcurveto
            return
          </CharString>
          <CharString index="70">
            -6 callgsubr
            vstem
            return
          </CharString>
          <CharString index="71">
            rmoveto
            -31 -24 -23 -27 -27 24 -23 31 29 24 23 27 27 -24 23 -29 hvcurveto
            endchar
          </CharString>
          <CharString index="72">
            99 10 callgsubr
            return
          </CharString>
          <CharString index="73">
            -71 callgsubr
            endchar
          </CharString>
          <CharString index="74">
            -17 -12 -17 return
          </CharString>
          <CharString index="75">
            -42 -229 58 287 57 250 57 return
          </CharString>
          <CharString index="76">
            60 -6 76 585 76 return
          </CharString>
          <CharString index="77">
            -415 vlineto
            -15 return
          </CharString>
          <CharString index="78">
            2 4 vhcurveto
            return
          </CharString>
          <CharString index="79">
            -24 -29 -21 -63 callsubr
            return
          </CharString>
          <CharString index="80">
            -82 -8 75 -75 111 267 110 -75 75 return
          </CharString>
          <CharString index="81">
            61 -48 48 138 47 -47 59 return
          </CharString>
          <CharString index="82">
            -59 -159 return
          </CharString>
          <CharString index="83">
            67 -67 114 278 96 -67 67 return
          </CharString>
          <CharString index="84">
            -19 -10 -18 -17 -18 10 -17 19 hvcurveto
            return
          </CharString>
          <CharString index="85">
            -52 callgsubr
            -53 callgsubr
            vhcurveto
            return
          </CharString>
          <CharString index="86">
            74 -6 76 661 -20 return
          </CharString>
          <CharString index="87">
            6 -8 75 407 -20 return
          </CharString>
          <CharString index="88">
            -8 -29 callgsubr
            return
          </CharString>
          <CharString index="89">
            156 rlineto
            8 15 6 8 11 vvcurveto
            10 -6 9 -8 15 vhcurveto
            return
          </CharString>
          <CharString index="90">
            -21 731 -20 return
          </CharString>
          <CharString index="91">
            -5 -2 -3 return
          </CharString>
          <CharString index="92">
            -21 168 69 500 -20 return
          </CharString>
          <CharString index="93">
            -301 vlineto
            return
          </CharString>
          <CharString index="94">
            -17 -19 -9 -6 -19 -44 40 -50 86 75 57 32 86 vhcurveto
            150 vlineto
            86 -57 32 -72 -73 -56 -32 -86 vhcurveto
            return
          </CharString>
          <CharString index="95">
            rmoveto
            -14 15 -6 14 16 15 6 14 vhcurveto
            return
          </CharString>
          <CharString index="96">
            hlineto
            15 15 14 22 20 -15 16 -15 hvcurveto
            return
          </CharString>
          <CharString index="97">
            hstemhm
            51 84 245 66 -66 84 return
          </CharString>
          <CharString index="98">
            64 0 callgsubr
            return
          </CharString>
          <CharString index="99">
            741 rmoveto
            -30 -22 -51 callsubr
            -2 -3 0 -4 -3 vvcurveto
            -15 16 -9 return
          </CharString>
          <CharString index="100">
            0 -5 -7 vvcurveto
            -12 4 -11 22 vhcurveto
            83 hlineto
            43 25 return
          </CharString>
          <CharString index="101">
            70 254 76 return
          </CharString>
          <CharString index="102">
            10 10 14 14 14 -7 14 -13 hvcurveto
            return
          </CharString>
          <CharString index="103">
            rmoveto
            -25 11 -7 16 20 12 11 11 return
          </CharString>
          <CharString index="104">
            rmoveto
            -65 -55 -37 -52 -33 hvcurveto
            52 -27 -48 37 -79 hhcurveto
            -66 -77 -27 -30 -19 12 -24 19 hvcurveto
            return
          </CharString>
          <CharString index="105">
            rmoveto
            -47 -21 21 22 hvcurveto
            return
          </CharString>
          <CharString index="106">
            490 vlineto
            20 return
          </CharString>
          <CharString index="107">
            47 137 -33 vlineto
            -160 -259 rlineto
            -1 return
          </CharString>
          <CharString index="108">
            17 callsubr
            244 -20 hstem
            return
          </CharString>
          <CharString index="109">
            53 -53 117 62 48 43 116 -53 53 return
          </CharString>
          <CharString index="110">
            14 callsubr
            hintmask 01111110
            return
          </CharString>
          <CharString index="111">
            -20 -15 callgsubr
            return
          </CharString>
          <CharString index="112">
            59 159 vhcurveto
            return
          </CharString>
          <CharString index="113">
            -25 callsubr
            hvcurveto
            return
          </CharString>
          <CharString index="114">
            -59 callgsubr
            14 return
          </CharString>
          <CharString index="115">
            -21 -8 -19 -18 -21 10 -18 19 hvcurveto
            endchar
          </CharString>
          <CharString index="116">
            -67 callgsubr
            endchar
          </CharString>
          <CharString index="117">
            -87 -74 -58 -32 -86 vhcurveto
            -138 vlineto
            -95 50 -35 80 72 56 32 86 vhcurveto
            return
          </CharString>
          <CharString index="118">
            -44 -26 -19 -45 -41 -23 16 28 -1 vhcurveto
            return
          </CharString>
          <CharString index="119">
            hstemhm
            28 84 198 83 return
          </CharString>
          <CharString index="120">
            -62 -229 73 636 return
          </CharString>
          <CharString index="121">
            31 callsubr
            79 return
          </CharString>
          <CharString index="122">
            53 -53 121 68 48 96 53 hstemhm
            25 61 136 61 hintmask 10111100
            102 return
          </CharString>
          <CharString index="123">
            rlineto
            -3 -4 0 -5 -4 vvcurveto
            -16 13 -14 19 11 12 5 11 5 vhcurveto
            return
          </CharString>
          <CharString index="124">
            314 42 callgsubr
            return
          </CharString>
          <CharString index="125">
            vlineto
            159 -95 59 -121 return
          </CharString>
          <CharString index="126">
            hstemhm
            22 79 -56 56 -56 79 return
          </CharString>
          <CharString index="127">
            rmoveto
            32 29 7 21 20 hvcurveto
            -62 vlineto
            -44 -27 -21 -43 -38 -31 16 return
          </CharString>
          <CharString index="128">
            hstemhm
            64 84 115 232 -84 84 return
          </CharString>
          <CharString index="129">
            -17 -12 -16 -20 -21 12 -14 17 hvcurveto
            return
          </CharString>
          <CharString index="130">
            -21 265 120 -53 53 hstemhm
            23 61 hintmask 11010000
            281 return
          </CharString>
          <CharString index="131">
            272 -54 -21 631 -20 hstem
            350 71 vstem
            149 return
          </CharString>
          <CharString index="132">
            205 71 hstem
            47 28 callsubr
            return
          </CharString>
          <CharString index="133">
            -53 callgsubr
            hvcurveto
            -485 vlineto
            -67 -7 -49 -56 vhcurveto
            return
          </CharString>
          <CharString index="134">
            -97 -49 -45 -83 -85 -46 50 69 return
          </CharString>
          <CharString index="135">
            240 rmoveto
            -21 11 -14 18 vhcurveto
            return
          </CharString>
          <CharString index="136">
            77 62 27 74 vhcurveto
            return
          </CharString>
          <CharString index="137">
            68 84 269 84 return
          </CharString>
          <CharString index="138">
            hstemhm
            41 83 229 return
          </CharString>
          <CharString index="139">
            394 474 rmoveto
            -22 -33 callsubr
            hvcurveto
            -41 vlineto
            return
          </CharString>
          <CharString index="140">
            -21 25 -21 476 -20 304 -20 hstemhm
            60 83 return
          </CharString>
          <CharString index="141">
            71 -70 callsubr
            return
          </CharString>
          <CharString index="142">
            vlineto
            -44 -26 -20 -43 -44 -25 20 44 vhcurveto
            endchar
          </CharString>
          <CharString index="143">
            -88 0 71 332 71 return
          </CharString>
          <CharString index="144">
            272 25 -21 201 71 201 -20 hstem
            return
          </CharString>
          <CharString index="145">
            73 56 44 55 64 52 -58 -59 vhcurveto
            endchar
          </CharString>
          <CharString index="146">
            141 -56 56 -56 141 return
          </CharString>
          <CharString index="147">
            hstem
            71 0 callgsubr
            vstem
            return
          </CharString>
          <CharString index="148">
            12 -21 485 -20 return
          </CharString>
          <CharString index="149">
            hintmask 10100000
            53 26 -33 57 hhcurveto
            27 57 13 return
          </CharString>
          <CharString index="150">
            vlineto
            -17 19 -16 23 21 21 16 17 vhcurveto
            return
          </CharString>
          <CharString index="151">
            hlineto
            -17 -12 -16 -20 -22 12 -14 17 hvcurveto
            return
          </CharString>
          <CharString index="152">
            hlineto
            19 10 20 18 18 -10 20 -19 hvcurveto
            return
          </CharString>
        <CharString name=".notdef">
          -146 82 -21 351 -20 hstem
          54 111 rmoveto
          -5 -6 -1 -6 -7 vvcurveto
          -17 17 -14 19 10 9 4 10 7 vhcurveto
          67 106 66 -106 rlineto
          -10 6 10 -4 10 hhcurveto
          19 17 14 17 7 -2 6 -4 6 hvcurveto
          -82 125 83 125 rlineto
          4 7 1 6 6 vvcurveto
          19 -17 13 -18 -10 -10 -5 -9 -6 vhcurveto
          -67 -107 -67 107 rlineto
          9 -7 -9 5 -10 hhcurveto
          -19 -17 -14 -18 -6 1 -6 5 -7 hvcurveto
          83 -125 rlineto
          endchar
        </CharString>
        <CharString name="A">
          -23 callgsubr
          hstem
          -106 callsubr
          endchar
        </CharString>
        <CharString name="AE">
          236 -54 callgsubr
          hstem
          68 80 219 84 vstem
          451 655 rmoveto
          233 hlineto
          19 10 18 21 18 -9 19 -20 hvcurveto
          -404 hlineto
          -118 -94 6 callsubr
          -478 vlineto
          -20 11 -15 27 38 4 15 20 vhcurveto
          296 219 -14 callsubr
          -20 19 -10 19 vhcurveto
          279 hlineto
          20 9 19 18 21 -10 18 -19 hvcurveto
          -233 255 140 hlineto
          20 9 18 16 19 -11 17 -18 hvcurveto
          -140 hlineto
          -303 112 rmoveto
          97 50 45 82 vhcurveto
          87 -254 -219 hlineto
          endchar
        </CharString>
        <CharString name="AEacute">
          236 -54 callgsubr
          222 -20 hstem
          68 80 219 84 vstem
          475 895 -107 callsubr
          89 -182 rmoveto
          233 hlineto
          19 10 18 21 18 -9 19 -20 hvcurveto
          -404 hlineto
          -118 -94 6 callsubr
          -478 vlineto
          -20 11 -15 27 38 4 15 20 vhcurveto
          296 219 -14 callsubr
          -20 19 -10 19 vhcurveto
          279 hlineto
          20 9 19 18 21 -10 18 -19 hvcurveto
          -233 255 140 hlineto
          20 9 18 16 19 -11 17 -18 hvcurveto
          -140 hlineto
          -303 112 rmoveto
          97 50 45 82 vhcurveto
          87 -254 -219 hlineto
          endchar
        </CharString>
        <CharString name="Aacute">
          -23 callgsubr
          238 -20 hstem
          -106 callsubr
          -26 660 -95 callsubr
        </CharString>
        <CharString name="Abreve">
          -23 callgsubr
          129 -37 callgsubr
          153 -8 callgsubr
          hintmask 11101100
          -106 callsubr
          -42 730 rmoveto
          hintmask 11110100
          -38 callsubr
          hintmask 11101100
          -79 callsubr
          hintmask 11101010
          -49 callgsubr
        </CharString>
        <CharString name="Acircumflex">
          51 21 -21 737 -20 238 -20 hstem
          -106 callsubr
          -112 661 -94 callsubr
        </CharString>
        <CharString name="Adieresis">
          -23 callgsubr
          122 83 hstem
          169 81 50 80 vstem
          -106 callsubr
          -176 685 -39 callgsubr
        </CharString>
        <CharString name="Agrave">
          -23 callgsubr
          238 -20 hstem
          -106 callsubr
          -75 602 -105 callgsubr
        </CharString>
        <CharString name="Amacron">
          -23 callgsubr
          162 61 hstem
          -106 callsubr
          -247 672 rmoveto
          -95 callgsubr
          endchar
        </CharString>
        <CharString name="Aogonek">
          51 -204 41 184 -15 callsubr
          hstem
          382 47 vstem
          490 -163 rmoveto
          15 callgsubr
          46 31 42 41 34 hvcurveto
          17 6 14 12 14 2 -1 2 3 vvcurveto
          -204 665 rlineto
          19 -6 -23 10 -23 hhcurveto
          -23 -23 -9 -20 -6 hvcurveto
          -204 -665 5 callgsubr
          -2 -3 vvcurveto
          -21 29 -14 22 15 12 6 13 4 vhcurveto
          44 149 rlineto
          263 hlineto
          47 -157 rlineto
          -43 -37 -28 -48 -51 -71 callsubr
          vhcurveto
          -328 400 rmoveto
          113 376 111 -376 rlineto
          endchar
        </CharString>
        <CharString name="Aring">
          -23 callgsubr
          110 38 114 40 hstem
          180 38 111 39 vstem
          -106 callsubr
          -112 782 -82 callgsubr
          endchar
        </CharString>
        <CharString name="Atilde">
          -23 callgsubr
          170 28 hstemhm
          -106 callsubr
          -172 650 rmoveto
          -91 callgsubr
          hintmask 11110000
          -91 callsubr
          endchar
        </CharString>
        <CharString name="B">
          46 0 76 285 70 224 76 hstemhm
          71 84 245 84 -66 84 hintmask 11110100
          71 29 rmoveto
          -15 15 -14 23 vhcurveto
          195 hlineto
          111 87 55 153 hvcurveto
          18 vlineto
          102 -41 43 -62 25 vhcurveto
          hintmask 11111000
          52 22 33 58 84 vvcurveto
          140 -93 31 -110 vhcurveto
          -172 hlineto
          -19 -19 -10 -20 hvcurveto
          84 -625 rmoveto
          285 135 vlineto
          hintmask 11110100
          80 48 -35 -96 hvcurveto
          -17 vlineto
          -95 -48 -42 -80 vhcurveto
          -135 579 rmoveto
          122 hlineto
          hintmask 11111000
          73 50 -26 -81 -83 -39 -34 -81 hvcurveto
          -125 hlineto
          endchar
        </CharString>
        <CharString name="C">
          -26 callgsubr
          hstemhm
          -9 callsubr
          hintmask 01101100
          411 540 rmoveto
          -89 callsubr
          hintmask 10011100
          -47 -6 -10 -72 -111 hhcurveto
          -89 -47 45 97 hvcurveto
          -16 callgsubr
          97 47 45 86 112 16 -75 -40 2 vhcurveto
          endchar
        </CharString>
        <CharString name="CR">
          -499 endchar
        </CharString>
        <CharString name="Cacute">
          -26 callgsubr
          224 -20 hstemhm
          -9 callsubr
          hintmask 01101110
          359 897 -107 callsubr
          165 -299 rmoveto
          -89 callsubr
          hintmask 10011110
          -47 -6 -10 -72 -111 hhcurveto
          -89 -47 45 97 hvcurveto
          -16 callgsubr
          97 47 45 86 112 16 -75 -40 2 vhcurveto
          endchar
        </CharString>
        <CharString name="Ccaron">
          -26 callgsubr
          251 -20 hstemhm
          -9 callsubr
          hintmask 01101110
          178 976 -106 callgsubr
          133 -352 rmoveto
          -89 callsubr
          hintmask 10011110
          -47 -6 -10 -72 -111 hhcurveto
          -89 -47 45 97 hvcurveto
          -16 callgsubr
          97 47 45 86 112 16 -75 -40 2 vhcurveto
          endchar
        </CharString>
        <CharString name="Ccedilla">
          32 13 callgsubr
          52 76 441 220 -76 76 hstemhm
          64 84 74 173 -47 47 16 84 hintmask 1011010110000000
          411 540 rmoveto
          -18 1 14 -11 27 hhcurveto
          28 14 8 38 98 -82 76 -134 -117 -98 -61 callsubr
          -155 91 -59 113 -4 vhcurveto
          -22 -84 -64 callsubr
          hintmask 0110111010000000
          7 callsubr
          54 rlineto
          113 12 69 73 90 vvcurveto
          38 -14 9 -28 -25 -15 -9 -20 -2 vhcurveto
          -47 -6 -10 -72 -111 hhcurveto
          -89 -47 45 97 hvcurveto
          -16 callgsubr
          97 47 45 86 112 16 -75 -40 2 vhcurveto
          endchar
        </CharString>
        <CharString name="Ccircumflex">
          32 -6 76 441 220 -76 76 -25 callgsubr
          -9 callsubr
          hintmask 10011110
          279 898 -107 callgsubr
          236 -302 rmoveto
          hintmask 11001110
          -89 callsubr
          -47 -6 -10 -72 -111 hhcurveto
          -89 -47 45 97 hvcurveto
          -16 callgsubr
          hintmask 10101110
          97 47 45 86 112 16 -75 -40 2 vhcurveto
          endchar
        </CharString>
        <CharString name="Cdotaccent">
          -26 callgsubr
          108 83 hstemhm
          64 84 92 81 90 84 hintmask 01101111
          411 540 rmoveto
          -89 callsubr
          hintmask 10011111
          -47 -6 -10 -72 -111 hhcurveto
          -89 -47 45 97 hvcurveto
          -16 callgsubr
          97 47 45 86 112 16 -75 -40 2 vhcurveto
          -130 382 -84 callsubr
        </CharString>
        <CharString name="D">
          67 30 callgsubr
          40 callsubr
          109 731 rmoveto
          -23 -15 -14 -15 hvcurveto
          -673 vlineto
          -79 callgsubr
          579 hlineto
          endchar
        </CharString>
        <CharString name="Dcaron">
          67 30 callgsubr
          251 -20 40 callsubr
          175 976 -106 callgsubr
          -166 -161 rmoveto
          -23 -15 -14 -15 hvcurveto
          -673 vlineto
          -79 callgsubr
          579 hlineto
          endchar
        </CharString>
        <CharString name="Dcroat">
          -77 callgsubr
        </CharString>
        <CharString name="Delta">
          38 0 76 661 -20 hstem
          321 705 rmoveto
          20 -6 -18 12 -28 hhcurveto
          -27 -19 -12 -20 -6 hvcurveto
          -191 -657 rlineto
          -2 -6 -1 -6 -5 vvcurveto
          -20 12 -11 24 vhcurveto
          419 hlineto
          24 12 11 20 5 -1 6 -2 6 hvcurveto
          -391 28 rmoveto
          149 541 148 -541 rlineto
          endchar
        </CharString>
        <CharString name="E">
          15 -54 callgsubr
          hstem
          71 84 -80 callsubr
          endchar
        </CharString>
        <CharString name="Eacute">
          15 -54 callgsubr
          224 -20 hstem
          71 84 vstem
          362 897 -107 callsubr
          -94 -184 -103 callgsubr
          endchar
        </CharString>
        <CharString name="Ebreve">
          15 -54 callgsubr
          115 -37 callgsubr
          71 84 5 -8 callgsubr
          hintmask 11101110
          -90 callgsubr
          196 566 rmoveto
          hintmask 11110110
          -38 callsubr
          hintmask 11101110
          -79 callsubr
          hintmask 11101101
          -49 callgsubr
        </CharString>
        <CharString name="Ecaron">
          15 -54 callgsubr
          251 -20 hstem
          71 84 vstem
          180 976 -106 callgsubr
          -125 -237 -103 callgsubr
          endchar
        </CharString>
        <CharString name="Ecircumflex">
          15 -54 callgsubr
          -25 callgsubr
          71 84 hintmask 11011100
          285 898 -107 callgsubr
          hintmask 11101100
          -26 -187 -103 callgsubr
          endchar
        </CharString>
        <CharString name="Edieresis">
          15 -54 callgsubr
          108 83 hstem
          71 84 22 81 50 80 vstem
          218 922 rmoveto
          -105 callsubr
          -193 -267 -103 callgsubr
          endchar
        </CharString>
        <CharString name="Edotaccent">
          15 -54 callgsubr
          108 83 hstem
          71 84 92 81 -80 callsubr
          133 521 -84 callsubr
        </CharString>
        <CharString name="Egrave">
          15 -54 callgsubr
          224 -20 hstem
          71 84 -80 callsubr
          168 438 -105 callgsubr
        </CharString>
        <CharString name="Emacron">
          15 -54 callgsubr
          148 61 hstem
          71 84 -80 callsubr
          -6 508 rmoveto
          -95 callgsubr
          endchar
        </CharString>
        <CharString name="Eng">
          83 -229 73 177 -17 callsubr
          hstemhm
          71 84 175 180 -84 84 hintmask 11111000
          364 -156 rmoveto
          -19 -15 -15 -22 -18 10 -18 33 96 41 78 111 hvcurveto
          742 vlineto
          20 -21 9 -21 vhcurveto
          hintmask 11110100
          -21 -21 -9 -20 hvcurveto
          -511 vlineto
          -249 487 rlineto
          35 -18 -16 18 -30 hhcurveto
          -22 -20 -8 -21 hvcurveto
          -64 callgsubr
          511 vlineto
          260 -503 rlineto
          8 -15 3 -10 -10 vvcurveto
          -43 vlineto
          -67 -7 -49 -55 vhcurveto
          endchar
        </CharString>
        <CharString name="Eogonek">
          15 -204 41 163 76 255 -6 callsubr
          hstemhm
          71 84 203 47 -47 136 hintmask 11111010
          155 655 rmoveto
          310 hlineto
          18 11 18 21 18 -9 19 -20 hvcurveto
          -356 hlineto
          -19 -19 -10 -20 hvcurveto
          -671 vlineto
          -20 19 -10 19 vhcurveto
          308 hlineto
          -36 -35 -23 -44 -46 -71 callsubr
          vhcurveto
          hintmask 11111100
          15 callgsubr
          45 30 41 40 33 hvcurveto
          hintmask 11111010
          13 5 6 16 15 vvcurveto
          21 -11 18 -18 vhcurveto
          -310 255 156 hlineto
          20 9 18 16 19 -11 17 -18 hvcurveto
          -156 hlineto
          endchar
        </CharString>
        <CharString name="Eth">
          -77 callgsubr
        </CharString>
        <CharString name="Euro">
          92 -6 76 -76 223 28 64 88 64 51 219 -76 76 hstemhm
          29 171 -84 0 callgsubr
          hintmask 1011011010000000
          200 245 rmoveto
          148 hlineto
          15 15 13 18 18 -15 15 -15 hvcurveto
          -148 88 148 hlineto
          15 15 13 19 18 -15 14 -15 hvcurveto
          -148 52 hlineto
          -3 callgsubr
          83 87 44 -51 -64 vhcurveto
          hintmask 1011100110000000
          -19 14 -9 28 28 14 9 31 106 -87 73 -130 -119 -95 -25 callsubr
          vhcurveto
          -52 -58 vlineto
          hintmask 1011101010000000
          -17 -12 -14 -19 -18 12 -13 17 hvcurveto
          hintmask 1011100110000000
          58 -88 -58 hlineto
          hintmask 1011101010000000
          -17 -12 -15 -18 -19 12 -12 17 hvcurveto
          hintmask 0111100110000000
          58 -40 hlineto
          -139 85 -72 129 130 87 75 107 32 -14 9 -28 -27 -15 -8 -20 vhcurveto
          hintmask 1011101010000000
          -70 -46 -49 -84 -94 -39 60 75 vhcurveto
          endchar
        </CharString>
        <CharString name="F">
          -2 21 -21 331 -6 callsubr
          hstem
          71 84 vstem
          71 29 rmoveto
          -21 callgsubr
          302 156 vlineto
          20 9 18 16 19 -10 17 -19 hvcurveto
          -156 254 306 hlineto
          19 10 18 21 18 -9 19 -20 hvcurveto
          -352 hlineto
          -19 -19 -10 -20 hvcurveto
          endchar
        </CharString>
        <CharString name="G">
          49 -6 -11 callgsubr
          21 callsubr
          hintmask 11101010
          411 540 rmoveto
          -92 callsubr
          hintmask 11101100
          -23 callsubr
          hintmask 11011010
          119 -102 hlineto
          -44 callsubr
          87 37 -46 -69 8 vhcurveto
          endchar
        </CharString>
        <CharString name="Gbreve">
          49 -6 -11 callgsubr
          115 -37 callgsubr
          64 84 9 -8 callgsubr
          -136 232 -84 84 hintmask 1110101100100000
          411 540 rmoveto
          -92 callsubr
          hintmask 1110101101000000
          -23 callsubr
          hintmask 1101011100100000
          119 -102 hlineto
          -44 callsubr
          87 37 -46 -69 8 vhcurveto
          -63 427 rmoveto
          hintmask 1110101101000000
          -38 callsubr
          hintmask 1110011101000000
          -79 callsubr
          hintmask 1110011010100000
          -49 callgsubr
        </CharString>
        <CharString name="Gcircumflex">
          49 -6 76 0 244 0 70 0 127 0 220 -76 76 0 108 116 -20 21 callsubr
          hintmask 1010001110100000
          273 898 -107 callgsubr
          242 -302 rmoveto
          hintmask 1010100111000000
          -92 callsubr
          -23 callsubr
          hintmask 0101010110100000
          119 -102 hlineto
          -44 callsubr
          87 37 -46 -69 8 vhcurveto
          endchar
        </CharString>
        <CharString name="Gcommaaccent">
          49 -147 -21 162 -11 callgsubr
          21 callsubr
          hintmask 11110101
          348 -104 callgsubr
          176 705 rmoveto
          -92 callsubr
          hintmask 11110110
          -23 callsubr
          hintmask 11101101
          119 -102 hlineto
          -44 callsubr
          87 37 -46 -69 8 vhcurveto
          endchar
        </CharString>
        <CharString name="Gdotaccent">
          49 -6 -11 callgsubr
          108 83 hstemhm
          64 84 89 81 -55 232 -84 84 hintmask 1110111010000000
          411 540 rmoveto
          -92 callsubr
          hintmask 1110110100000000
          -23 callsubr
          hintmask 1101111010000000
          119 -102 hlineto
          -44 callsubr
          87 37 -46 -69 8 vhcurveto
          -133 382 -84 callsubr
        </CharString>
        <CharString name="H">
          82 21 -21 344 70 317 -10 callgsubr
          426 -70 callsubr
          -83 callgsubr
          -288 -271 288 -96 callsubr
          -64 callgsubr
          314 271 vlineto
          endchar
        </CharString>
        <CharString name="Hbar">
          86 21 -21 344 70 125 60 -60 192 hstemhm
          19 138 -84 84 271 84 -84 137 hintmask 11101010
          428 -70 callsubr
          509 27 vlineto
          hintmask 11101001
          16 10 13 16 16 -10 15 -16 hvcurveto
          hintmask 11101010
          -27 103 hlineto
          hintmask 11011010
          -98 callgsubr
          hintmask 11101010
          -103 -271 103 vlineto
          hintmask 11010110
          -98 callgsubr
          hintmask 11100110
          -103 -28 vlineto
          hintmask 11101010
          -16 -10 -15 -16 -16 10 -13 16 hvcurveto
          hintmask 11100110
          28 -509 hlineto
          -98 callsubr
          314 271 vlineto
          -271 70 rmoveto
          125 271 -125 vlineto
          endchar
        </CharString>
        <CharString name="Hcircumflex">
          82 21 -21 344 70 317 108 116 -10 callgsubr
          290 898 -107 callgsubr
          240 -812 rmoveto
          -98 callsubr
          -83 callgsubr
          -288 -271 288 -96 callsubr
          -64 callgsubr
          314 271 vlineto
          endchar
        </CharString>
        <CharString name="I">
          -48 callsubr
          hstem
          71 84 vstem
          34 callsubr
          -83 callgsubr
          endchar
        </CharString>
        <CharString name="IJ">
          240 -6 76 -76 224 -197 -21 655 76 hstemhm
          71 84 85 84 104 243 -84 84 hintmask 00111101
          34 callsubr
          -83 callgsubr
          516 -47 rmoveto
          -443 vlineto
          hintmask 10011110
          27 callsubr
          vhcurveto
          hintmask 01011110
          -57 callsubr
          8 callsubr
        </CharString>
        <CharString name="Iacute">
          -48 callsubr
          244 -20 hstem
          71 84 vstem
          34 callsubr
          -83 callgsubr
          115 195 -95 callsubr
        </CharString>
        <CharString name="Ibreve">
          -48 callsubr
          135 -37 callgsubr
          -8 -8 callgsubr
          -163 84 hintmask 11011010
          34 callsubr
          -83 callgsubr
          112 265 rmoveto
          hintmask 11101010
          -38 callsubr
          hintmask 11011010
          -79 callsubr
          hintmask 11010100
          -49 callgsubr
        </CharString>
        <CharString name="Icircumflex">
          -48 callsubr
          244 -20 hstem
          71 84 vstem
          34 callsubr
          -83 callgsubr
          42 196 -94 callsubr
        </CharString>
        <CharString name="Idieresis">
          -48 callsubr
          128 83 hstemhm
          8 81 -18 84 -16 80 hintmask 11101000
          34 callsubr
          -83 callgsubr
          -22 220 -43 callsubr
        </CharString>
        <CharString name="Idotaccent">
          -48 callsubr
          128 83 hstem
          71 84 vstem
          34 callsubr
          -83 callgsubr
          42 220 -84 callsubr
        </CharString>
        <CharString name="Igrave">
          -48 callsubr
          244 -20 hstem
          71 84 vstem
          34 callsubr
          -83 callgsubr
          81 137 -105 callgsubr
        </CharString>
        <CharString name="Imacron">
          -48 callsubr
          168 61 hstem
          71 84 vstem
          34 callsubr
          -83 callgsubr
          -94 207 rmoveto
          -95 callgsubr
          endchar
        </CharString>
        <CharString name="Iogonek">
          -201 41 891 -20 hstem
          18 47 6 84 vstem
          126 -160 rmoveto
          15 callgsubr
          44 29 41 39 33 hvcurveto
          12 4 10 9 14 vvcurveto
          -83 callgsubr
          -672 vlineto
          -10 5 -7 7 -5 vhcurveto
          -40 -36 -25 -45 -49 -71 callsubr
          vhcurveto
          endchar
        </CharString>
        <CharString name="Itilde">
          -48 callsubr
          143 6 callgsubr
          71 84 hintmask 11011000
          34 callsubr
          -83 callgsubr
          -19 185 rmoveto
          hintmask 11101000
          -91 callgsubr
          hintmask 11011000
          -91 callsubr
          endchar
        </CharString>
        <CharString name="J">
          20 -6 76 -76 224 437 76 hstemhm
          20 84 104 243 -84 84 hintmask 10110100
          367 655 rmoveto
          -443 vlineto
          27 callsubr
          vhcurveto
          hintmask 01111000
          -57 callsubr
          8 callsubr
        </CharString>
        <CharString name="Jcircumflex">
          20 -6 76 585 76 -25 callgsubr
          20 84 104 243 -84 84 hintmask 10111100
          260 898 -107 callgsubr
          hintmask 11011010
          211 -187 rmoveto
          -443 vlineto
          27 callsubr
          -57 callsubr
          hintmask 11011100
          8 callsubr
        </CharString>
        <CharString name="K">
          30 19 -21 23 -17 callsubr
          hstemhm
          71 84 hintmask 01110000
          34 callsubr
          221 vlineto
          74 93 219 -329 rlineto
          hintmask 10110000
          -54 callsubr
        </CharString>
        <CharString name="Kcommaaccent">
          30 -147 -21 187 -21 23 -17 callsubr
          hstemhm
          71 84 hintmask 10111000
          337 -104 callgsubr
          -153 195 rmoveto
          -98 callsubr
          221 vlineto
          74 93 219 -329 rlineto
          hintmask 11011000
          -54 callsubr
        </CharString>
        <CharString name="L">
          -31 0 76 655 -20 hstem
          71 84 vstem
          428 hmoveto
          18 9 19 19 19 -9 19 -18 hvcurveto
          -273 626 hlineto
          -98 callgsubr
          -672 vlineto
          -20 19 -10 19 vhcurveto
          endchar
        </CharString>
        <CharString name="Lacute">
          -31 0 76 655 -20 244 -20 hstem
          71 84 vstem
          328 897 -107 callsubr
          213 -839 rmoveto
          18 9 19 19 19 -9 19 -18 hvcurveto
          -273 626 hlineto
          -98 callgsubr
          -672 vlineto
          -20 19 -10 19 vhcurveto
          endchar
        </CharString>
        <CharString name="Lcaron">
          -30 0 76 655 -20 30 -20 hstemhm
          71 84 142 104 hintmask 10111000
          349 741 -85 callsubr
          79 -741 rmoveto
          18 9 19 19 19 -9 19 -18 hvcurveto
          -273 626 hlineto
          hintmask 11011000
          -98 callgsubr
          -672 vlineto
          -20 19 -10 19 vhcurveto
          endchar
        </CharString>
        <CharString name="Lcommaaccent">
          -31 -147 -21 168 76 655 -20 hstem
          71 84 vstem
          325 -104 callgsubr
          216 165 rmoveto
          18 9 19 19 19 -9 19 -18 hvcurveto
          -273 626 hlineto
          -98 callgsubr
          -672 vlineto
          -20 19 -10 19 vhcurveto
          endchar
        </CharString>
        <CharString name="Ldot">
          -30 0 76 295 100 260 -20 hstem
          71 84 135 108 vstem
          428 hmoveto
          18 9 19 19 19 -9 19 -18 hvcurveto
          -273 626 hlineto
          -98 callgsubr
          -672 vlineto
          -20 19 -10 19 vhcurveto
          236 471 -36 callsubr
        </CharString>
        <CharString name="Lslash">
          -25 0 76 655 -20 hstemhm
          -1 162 -84 84 -84 213 hintmask 11100000
          434 hmoveto
          18 9 19 19 19 -9 19 -18 hvcurveto
          -273 250 hlineto
          116 62 24 callgsubr
          -4 0 -2 -3 vhcurveto
          hintmask 11100000
          -87 -47 rlineto
          303 vlineto
          20 -21 9 -21 vhcurveto
          hintmask 11010000
          -21 -21 -9 -20 hvcurveto
          -348 vlineto
          -65 -34 rlineto
          hintmask 11100000
          -9 -4 -4 -9 -9 vvcurveto
          -18 15 -21 16 4 3 1 -29 callsubr
          hintmask 11010000
          36 19 rlineto
          -251 vlineto
          -20 19 -10 19 vhcurveto
          endchar
        </CharString>
        <CharString name="M">
          176 -48 callsubr
          hstem
          71 84 365 84 vstem
          520 555 rmoveto
          -525 vlineto
          -98 callsubr
          660 vlineto
          30 -20 11 -22 -30 -18 -18 -35 -19 vhcurveto
          -158 -301 -157 301 rlineto
          35 -18 -19 18 -30 hhcurveto
          -22 -20 -11 -30 hvcurveto
          -660 vlineto
          -98 callsubr
          529 vlineto
          150 -288 rlineto
          -17 9 12 -6 10 hhcurveto
          12 12 6 17 9 hvcurveto
          endchar
        </CharString>
        <CharString name="N">
          82 21 -21 731 -10 callgsubr
          468 hmoveto
          -97 callsubr
          endchar
        </CharString>
        <CharString name="Nacute">
          82 -48 callsubr
          244 -10 callgsubr
          354 897 -107 callsubr
          227 -839 rmoveto
          -97 callsubr
          endchar
        </CharString>
        <CharString name="Ncaron">
          82 -48 callsubr
          271 -10 callgsubr
          189 976 -106 callgsubr
          179 -892 rmoveto
          -97 callsubr
          endchar
        </CharString>
        <CharString name="Ncommaaccent">
          82 14 callgsubr
          731 -10 callgsubr
          359 -104 callgsubr
          222 165 rmoveto
          -97 callsubr
          endchar
        </CharString>
        <CharString name="Ntilde">
          82 -48 callsubr
          143 6 callgsubr
          71 84 271 84 hintmask 11011100
          468 hmoveto
          -97 callsubr
          -242 887 rmoveto
          hintmask 11101100
          -91 callgsubr
          hintmask 11011100
          -91 callsubr
          endchar
        </CharString>
        <CharString name="O">
          -31 callsubr
          -15 callgsubr
          279 -89 callgsubr
          endchar
        </CharString>
        <CharString name="OE">
          338 0 76 -61 -21 337 -6 callsubr
          hstemhm
          64 84 272 75 -75 243 hintmask 01111100
          267 -6 rmoveto
          61 61 22 51 31 hvcurveto
          -37 vlineto
          hintmask 10111100
          -20 19 -10 19 vhcurveto
          330 hlineto
          20 9 19 18 21 -10 18 -19 hvcurveto
          -293 255 139 hlineto
          hintmask 10111010
          20 9 18 16 19 -10 17 -19 hvcurveto
          hintmask 01111100
          -139 254 293 hlineto
          19 10 18 21 18 -9 19 -20 hvcurveto
          -330 hlineto
          -19 -19 -10 -20 hvcurveto
          -43 vlineto
          50 -31 -61 23 -61 hhcurveto
          -116 -87 -61 callsubr
          -159 87 -59 116 vhcurveto
          144 218 rmoveto
          -44 callsubr
          82 50 -45 -97 vhcurveto
          endchar
        </CharString>
        <CharString name="Oacute">
          -31 callsubr
          224 4 callsubr
          367 897 -107 callsubr
          25 -845 -104 callsubr
          endchar
        </CharString>
        <CharString name="Obreve">
          -31 callsubr
          115 -37 callgsubr
          64 84 10 -8 callgsubr
          11 84 hintmask 11011101
          279 -89 callgsubr
          -62 454 rmoveto
          hintmask 11101101
          -38 callsubr
          hintmask 11011101
          -79 callsubr
          hintmask 11011011
          -49 callgsubr
        </CharString>
        <CharString name="Ocircumflex">
          -31 callsubr
          -25 callgsubr
          -9 callsubr
          hintmask 10111100
          279 898 -107 callgsubr
          104 -848 rmoveto
          44 callgsubr
          159 -95 59 -121 -48 callgsubr
          vhcurveto
          -14 callsubr
          -159 94 -59 121 vhcurveto
          132 -76 callgsubr
          hintmask 11011100
          9 callsubr
        </CharString>
        <CharString name="Odieresis">
          -31 callsubr
          108 83 hstem
          64 84 26 81 50 80 26 84 vstem
          215 922 rmoveto
          -105 callsubr
          -66 -928 -104 callsubr
          endchar
        </CharString>
        <CharString name="Ograve">
          -31 callsubr
          224 4 callsubr
          279 -89 callgsubr
          -95 326 -105 callgsubr
        </CharString>
        <CharString name="Ohungarumlaut">
          -31 callsubr
          225 4 callsubr
          299 911 -99 callgsubr
          -84 -846 -104 callsubr
          endchar
        </CharString>
        <CharString name="Omacron">
          -31 callsubr
          148 61 -15 callgsubr
          144 909 rmoveto
          -95 callgsubr
          135 -915 -104 callsubr
          endchar
        </CharString>
        <CharString name="Omega">
          56 0 75 580 76 hstemhm
          51 187 -175 84 171 175 -175 187 -96 84 hintmask 11100100
          318 hmoveto
          158 hlineto
          17 12 17 21 22 -14 15 -15 hvcurveto
          -103 29 hlineto
          hintmask 11011000
          70 25 50 64 116 vvcurveto
          204 vlineto
          159 -94 59 -121 -48 callgsubr
          vhcurveto
          -204 vlineto
          -116 48 -64 72 -25 vhcurveto
          -29 -103 vlineto
          hintmask 11101000
          -15 -14 -15 -22 -21 12 -17 17 hvcurveto
          158 172 hlineto
          hintmask 11010010
          -60 9 -31 47 81 vvcurveto
          204 vlineto
          -3 callgsubr
          82 82 49 -45 -97 vhcurveto
          -204 vlineto
          hintmask 11100100
          -80 -31 -44 -60 -13 vhcurveto
          endchar
        </CharString>
        <CharString name="Oslash">
          60 -9 -21 24 76 585 76 39 4 callsubr
          464 770 rmoveto
          -10 -9 -5 -10 -5 hvcurveto
          -29 -58 rlineto
          23 -37 -45 11 -50 hhcurveto
          -121 -94 -61 callsubr
          -58 12 -44 21 -33 vhcurveto
          -32 -64 16 callsubr
          22 43 rlineto
          -24 36 47 -11 52 hhcurveto
          44 callgsubr
          59 -13 46 -23 33 vhcurveto
          36 72 rlineto
          3 5 1 4 5 vvcurveto
          19 -19 14 -16 vhcurveto
          -53 -558 rmoveto
          -97 -50 -45 -82 -42 -33 11 24 -22 vhcurveto
          226 446 rlineto
          2 -12 1 -13 -13 vvcurveto
          -263 -301 rmoveto
          -16 callgsubr
          -3 callgsubr
          82 39 33 -11 -21 22 vhcurveto
          -223 -442 rlineto
          -1 9 -1 11 11 vvcurveto
          endchar
        </CharString>
        <CharString name="Oslashacute">
          60 -9 -21 24 76 585 76 224 4 callsubr
          464 770 rmoveto
          -10 -9 -5 -10 -5 hvcurveto
          -29 -58 rlineto
          23 -37 -45 11 -50 hhcurveto
          -121 -94 -61 callsubr
          -58 12 -44 21 -33 vhcurveto
          -32 -64 16 callsubr
          22 43 rlineto
          -24 36 47 -11 52 hhcurveto
          44 callgsubr
          59 -13 46 -23 33 vhcurveto
          36 72 rlineto
          3 5 1 4 5 vvcurveto
          19 -19 14 -16 vhcurveto
          -53 -558 rmoveto
          -97 -50 -45 -82 -42 -33 11 24 -22 vhcurveto
          226 446 rlineto
          2 -12 1 -13 -13 vvcurveto
          -263 -301 rmoveto
          -16 callgsubr
          -3 callgsubr
          82 39 33 -11 -21 22 vhcurveto
          -223 -442 rlineto
          -1 9 -1 11 11 vvcurveto
          211 685 -95 callsubr
        </CharString>
        <CharString name="Otilde">
          -31 callsubr
          123 6 callgsubr
          -9 callsubr
          hintmask 11011100
          279 -89 callgsubr
          -192 374 rmoveto
          hintmask 11101100
          -91 callgsubr
          hintmask 11011100
          -91 callsubr
          endchar
        </CharString>
        <CharString name="P">
          36 21 -21 289 70 296 76 hstem
          71 84 267 84 vstem
          34 callsubr
          259 135 vlineto
          121 95 60 157 hvcurveto
          9 vlineto
          158 -94 58 -118 vhcurveto
          -189 hlineto
          -21 -13 -14 -15 hvcurveto
          219 -47 rmoveto
          82 50 -45 -97 hvcurveto
          -12 vlineto
          -96 -50 -46 -82 vhcurveto
          -135 296 hlineto
          endchar
        </CharString>
        <CharString name="Q">
          60 -88 -21 105 175 484 76 hstem
          64 84 102 60 101 84 vstem
          280 -109 rmoveto
          15 15 10 20 hvcurveto
          75 vlineto
          106 8 79 62 146 vvcurveto
          301 18 callsubr
          -48 callgsubr
          vhcurveto
          -14 callsubr
          -147 79 -61 107 -8 vhcurveto
          -75 vlineto
          -20 15 -10 15 vhcurveto
          131 321 rmoveto
          -84 -38 -44 -63 -9 vhcurveto
          67 vlineto
          20 -15 9 -15 -15 -15 -9 -20 vhcurveto
          -68 vlineto
          -65 10 -37 44 84 vvcurveto
          25 callgsubr
        </CharString>
        <CharString name="R">
          2 callgsubr
          hstemhm
          71 84 267 84 hintmask 01111100
          34 callsubr
          294 115 vlineto
          151 -293 rlineto
          hintmask 10111100
          -90 callsubr
        </CharString>
        <CharString name="Racute">
          2 callgsubr
          224 -20 hstemhm
          71 84 267 84 hintmask 01111110
          368 897 -107 callsubr
          -184 -809 rmoveto
          -98 callsubr
          294 115 vlineto
          151 -293 rlineto
          hintmask 10111110
          -90 callsubr
        </CharString>
        <CharString name="Rcaron">
          2 callgsubr
          251 -20 hstemhm
          71 84 267 84 hintmask 01111110
          175 976 -106 callgsubr
          -204 -862 rmoveto
          -98 callsubr
          294 115 vlineto
          151 -293 rlineto
          hintmask 10111110
          -90 callsubr
        </CharString>
        <CharString name="Rcommaaccent">
          44 -147 -21 187 22 callgsubr
          hstemhm
          71 84 267 84 hintmask 10111110
          332 -104 callgsubr
          -148 195 rmoveto
          -98 callsubr
          294 115 vlineto
          151 -293 rlineto
          hintmask 11011110
          -90 callsubr
        </CharString>
        <CharString name="S">
          3 -8 -31 callgsubr
          -10 callsubr
          hintmask 10101100
          241 70 rmoveto
          hintmask 01011010
          -75 callgsubr
          29 callsubr
          hintmask 10101100
          -85 callgsubr
        </CharString>
        <CharString name="Sacute">
          3 -8 -31 callgsubr
          222 -20 -10 callsubr
          hintmask 10101110
          328 897 -107 callsubr
          26 -769 rmoveto
          hintmask 01011101
          -75 callgsubr
          29 callsubr
          hintmask 10101110
          -85 callgsubr
        </CharString>
        <CharString name="Scaron">
          3 -8 -31 callgsubr
          249 -20 -10 callsubr
          hintmask 10101110
          147 976 -106 callgsubr
          -6 -822 rmoveto
          hintmask 01011101
          -75 callgsubr
          29 callsubr
          hintmask 10101110
          -85 callgsubr
        </CharString>
        <CharString name="Scedilla">
          3 13 callgsubr
          50 -31 callgsubr
          hstemhm
          51 84 65 173 -47 47 7 66 -66 84 hintmask 1010101101000000
          241 70 rmoveto
          hintmask 1001101011000000
          -118 -23 81 -30 hhcurveto
          -19 -18 -26 -20 -43 83 -70 129 hvcurveto
          -21 -82 -64 callsubr
          hintmask 0110011100100000
          7 callsubr
          53 rlineto
          102 15 71 67 125 272 -329 -88 169 vvcurveto
          29 callsubr
          hintmask 1010101101000000
          -85 callgsubr
        </CharString>
        <CharString name="Scircumflex">
          3 -8 78 551 112 -74 74 0 106 116 -20 -10 callsubr
          hintmask 10011101
          247 898 -107 callgsubr
          98 -772 rmoveto
          -75 callgsubr
          hintmask 10101110
          29 callsubr
          hintmask 11001110
          -85 callgsubr
        </CharString>
        <CharString name="Scommaaccent">
          3 -147 -21 160 -31 callgsubr
          -10 callsubr
          hintmask 11010110
          332 -104 callgsubr
          22 235 rmoveto
          hintmask 10101101
          -75 callgsubr
          29 callsubr
          hintmask 11010110
          -85 callgsubr
        </CharString>
        <CharString name="T">
          -5 21 -21 653 78 hstem
          205 84 vstem
          43 731 -66 callsubr
        </CharString>
        <CharString name="Tbar">
          -3 21 -21 332 66 255 78 hstemhm
          64 226 -84 84 -84 225 hintmask 11101000
          44 731 rmoveto
          -20 -10 -20 -18 -21 11 -19 19 hvcurveto
          162 -255 -116 hlineto
          hintmask 11110000
          -17 -9 -17 -16 -17 9 -16 17 hvcurveto
          hintmask 11101000
          116 -302 hlineto
          -98 callsubr
          302 115 vlineto
          hintmask 11100100
          17 9 17 17 16 -9 16 -17 hvcurveto
          hintmask 11110000
          -115 255 161 hlineto
          20 10 20 20 19 -10 19 -20 hvcurveto
          endchar
        </CharString>
        <CharString name="Tcaron">
          -5 21 -21 653 78 251 -20 hstem
          205 84 vstem
          145 976 -106 callgsubr
          -202 -161 -66 callsubr
        </CharString>
        <CharString name="Tcommaaccent">
          -5 14 callgsubr
          653 78 hstem
          315 -104 callgsubr
          -159 896 -66 callsubr
        </CharString>
        <CharString name="Thorn">
          2 0 208 -75 75 337 75 -75 193 hstemhm
          71 83 227 83 hintmask 10011100
          111 738 rmoveto
          -22 -18 -11 -18 hvcurveto
          -679 vlineto
          -15 18 -15 24 23 18 15 15 vhcurveto
          182 vlineto
          hintmask 01101100
          -44 18 62 -35 61 hhcurveto
          85 84 71 102 hvcurveto
          143 vlineto
          104 -81 67 -93 -67 -46 -36 -40 -23 vhcurveto
          165 vlineto
          hintmask 10011100
          17 -17 12 -26 vhcurveto
          270 -432 rmoveto
          -62 -54 -36 -56 -68 -49 53 40 vhcurveto
          148 vlineto
          58 56 38 61 57 53 -36 -60 vhcurveto
          endchar
        </CharString>
        <CharString name="U">
          74 -6 76 661 -58 callsubr
          endchar
        </CharString>
        <CharString name="Uacute">
          -21 callsubr
          244 -20 19 callgsubr
          367 897 -107 callsubr
          167 -627 rmoveto
          -97 -51 -45 -84 -84 -50 45 97 vhcurveto
          490 -96 callsubr
          -490 vlineto
          -159 95 -59 123 123 96 5 callsubr
          -1 callsubr
          -22 9 -20 -22 -20 -9 -20 vhcurveto
          endchar
        </CharString>
        <CharString name="Ubreve">
          -21 callsubr
          135 -37 callgsubr
          68 84 11 -8 callgsubr
          16 84 hintmask 11011101
          421 212 rmoveto
          -97 -51 -45 -84 -84 -50 45 97 vhcurveto
          490 -96 callsubr
          -490 vlineto
          -159 95 -59 123 123 96 5 callsubr
          -1 callsubr
          -22 9 -20 -22 -20 -9 -20 vhcurveto
          -67 265 rmoveto
          hintmask 11101101
          -38 callsubr
          hintmask 11011101
          -79 callsubr
          hintmask 11011011
          -49 callgsubr
        </CharString>
        <CharString name="Ucircumflex">
          74 -6 76 661 -18 callgsubr
          19 callgsubr
          283 898 -107 callgsubr
          242 -630 rmoveto
          -97 -51 -45 -84 -84 -50 45 97 vhcurveto
          490 -96 callsubr
          -490 vlineto
          -159 95 -59 123 123 96 5 callsubr
          -1 callsubr
          -22 9 -20 -22 -20 -9 -20 vhcurveto
          endchar
        </CharString>
        <CharString name="Udieresis">
          -21 callsubr
          128 83 hstem
          68 84 28 81 50 80 30 84 vstem
          221 922 rmoveto
          -105 callsubr
          70 -710 rmoveto
          -97 -51 -45 -84 -84 -50 45 97 vhcurveto
          490 -96 callsubr
          -490 vlineto
          -159 95 -59 123 123 96 5 callsubr
          -1 callsubr
          -22 9 -20 -22 -20 -9 -20 vhcurveto
          endchar
        </CharString>
        <CharString name="Ugrave">
          -21 callsubr
          244 -58 callsubr
          -101 137 -105 callgsubr
        </CharString>
        <CharString name="Uhungarumlaut">
          -21 callsubr
          245 -58 callsubr
          -110 209 -99 callgsubr
          endchar
        </CharString>
        <CharString name="Umacron">
          -21 callsubr
          168 61 -78 callsubr
          -271 207 rmoveto
          -95 callgsubr
          endchar
        </CharString>
        <CharString name="Uogonek">
          74 -204 41 157 76 -54 -21 736 -20 hstemhm
          68 84 95 47 127 84 hintmask 11011110
          421 212 rmoveto
          -97 -51 -45 -84 -84 -50 45 97 vhcurveto
          490 -96 callsubr
          -490 vlineto
          -159 95 -59 123 vhcurveto
          hintmask 10111110
          5 5 1 5 hhcurveto
          -34 -35 -20 -41 -44 -71 callsubr
          15 callgsubr
          46 31 43 42 33 vhcurveto
          81 23 57 63 122 vvcurveto
          -1 callsubr
          -22 9 -20 -22 -20 -9 -20 vhcurveto
          endchar
        </CharString>
        <CharString name="Uring">
          -21 callsubr
          116 38 114 40 hstem
          68 84 40 38 111 39 41 84 vstem
          286 1019 -82 callgsubr
          80 -712 rmoveto
          -97 -51 -45 -84 -84 -50 45 97 vhcurveto
          490 -96 callsubr
          -490 vlineto
          -159 95 -59 123 123 96 5 callsubr
          -1 callsubr
          -22 9 -20 -22 -20 -9 -20 vhcurveto
          endchar
        </CharString>
        <CharString name="Utilde">
          -21 callsubr
          143 6 callgsubr
          30 callsubr
          hintmask 11011100
          421 212 rmoveto
          -97 -51 -45 -84 -84 -50 45 97 vhcurveto
          490 -96 callsubr
          -490 vlineto
          -159 95 -59 123 123 96 5 callsubr
          -1 callsubr
          -22 9 -20 -22 -20 -9 -20 vhcurveto
          -198 185 rmoveto
          hintmask 11101100
          -91 callgsubr
          hintmask 11011100
          -91 callsubr
          endchar
        </CharString>
        <CharString name="V">
          50 42 callgsubr
          hstem
          224 23 rmoveto
          -20 6 22 -9 23 hhcurveto
          24 22 10 19 7 hvcurveto
          203 665 rlineto
          3 1 2 2 vvcurveto
          20 -28 16 -24 -14 -11 -6 -13 -5 vhcurveto
          -175 -594 -176 594 rlineto
          13 -4 -12 6 -15 hhcurveto
          -22 -29 -14 -21 -3 1 -2 1 -3 hvcurveto
          endchar
        </CharString>
        <CharString name="W">
          17 callsubr
          hstem
          794 688 -102 callsubr
          endchar
        </CharString>
        <CharString name="Wacute">
          1 callsubr
          484 897 -107 callsubr
          423 -151 -102 callsubr
          endchar
        </CharString>
        <CharString name="Wcircumflex">
          1 callsubr
          406 898 -107 callgsubr
          492 -154 -102 callsubr
          endchar
        </CharString>
        <CharString name="Wdieresis">
          17 callsubr
          128 83 hstem
          301 81 50 80 vstem
          342 922 rmoveto
          -105 callsubr
          322 -234 -102 callsubr
          endchar
        </CharString>
        <CharString name="Wgrave">
          1 callsubr
          794 688 -102 callsubr
          -156 816 -105 callgsubr
        </CharString>
        <CharString name="X">
          6 19 -21 735 -20 hstem
          400 26 rmoveto
          -13 7 10 -15 15 hhcurveto
          23 30 18 23 6 -2 6 -4 6 hvcurveto
          -173 309 169 307 rlineto
          5 8 2 7 7 vvcurveto
          23 -26 15 -25 -17 -12 -16 -16 -8 vhcurveto
          -142 -266 -141 266 rlineto
          16 -8 -12 16 -17 hhcurveto
          -25 -26 -15 -23 -7 2 -7 5 -8 hvcurveto
          168 -307 -172 -309 rlineto
          -4 -6 -2 -6 -6 vvcurveto
          -23 30 -18 23 15 10 15 13 7 vhcurveto
          147 273 rlineto
          endchar
        </CharString>
        <CharString name="Y">
          46 -48 callsubr
          hstem
          231 84 vstem
          -100 callsubr
          endchar
        </CharString>
        <CharString name="Yacute">
          46 -48 callsubr
          244 -20 hstem
          231 84 vstem
          -100 callsubr
          119 614 -95 callsubr
        </CharString>
        <CharString name="Ycircumflex">
          46 -48 callsubr
          244 -20 hstem
          231 84 vstem
          -100 callsubr
          41 615 -94 callsubr
        </CharString>
        <CharString name="Ydieresis">
          46 -48 callsubr
          128 83 hstemhm
          167 81 -17 84 -17 80 hintmask 11101000
          -100 callsubr
          -23 639 -43 callsubr
        </CharString>
        <CharString name="Ygrave">
          46 -48 callsubr
          244 -20 hstem
          231 84 vstem
          -100 callsubr
          77 556 -105 callgsubr
        </CharString>
        <CharString name="Z">
          -4 30 callgsubr
          hstem
          451 674 -87 callsubr
          endchar
        </CharString>
        <CharString name="Zacute">
          -4 30 callgsubr
          224 -20 hstem
          325 897 -107 callsubr
          239 -165 -87 callsubr
          endchar
        </CharString>
        <CharString name="Zcaron">
          -4 30 callgsubr
          251 -20 hstem
          143 976 -106 callgsubr
          208 -218 -87 callsubr
          endchar
        </CharString>
        <CharString name="Zdotaccent">
          -4 30 callgsubr
          108 83 hstem
          451 674 -87 callsubr
          119 846 -84 callsubr
        </CharString>
        <CharString name="a">
          -68 callsubr
          12 callsubr
          hintmask 10110110
          -65 callgsubr
          hintmask 10101110
          -97 callgsubr
          hintmask 01110110
          -86 callgsubr
          hintmask 10110110
          -77 callsubr
          endchar
        </CharString>
        <CharString name="a.ss01">
          -37 -8 67 154 51 116 100 hstemhm
          27 84 198 83 vstemhm
          205 480 rmoveto
          -70 -76 -25 -35 -14 11 -26 19 hvcurveto
          hintmask 11111000
          18 26 29 63 hhcurveto
          85 28 -65 -59 hvcurveto
          -21 -48 vlineto
          -139 -95 -28 -112 -90 63 -42 73 68 52 37 41 37 hvcurveto
          -46 6 32 -32 56 hhcurveto
          21 19 12 31 22 -8 10 -16 2 hvcurveto
          -24 1 -14 16 43 vvcurveto
          157 vlineto
          99 -53 95 -134 vhcurveto
          104 -319 rmoveto
          -46 -62 -56 -62 -41 -33 24 49 73 76 8 87 vhcurveto
          35 hlineto
          endchar
        </CharString>
        <CharString name="aacute">
          -68 callsubr
          224 -20 -92 callgsubr
          -20 433 -95 callsubr
        </CharString>
        <CharString name="abreve">
          -68 callsubr
          115 -37 callgsubr
          28 84 -16 -8 callgsubr
          -28 83 hintmask 1011010100100000
          -65 callgsubr
          hintmask 1010110100100000
          -97 callgsubr
          hintmask 0111010100100000
          -86 callgsubr
          hintmask 1011001100100000
          -77 callsubr
          -23 503 rmoveto
          hintmask 1011010100100000
          -38 callsubr
          hintmask 1011001010100000
          -79 callsubr
          hintmask 1011001001000000
          -49 callgsubr
        </CharString>
        <CharString name="acircumflex">
          -51 -8 67 -38 -21 59 154 0 51 0 116 0 100 -71 71 -25 callgsubr
          28 84 198 83 hintmask 1001000111100000
          211 647 -107 callgsubr
          95 -111 rmoveto
          -66 -76 -27 -31 hvcurveto
          hintmask 1000101011100000
          -18 11 -24 20 vhcurveto
          -97 callgsubr
          hintmask 0101010011100000
          -86 callgsubr
          hintmask 0110010011100000
          -77 callsubr
          endchar
        </CharString>
        <CharString name="acute">
          -331 605 -21 120 -20 hstem
          154 646 -95 callsubr
        </CharString>
        <CharString name="adieresis">
          -68 callsubr
          108 83 hstemhm
          28 84 -6 81 50 80 -7 83 hintmask 1011010110000000
          147 671 rmoveto
          -105 callsubr
          -75 -191 rmoveto
          -66 -76 -27 -31 -18 11 -24 20 hvcurveto
          hintmask 1010111001000000
          -97 callgsubr
          hintmask 0111011001000000
          -86 callgsubr
          hintmask 1011011001000000
          -77 callsubr
          endchar
        </CharString>
        <CharString name="ae">
          234 -8 70 -70 109 112 51 116 100 -70 70 hstemhm
          28 84 196 86 228 79 hintmask 10110111
          508 480 -3 callsubr
          hintmask 10101111
          -40 callsubr
          hintmask 01110111
          16 -15 22 -18 vhcurveto
          hintmask 10110111
          -60 callgsubr
        </CharString>
        <CharString name="aeacute">
          234 -8 70 -70 109 112 51 116 100 -70 70 224 -20 hstemhm
          28 84 196 86 228 79 hintmask 1011011110000000
          442 646 -107 callsubr
          179 -108 -3 callsubr
          hintmask 1010111110000000
          -40 callsubr
          hintmask 0111011110000000
          16 -15 22 -18 vhcurveto
          hintmask 1011011110000000
          -60 callgsubr
        </CharString>
        <CharString name="agrave">
          -68 callsubr
          224 -20 -92 callgsubr
          -55 375 -105 callgsubr
        </CharString>
        <CharString name="amacron">
          -68 callsubr
          148 61 -92 callgsubr
          -226 445 rmoveto
          -95 callgsubr
          endchar
        </CharString>
        <CharString name="ampersand">
          119 -10 75 -52 -21 615 141 -69 69 hstemhm
          30 85 -30 83 318 73 hintmask 10101010
          265 -10 rmoveto
          92 65 39 54 44 hvcurveto
          76 -80 rlineto
          hintmask 01010110
          -8 8 7 -3 7 hhcurveto
          19 20 17 18 5 -2 6 -5 6 hvcurveto
          -89 95 rlineto
          42 77 10 91 43 vvcurveto
          28 -8 14 -28 -28 -8 -9 -21 -1 vhcurveto
          -1 -42 -3 -66 -27 -61 -191 208 rcurveline
          -45 49 -51 54 66 vvcurveto
          67 43 42 65 vhcurveto
          hintmask 10100110
          89 10 -72 32 hhcurveto
          21 18 18 21 33 -60 69 -112 -104 -85 -63 -110 -73 38 -51 40 -46 hvcurveto
          hintmask 10101010
          -68 -33 -65 -68 -99 vvcurveto
          -115 88 -100 147 vhcurveto
          11 75 rmoveto
          -104 -57 68 79 77 53 39 42 26 hvcurveto
          205 -218 rlineto
          -42 -28 -43 -29 -68 hhcurveto
          endchar
        </CharString>
        <CharString name="aogonek">
          -51 -204 41 155 67 154 51 116 100 -71 71 hstemhm
          28 84 141 47 10 83 hintmask 11110111
          361 -163 rmoveto
          15 callgsubr
          46 31 42 41 34 hvcurveto
          13 5 8 9 12 vvcurveto
          256 vlineto
          100 -51 94 -140 -66 -76 -27 -31 -18 11 -24 20 vhcurveto
          hintmask 11101111
          -97 callgsubr
          -8 3 -7 6 -5 vhcurveto
          -43 -37 -27 -47 -51 -71 callsubr
          vhcurveto
          -51 324 rmoveto
          -77 callsubr
          endchar
        </CharString>
        <CharString name="approxequal">
          -55 126 64 -31 31 140 64 -31 31 hstemhm
          hintmask 10010000
          162 363 rmoveto
          42 callsubr
          49 9 -7 21 -16 hvcurveto
          -19 -10 -28 -45 hhcurveto
          hintmask 01010000
          8 callgsubr
          -204 vmoveto
          42 callsubr
          48 10 -7 21 -16 hvcurveto
          -19 -10 -28 -45 hhcurveto
          hintmask 01100000
          8 callgsubr
          endchar
        </CharString>
        <CharString name="aring">
          -68 callsubr
          96 38 114 40 hstemhm
          28 84 7 38 111 39 3 83 hintmask 1011011111100000
          -65 callgsubr
          hintmask 1010111111100000
          -97 callgsubr
          hintmask 0111011111100000
          -86 callgsubr
          hintmask 1011011111100000
          -77 callsubr
          -97 555 -82 callgsubr
          endchar
        </CharString>
        <CharString name="arrowdown">
          24 callsubr
          163 rmoveto
          -8 2 -6 6 -6 vhcurveto
          205 -205 rlineto
          -8 8 8 -5 7 hhcurveto
          8 8 5 8 8 hvcurveto
          205 205 rlineto
          5 6 3 6 8 vvcurveto
          19 -20 20 -20 -7 -6 -2 -6 -6 vhcurveto
          -142 -142 rlineto
          475 vlineto
          17 -14 12 -22 -20 -15 -12 -17 vhcurveto
          -475 vlineto
          -142 142 rlineto
          6 -5 -7 2 -7 hhcurveto
          -20 -20 -19 -20 hvcurveto
          endchar
        </CharString>
        <CharString name="arrowleft">
          37 callsubr
          308 477 rmoveto
          -8 -6 -3 -5 -6 hvcurveto
          -205 -205 rlineto
          -9 -8 -4 -8 -8 vvcurveto
          -7 5 -8 8 -8 vhcurveto
          205 -205 rlineto
          -6 6 6 -2 8 hhcurveto
          20 19 20 20 7 -2 7 -6 5 hvcurveto
          -142 142 rlineto
          475 hlineto
          17 12 14 21 20 -12 16 -17 hvcurveto
          -475 hlineto
          142 142 rlineto
          6 6 2 6 7 vvcurveto
          20 -20 20 -19 vhcurveto
          endchar
        </CharString>
        <CharString name="arrowright">
          37 callsubr
          463 477 rmoveto
          -19 -20 -20 -20 -7 2 -6 6 -6 hvcurveto
          142 -142 rlineto
          -475 hlineto
          22 callsubr
          475 hlineto
          -142 -142 rlineto
          -6 -5 -2 -7 -7 vvcurveto
          -20 19 -20 20 8 6 2 6 6 vhcurveto
          205 205 rlineto
          8 8 5 8 7 vvcurveto
          8 -5 8 -8 8 vhcurveto
          -205 205 rlineto
          5 -6 -6 3 -8 hhcurveto
          endchar
        </CharString>
        <CharString name="arrowup">
          24 callsubr
          318 rmoveto
          -20 20 -19 20 7 7 2 6 5 vhcurveto
          142 142 rlineto
          -475 vlineto
          -17 15 -12 20 22 14 12 17 vhcurveto
          475 vlineto
          142 -142 rlineto
          -6 6 6 -2 7 hhcurveto
          20 20 20 19 8 -3 6 -5 6 hvcurveto
          -205 205 rlineto
          8 -8 -8 5 -8 hhcurveto
          -7 -8 -5 -8 -8 hvcurveto
          -205 -205 rlineto
          -6 -6 -2 -6 -8 vvcurveto
          endchar
        </CharString>
        <CharString name="asciicircum">
          -226 609 -21 116 -20 hstem
          136 647 -94 callsubr
        </CharString>
        <CharString name="asciitilde">
          -97 211 6 callgsubr
          hintmask 01000000
          140 244 rmoveto
          hintmask 10000000
          -91 callgsubr
          hintmask 01000000
          -91 callsubr
          endchar
        </CharString>
        <CharString name="asterisk">
          -61 387 -21 365 -20 hstemhm
          28 221 -60 60 -60 221 hintmask 11010000
          268 523 rmoveto
          121 33 rlineto
          hintmask 11001000
          14 4 7 11 13 vvcurveto
          17 -14 19 -17 -3 -4 0 -1 -3 vhcurveto
          -122 -44 5 127 rlineto
          19 -1 -15 10 -17 hhcurveto
          -16 -15 -10 -19 -1 hvcurveto
          5 -125 -122 42 rlineto
          1 -4 -3 0 -2 hhcurveto
          hintmask 11100000
          -19 -14 -17 -17 -14 7 -12 14 -4 hvcurveto
          122 -36 -77 -103 rlineto
          -5 -6 -2 -6 -8 vvcurveto
          -19 23 -12 14 8 8 2 9 5 vhcurveto
          74 110 74 -109 rlineto
          -10 7 9 -2 7 hhcurveto
          17 19 13 20 6 -2 7 -3 4 hvcurveto
          endchar
        </CharString>
        <CharString name="at">
          223 -111 54 -54 84 61 42 140 45 73 87 -62 62 84 56 hstemhm
          49 59 101 70 168 65 115 59 hintmask 1011101111100000
          233 368 rmoveto
          -12 10 -22 15 vhcurveto
          hintmask 0111011111100000
          16 16 25 63 hhcurveto
          65 29 -26 -54 hvcurveto
          -18 -40 vlineto
          -119 -79 -24 -92 -81 59 -30 67 57 32 22 37 34 hvcurveto
          -36 8 39 -31 52 hhcurveto
          94 35 100 110 207 -114 118 -201 -225 -97 -154 -193 -224 135 -101 146 73 99 26 32 9 -9 17 -15 hvcurveto
          hintmask 1011101111100000
          -20 -33 -30 -86 hhcurveto
          -175 -56 131 141 152 62 138 200 175 82 -103 -176 -60 -10 -90 -55 -24 -22 17 32 -4 hvcurveto
          167 vlineto
          84 -61 45 -87 -61 -70 -23 -30 vhcurveto
          216 -201 rmoveto
          -38 -42 -44 -61 -39 -28 18 42 59 55 12 79 vhcurveto
          36 hlineto
          endchar
        </CharString>
        <CharString name="atilde">
          -68 callsubr
          123 61 -28 28 12 callsubr
          hintmask 1011010110000000
          -65 callgsubr
          hintmask 1010110110000000
          -97 callgsubr
          hintmask 0111010110000000
          -86 callgsubr
          hintmask 1011001110000000
          -77 callsubr
          -158 423 rmoveto
          hintmask 1011010110000000
          -91 callgsubr
          hintmask 1011001110000000
          -91 callsubr
          endchar
        </CharString>
        <CharString name="b">
          -2 callgsubr
          60 83 227 83 hintmask 01111100
          101 760 rmoveto
          -53 callgsubr
          hvcurveto
          -701 vlineto
          -15 17 -15 24 21 17 15 15 vhcurveto
          40 vlineto
          hintmask 10111100
          -41 21 54 -37 63 hhcurveto
          94 82 93 101 hvcurveto
          102 vlineto
          105 -81 87 -98 -64 23 callgsubr
          -19 12 -23 vhcurveto
          269 -574 rmoveto
          -60 -52 -59 -61 -65 -49 65 27 vhcurveto
          129 36 callgsubr
        </CharString>
        <CharString name="b.ss02">
          -9 -19 callsubr
          280 -20 hstem
          56 83 227 83 vstem
          449 288 rmoveto
          105 -81 87 -98 -64 23 callgsubr
          -19 12 -23 -24 -17 -11 -17 vhcurveto
          -564 vlineto
          -112 95 -64 97 129 72 103 91 vhcurveto
          -83 hmoveto
          -48 -30 -71 -86 -61 -50 39 68 vhcurveto
          114 36 callgsubr
        </CharString>
        <CharString name="backslash">
          -148 21 -21 754 -20 hstem
          269 20 rmoveto
          -13 4 12 -7 12 hhcurveto
          18 15 14 16 3 0 3 -2 3 hvcurveto
          -247 698 rlineto
          12 -4 -11 5 -11 hhcurveto
          -18 -16 -14 -17 -4 0 -3 2 -4 hvcurveto
          endchar
        </CharString>
        <CharString name="bar">
          -286 0 -21 789 -20 hstem
          65 84 vstem
          107 768 rmoveto
          -24 -18 -12 -17 hvcurveto
          -731 vlineto
          -15 18 -14 24 22 20 14 15 vhcurveto
          731 vlineto
          17 -20 12 -22 vhcurveto
          endchar
        </CharString>
        <CharString name="braceleft">
          -174 -20 73 642 73 hstemhm
          28 144 -103 84 -84 238 -219 84 hintmask 11100000
          28 385 rmoveto
          hintmask 11000100
          -48 60 27 -35 vvcurveto
          hintmask 11001000
          -21 -19 -139 -34 vvcurveto
          -92 91 -63 101 28 18 13 24 14 -7 22 -22 vhcurveto
          hintmask 11010000
          -41 -84 19 70 hvcurveto
          hintmask 11100000
          31 19 139 24 vvcurveto
          26 -24 19 -12 3 vhcurveto
          12 3 24 21 25 vvcurveto
          hintmask 11010000
          21 -19 109 28 vvcurveto
          61 63 43 62 vhcurveto
          hintmask 11001000
          18 11 18 18 18 -12 19 -33 -101 -92 -79 -88 hvcurveto
          hintmask 11000100
          -31 19 -110 -19 vvcurveto
          hintmask 11100000
          -35 -60 26 -47 vvcurveto
          endchar
        </CharString>
        <CharString name="braceright">
          -174 -20 73 642 73 hstemhm
          18 238 -103 84 -84 144 -125 84 hintmask 11001000
          297 385 rmoveto
          hintmask 11010000
          47 -60 -26 35 vvcurveto
          hintmask 11100000
          19 19 110 31 vvcurveto
          88 -92 79 -101 -33 -12 -19 -18 -18 11 -18 18 vhcurveto
          hintmask 11000100
          61 64 -43 -61 hvcurveto
          hintmask 11010000
          -28 -19 -109 -21 vvcurveto
          -25 24 -21 12 -3 vhcurveto
          -13 -3 -23 -19 -26 vvcurveto
          hintmask 11000100
          -24 19 -139 -31 vvcurveto
          -70 -84 -19 -41 vhcurveto
          hintmask 11100000
          -23 -6 -22 -14 -24 18 -13 28 101 91 63 92 hvcurveto
          hintmask 11010000
          34 -19 139 21 vvcurveto
          hintmask 11001000
          35 60 -27 48 vvcurveto
          endchar
        </CharString>
        <CharString name="bracketleft">
          -185 -21 75 639 75 hstemhm
          65 84 -84 231 hintmask 11100000
          149 693 rmoveto
          118 hlineto
          hintmask 11010000
          18 11 17 21 18 -10 19 -19 hvcurveto
          -164 hlineto
          -19 -19 -11 -18 hvcurveto
          -731 vlineto
          -18 19 -11 19 vhcurveto
          164 hlineto
          19 10 19 18 21 -11 17 -18 hvcurveto
          hintmask 11100000
          -118 hlineto
          endchar
        </CharString>
        <CharString name="bracketright">
          -185 -21 75 639 75 hstemhm
          18 231 -84 84 hintmask 11010000
          165 54 rmoveto
          -118 hlineto
          hintmask 11100000
          -18 -11 -17 -21 -18 10 -19 19 hvcurveto
          164 hlineto
          19 19 11 18 hvcurveto
          731 vlineto
          18 -19 11 -19 vhcurveto
          -164 hlineto
          -19 -10 -19 -18 -21 11 -17 18 hvcurveto
          hintmask 11010000
          118 hlineto
          endchar
        </CharString>
        <CharString name="breve">
          -257 595 -37 callgsubr
          0 -8 callgsubr
          hintmask 01100000
          191 716 rmoveto
          hintmask 10100000
          -38 callsubr
          hintmask 01100000
          -79 callsubr
          hintmask 01010000
          -49 callgsubr
        </CharString>
        <CharString name="brokenbar">
          -286 0 -21 789 -20 hstem
          65 83 vstem
          106 768 rmoveto
          -53 callgsubr
          hvcurveto
          -266 vlineto
          -15 17 -14 24 23 19 14 15 vhcurveto
          266 -62 callgsubr
          vhcurveto
          -465 vmoveto
          -53 callgsubr
          hvcurveto
          -266 vlineto
          -15 17 -14 24 23 19 14 15 vhcurveto
          266 -62 callgsubr
          vhcurveto
          endchar
        </CharString>
        <CharString name="bullet">
          -181 189 221 hstem
          45 228 vstem
          160 410 rmoveto
          -62 -53 -52 -58 -59 53 -52 62 60 53 52 59 58 -53 52 -60 hvcurveto
          endchar
        </CharString>
        <CharString name="c">
          -27 callsubr
          hstemhm
          42 83 hintmask 01101000
          242 -8 -32 callgsubr
          hintmask 10011000
          -56 callsubr
          hintmask 01101000
          -74 callgsubr
          endchar
        </CharString>
        <CharString name="cacute">
          -27 callsubr
          224 -20 hstemhm
          42 83 hintmask 01101100
          297 646 -107 callsubr
          58 -596 -32 callgsubr
          hintmask 10011100
          -56 callsubr
          hintmask 01101100
          -74 callgsubr
          endchar
        </CharString>
        <CharString name="caron">
          -214 606 -21 146 -20 hstem
          42 725 -106 callgsubr
          endchar
        </CharString>
        <CharString name="caron.alt">
          -395 41 callgsubr
          0 104 vstem
          52 741 -85 callsubr
          endchar
        </CharString>
        <CharString name="ccaron">
          -27 callsubr
          251 -20 hstemhm
          42 83 hintmask 01101100
          119 725 -106 callgsubr
          23 -649 -32 callgsubr
          hintmask 10011100
          -56 callsubr
          hintmask 01101100
          -74 callgsubr
          endchar
        </CharString>
        <CharString name="ccedilla">
          -82 13 callgsubr
          51 74 -74 110 267 110 -75 75 hstemhm
          42 83 46 173 -47 47 hintmask 1001101100000000
          394 63 rmoveto
          17 -15 23 -22 vhcurveto
          hintmask 1010011100000000
          -56 callsubr
          hintmask 1010101010000000
          69 17 -35 20 hhcurveto
          20 15 24 17 30 -59 39 -88 -137 -62 -86 -108 hvcurveto
          -100 vlineto
          -103 54 -81 121 -9 vhcurveto
          -22 -83 -64 callsubr
          hintmask 0110101100000000
          -59 callgsubr
          13 51 rlineto
          80 5 53 36 29 vvcurveto
          endchar
        </CharString>
        <CharString name="ccircumflex">
          -82 -8 75 303 110 -75 75 -25 callgsubr
          42 83 hintmask 10011100
          223 647 -107 callgsubr
          123 -599 -32 callgsubr
          -22 -15 -36 -72 hhcurveto
          -84 -39 45 74 hvcurveto
          100 vlineto
          hintmask 10101100
          74 40 45 82 vhcurveto
          hintmask 11001100
          -74 callgsubr
          endchar
        </CharString>
        <CharString name="cdotaccent">
          -27 callsubr
          108 83 hstemhm
          42 83 56 81 hintmask 01101110
          242 -8 -32 callgsubr
          hintmask 10011110
          -56 callsubr
          hintmask 01101110
          -74 callgsubr
          -20 679 -84 callsubr
        </CharString>
        <CharString name="cedilla">
          -326 13 callgsubr
          67 -20 hstemhm
          0 173 -47 47 hintmask 10101000
          95 9 rmoveto
          -45 hlineto
          -26 -99 -64 callsubr
          hintmask 01110000
          -59 callgsubr
          endchar
        </CharString>
        <CharString name="cent">
          -81 40 199 -73 107 191 106 -72 72 124 -20 hstemhm
          32 75 87 57 -57 190 hintmask 10101110
          222 694 rmoveto
          -15 -13 -11 -15 hvcurveto
          -99 vlineto
          -112 -14 -50 -79 -98 vvcurveto
          -20 vlineto
          -100 51 -78 111 -13 vhcurveto
          -100 vlineto
          -14 13 -13 15 15 14 13 14 vhcurveto
          hintmask 01101110
          99 vlineto
          hintmask 01101101
          69 5 64 30 33 vvcurveto
          19 -16 20 -22 vhcurveto
          hintmask 10011110
          -19 -14 -30 -4 -62 hvcurveto
          259 vlineto
          hintmask 10101110
          -4 62 16 -30 17 hhcurveto
          20 15 21 19 31 -57 30 -73 5 hvcurveto
          98 vlineto
          15 -14 11 -15 vhcurveto
          -115 -316 rmoveto
          62 27 43 60 13 vhcurveto
          -256 vlineto
          -60 13 -27 42 63 vvcurveto
          endchar
        </CharString>
        <CharString name="circumflex">
          -226 609 -21 116 -20 hstem
          136 647 -94 callsubr
        </CharString>
        <CharString name="colon">
          -290 -6 105 218 105 hstem
          53 103 vstem
          105 -35 callsubr
          323 vmoveto
          -34 callsubr
        </CharString>
        <CharString name="comma">
          38 callgsubr
          87 -42 callgsubr
          endchar
        </CharString>
        <CharString name="commaaccent">
          -147 -21 120 -20 hstem
          177 -104 callgsubr
          endchar
        </CharString>
        <CharString name="copyright">
          211 35 49 85 49 -49 131 137 128 -50 50 71 49 hstemhm
          48 49 150 54 112 54 146 49 hintmask 1011011111000000
          -28 callgsubr
          565 4 -27 callgsubr
          -200 94 rmoveto
          -13 11 -6 16 19 8 6 23 58 -44 41 -67 -59 -50 -33 -89 vhcurveto
          -152 vlineto
          -89 49 -33 59 67 45 42 59 23 -8 7 -19 -15 -11 -5 -14 -1 vhcurveto
          hintmask 1100111111000000
          -24 -3 -4 -39 -48 hhcurveto
          -36 -21 23 50 hvcurveto
          152 vlineto
          49 21 23 36 49 5 -39 -20 1 vhcurveto
          endchar
        </CharString>
        <CharString name="currency">
          -29 290 55 252 55 hstem
          59 55 245 55 vstem
          236 652 rmoveto
          -43 -40 -16 -27 -30 hvcurveto
          -25 25 rlineto
          3 -4 -5 2 -4 hhcurveto
          -11 -12 -11 -12 -5 2 -4 4 -4 hvcurveto
          26 -26 rlineto
          -22 -29 -13 -38 -38 vvcurveto
          -39 13 -37 22 -30 vhcurveto
          -31 -30 rlineto
          -4 -4 -1 -4 -4 vvcurveto
          -12 11 -11 12 4 4 1 4 4 vhcurveto
          30 28 rlineto
          -27 31 40 -17 42 hhcurveto
          41 38 16 26 31 hvcurveto
          27 -26 rlineto
          -4 3 5 -1 4 hhcurveto
          12 11 12 11 4 -2 4 -3 4 hvcurveto
          -28 27 rlineto
          24 31 15 38 40 vvcurveto
          41 -14 38 -25 30 vhcurveto
          28 26 rlineto
          3 4 2 4 5 vvcurveto
          12 -11 11 -12 -4 -16 callsubr
          -4 vhcurveto
          -26 -26 rlineto
          25 -31 -38 15 -41 hhcurveto
          -7 callgsubr
        </CharString>
        <CharString name="d">
          -2 callgsubr
          41 83 227 83 hintmask 10111100
          393 760 rmoveto
          -23 -19 -12 -17 hvcurveto
          -327 vlineto
          -46 callsubr
          hintmask 01111100
          -15 17 -15 21 24 17 15 15 vhcurveto
          701 vlineto
          -41 callgsubr
          hintmask 10111100
          9 callgsubr
        </CharString>
        <CharString name="dagger">
          -77 0 -21 444 63 245 -20 hstemhm
          22 231 -84 84 -84 232 hintmask 11110000
          22 454 rmoveto
          -20 12 -13 17 -1 vhcurveto
          hintmask 11101000
          118 6 rlineto
          -414 43 callsubr
          414 vlineto
          118 -6 rlineto
          hintmask 11100100
          35 callgsubr
          hintmask 11110000
          34 callgsubr
          hintmask 11101000
          33 callgsubr
          hintmask 11110000
          -17 -1 -12 -15 -19 vvcurveto
          endchar
        </CharString>
        <CharString name="daggerdbl">
          -58 0 -21 231 62 151 63 245 -20 hstemhm
          31 231 -84 84 -84 232 hintmask 11111000
          31 241 rmoveto
          32 callgsubr
          -201 43 callsubr
          201 vlineto
          118 -6 rlineto
          hintmask 11110010
          15 1 15 13 20 vvcurveto
          19 -15 14 -15 1 vhcurveto
          hintmask 11111000
          -118 -6 rlineto
          157 vlineto
          118 -6 rlineto
          hintmask 11110010
          35 callgsubr
          hintmask 11111000
          34 callgsubr
          hintmask 11110100
          33 callgsubr
          hintmask 11111000
          -17 -1 -12 -15 -19 vvcurveto
          32 callgsubr
          -157 vlineto
          -118 6 rlineto
          hintmask 11111000
          -17 -1 -12 -14 -19 vvcurveto
          endchar
        </CharString>
        <CharString name="dcaron">
          -2 callgsubr
          41 83 227 83 57 104 hintmask 10111110
          543 741 -85 callsubr
          -150 19 rmoveto
          -23 -19 -12 -17 hvcurveto
          -327 vlineto
          -46 callsubr
          hintmask 01111110
          -15 17 -15 21 24 17 15 15 vhcurveto
          701 vlineto
          -41 callgsubr
          hintmask 10111110
          9 callgsubr
        </CharString>
        <CharString name="dcroat">
          -5 -8 75 -46 -36 callgsubr
          88 65 -65 192 hstemhm
          41 83 94 216 -83 83 -83 152 hintmask 1010110100000000
          393 760 rmoveto
          -23 -19 -12 -17 hvcurveto
          hintmask 1011010100000000
          -98 -107 vlineto
          hintmask 1011011000000000
          -16 -10 -16 -17 -17 10 -15 16 hvcurveto
          hintmask 1011010100000000
          107 -164 hlineto
          -46 callsubr
          hintmask 0111011000000000
          -15 17 -15 21 24 17 15 15 vhcurveto
          538 43 vlineto
          hintmask 1011010010000000
          15 11 14 18 17 -11 16 -15 hvcurveto
          hintmask 1011011000000000
          -43 98 hlineto
          hintmask 1010110100000000
          -41 callgsubr
          9 callgsubr
        </CharString>
        <CharString name="degree">
          -86 406 55 252 55 hstem
          29 55 245 55 vstem
          206 768 rmoveto
          -97 -80 -84 -96 -96 82 -86 95 95 83 87 95 99 -83 81 -95 hvcurveto
          -7 callgsubr
        </CharString>
        <CharString name="dieresis">
          -288 588 83 hstem
          0 81 50 80 vstem
          41 671 -39 callgsubr
        </CharString>
        <CharString name="divide">
          -50 23 102 80 69 80 102 hstem
          168 105 cntrmask 11100000
          35 239 rmoveto
          -20 12 -14 18 vhcurveto
          318 hlineto
          16 15 14 20 20 -15 15 -16 hvcurveto
          -318 hlineto
          -18 -12 -15 -20 hvcurveto
          186 -114 rmoveto
          -28 -25 -22 -29 -27 25 -24 28 27 25 24 27 29 -25 22 -27 hvcurveto
          331 vmoveto
          -28 -25 -23 -28 -28 25 -23 28 27 25 23 28 28 -25 23 -27 hvcurveto
          endchar
        </CharString>
        <CharString name="dollar">
          7 -52 133 -79 79 -79 159 446 112 -75 75 -75 124 hstemhm
          53 80 105 52 -52 210 -62 80 hintmask 1000101101000000
          238 -31 rmoveto
          -11 11 -10 15 13 13 10 11 vhcurveto
          36 vlineto
          104 14 72 65 122 vvcurveto
          137 -91 42 -85 31 vhcurveto
          228 vlineto
          hintmask 1001001010000000
          -4 73 28 -33 21 hhcurveto
          23 13 30 16 hvcurveto
          hintmask 1001001101000000
          40 -87 23 -71 3 vhcurveto
          28 vlineto
          hintmask 0100011101000000
          11 -13 10 -13 -15 -11 -10 -11 vhcurveto
          -30 vlineto
          -90 -8 -95 -44 -126 vvcurveto
          -128 96 -33 89 -31 vhcurveto
          -266 vlineto
          hintmask 0011001101000000
          5 -114 -24 75 -28 hhcurveto
          -19 -18 -26 -20 -42 78 -69 125 -2 hvcurveto
          148 196 rmoveto
          -66 -37 -39 -63 -10 vhcurveto
          245 vlineto
          55 -23 45 -31 -76 vvcurveto
          -253 349 rmoveto
          64 49 26 60 6 vhcurveto
          -210 vlineto
          -59 22 -50 23 69 vvcurveto
          endchar
        </CharString>
        <CharString name="dotaccent">
          -300 588 83 hstem
          64 81 vstem
          105 671 -84 callsubr
        </CharString>
        <CharString name="dotlessi">
          -41 callsubr
          hstem
          59 83 vstem
          -81 callsubr
          endchar
        </CharString>
        <CharString name="dotlessj">
          27 callgsubr
          hstemhm
          -37 180 -83 83 hintmask 11010000
          16 callgsubr
          hintmask 11100000
          -56 callgsubr
          endchar
        </CharString>
        <CharString name="e">
          -65 callsubr
          14 callsubr
          hintmask 01111100
          -50 callgsubr
          hintmask 10111100
          -70 callgsubr
        </CharString>
        <CharString name="eacute">
          -65 callsubr
          224 -20 3 callsubr
          310 646 -107 callsubr
          43 -108 -88 callgsubr
          hintmask 10111110
          -70 callgsubr
        </CharString>
        <CharString name="ebreve">
          -65 callsubr
          115 -37 callgsubr
          41 83 -7 -8 callgsubr
          -6 79 hintmask 0111101001000000
          -50 callgsubr
          hintmask 1011011001000000
          -100 callgsubr
          -1 447 rmoveto
          hintmask 1011101001000000
          -38 callsubr
          hintmask 1011010101000000
          -79 callsubr
          hintmask 1011010010000000
          -49 callgsubr
        </CharString>
        <CharString name="ecaron">
          -65 callsubr
          251 -20 3 callsubr
          138 725 -106 callgsubr
          2 -161 -88 callgsubr
          hintmask 10111110
          -70 callgsubr
        </CharString>
        <CharString name="ecircumflex">
          -34 -8 70 39 112 56 145 66 108 116 -20 14 callsubr
          vstemhm
          238 647 -107 callgsubr
          106 -111 -88 callgsubr
          -25 -21 -39 -75 hhcurveto
          -83 -59 47 74 hvcurveto
          30 219 vlineto
          45 44 3 80 107 -90 77 -102 hvcurveto
          hintmask 11111110
          -116 -211 rmoveto
          36 vlineto
          61 52 48 63 66 48 -54 -59 -26 -9 -6 -35 vhcurveto
          endchar
        </CharString>
        <CharString name="edieresis">
          -65 callsubr
          108 83 hstemhm
          41 83 8 81 50 80 10 79 hintmask 0111111110000000
          173 671 rmoveto
          -105 callsubr
          -63 -191 -88 callgsubr
          hintmask 1011111110000000
          -70 callgsubr
        </CharString>
        <CharString name="edotaccent">
          -65 callsubr
          108 83 hstemhm
          41 83 74 81 74 79 hintmask 01111111
          -50 callgsubr
          hintmask 10111111
          -100 callgsubr
          -70 402 -84 callsubr
        </CharString>
        <CharString name="egrave">
          -65 callsubr
          224 -20 3 callsubr
          -50 callgsubr
          hintmask 10111110
          -100 callgsubr
          -34 319 -105 callgsubr
        </CharString>
        <CharString name="eight">
          12 -6 72 296 72 225 72 hstemhm
          40 84 -63 82 226 81 -63 63 -63 84 hintmask 11101100
          256 731 rmoveto
          -112 -83 -45 -131 -85 36 -49 55 -22 hvcurveto
          hintmask 11110001
          -67 -26 -45 -58 -103 vvcurveto
          -12 vlineto
          -149 94 -57 122 121 94 57 149 vhcurveto
          12 vlineto
          103 -45 58 -66 26 vhcurveto
          hintmask 11110010
          54 22 36 49 85 vvcurveto
          131 -83 45 -111 vhcurveto
          131 -523 rmoveto
          -96 -49 -46 -82 -82 -50 44 98 vhcurveto
          16 vlineto
          95 50 43 82 81 50 -43 -95 vhcurveto
          -131 435 rmoveto
          hintmask 11101100
          70 43 -32 -80 -80 -43 -33 -70 -71 -42 33 80 80 42 32 71 hvcurveto
          endchar
        </CharString>
        <CharString name="eightinferior">
          -175 -3 49 138 50 100 49 hstemhm
          33 -26 callsubr
          hintmask 11101100
          163 383 -39 callsubr
          hintmask 11110010
          -72 callsubr
          hintmask 11110100
          -94 callgsubr
          endchar
        </CharString>
        <CharString name="eightsuperior">
          -175 345 49 137 50 100 50 hstemhm
          33 -26 callsubr
          hintmask 11101100
          163 731 rmoveto
          -68 -49 -26 -67 -44 22 -26 32 -11 hvcurveto
          hintmask 11110010
          -40 -14 -27 -30 -54 vvcurveto
          -6 vlineto
          -78 57 -30 73 72 56 30 78 vhcurveto
          6 vlineto
          54 -26 30 -40 14 vhcurveto
          hintmask 11110100
          33 11 21 26 44 vvcurveto
          67 -49 26 -67 vhcurveto
          69 -272 rmoveto
          -44 -26 -21 -43 -43 -26 21 44 vhcurveto
          10 vlineto
          43 26 19 43 43 26 -19 -43 vhcurveto
          -69 212 rmoveto
          36 22 -14 -36 -35 -22 -15 -36 -37 -21 15 35 36 21 14 37 hvcurveto
          endchar
        </CharString>
        <CharString name="ellipsis">
          46 -6 105 hstem
          37 103 82 103 81 103 vstem
          89 -35 callsubr
          185 hmoveto
          -71 callgsubr
          184 hmoveto
          -34 callsubr
        </CharString>
        <CharString name="emacron">
          -65 callsubr
          148 61 3 callsubr
          -50 callgsubr
          hintmask 10111110
          -100 callgsubr
          -205 389 rmoveto
          -95 callgsubr
          endchar
        </CharString>
        <CharString name="emdash">
          254 25 callsubr
          600 -34 callgsubr
          -600 -38 callgsubr
        </CharString>
        <CharString name="endash">
          -26 205 71 hstem
          47 240 -67 callsubr
        </CharString>
        <CharString name="eng">
          4 -229 73 177 -30 callgsubr
          hstemhm
          59 83 126 180 -83 83 hintmask 11101100
          272 480 rmoveto
          -67 -47 -37 -39 -20 hvcurveto
          41 vlineto
          hintmask 11011100
          17 -18 12 -20 -53 callgsubr
          vhcurveto
          -1 callgsubr
          24 22 20 15 15 vhcurveto
          258 vlineto
          hintmask 11101010
          73 55 44 54 62 52 -58 -59 vhcurveto
          -328 vlineto
          -67 -8 -49 -55 vhcurveto
          hintmask 11101100
          -19 -15 -15 -22 -18 10 -18 33 96 41 78 111 hvcurveto
          328 vlineto
          105 -81 87 -95 vhcurveto
          endchar
        </CharString>
        <CharString name="eogonek">
          -34 -189 41 140 70 151 56 145 66 hstem
          41 83 132 47 50 79 vstem
          240 480 rmoveto
          -110 -89 -87 -102 hvcurveto
          -105 vlineto
          -116 92 -78 130 11 11 1 1 11 vhcurveto
          -25 -31 -15 -35 -38 -71 callsubr
          15 callgsubr
          43 28 40 37 33 vhcurveto
          34 15 19 20 15 vvcurveto
          15 -14 23 -20 vhcurveto
          -70 callgsubr
        </CharString>
        <CharString name="equal">
          -61 124 72 131 72 hstem
          63 160 rmoveto
          -22 11 -14 18 vhcurveto
          254 -11 callsubr
          -254 hlineto
          -18 -11 -16 -20 hvcurveto
          203 vmoveto
          -22 11 -14 18 vhcurveto
          254 -11 callsubr
          -254 -38 callgsubr
        </CharString>
        <CharString name="estimated">
          47 -8 62 -62 109 116 48 158 57 hstemhm
          47 125 217 115 hintmask 01111100
          282 480 rmoveto
          -128 -107 -100 -115 hvcurveto
          -53 vlineto
          -131 107 -89 151 116 72 45 26 15 -13 23 -14 vhcurveto
          hintmask 10111100
          -25 -18 -47 -117 hhcurveto
          -90 -44 51 82 hvcurveto
          30 243 vlineto
          44 45 3 76 107 -104 77 -118 hvcurveto
          -110 -215 rmoveto
          36 vlineto
          77 45 45 64 66 42 -52 -74 -26 -10 -6 -34 vhcurveto
          endchar
        </CharString>
        <CharString name="eth">
          -7 -19 callsubr
          251 -20 49 -20 hstem
          41 83 231 83 vstem
          424 676 rmoveto
          8 4 4 8 8 vvcurveto
          17 -16 18 -16 -4 -3 -1 -2 -3 vhcurveto
          -68 -40 rlineto
          48 -42 -48 24 -43 hhcurveto
          -34 -11 -25 -16 -16 10 -10 10 -5 hvcurveto
          28 -1 31 -14 27 -28 -69 -40 rcurveline
          -8 -4 -3 -8 -7 vvcurveto
          -17 16 -19 15 -17 callgsubr
          3 vhcurveto
          75 44 33 -48 25 -67 6 -84 rlinecurve
          48 -19 -59 34 -59 hhcurveto
          -97 -80 -89 -103 hvcurveto
          -102 vlineto
          -102 92 -92 107 106 92 93 101 vhcurveto
          170 vlineto
          107 -31 101 -46 74 vhcurveto
          -237 -350 rmoveto
          59 50 58 65 61 55 -53 -61 vhcurveto
          -105 vlineto
          -61 -52 -58 -63 -64 -52 58 61 vhcurveto
          endchar
        </CharString>
        <CharString name="exclam">
          -290 -6 105 642 -20 hstemhm
          59 78 -66 66 -66 78 hintmask 11001000
          149 698 rmoveto
          28 -21 15 -24 vhcurveto
          hintmask 11100000
          -26 -19 -15 -28 hvcurveto
          hintmask 11010000
          -155 12 -185 -156 vvcurveto
          -18 16 -9 17 13 20 9 18 vhcurveto
          hintmask 11001000
          156 12 185 155 vvcurveto
          -44 -599 rmoveto
          -30 -23 -24 -29 -27 23 -25 30 28 23 25 27 29 -23 24 -28 hvcurveto
          endchar
        </CharString>
        <CharString name="exclamdown">
          -293 15 -21 642 105 hstemhm
          58 77 -65 65 -65 78 hintmask 11100000
          58 37 rmoveto
          -28 20 -15 24 vhcurveto
          hintmask 11001000
          26 20 15 28 hvcurveto
          hintmask 11010000
          156 -13 184 156 vvcurveto
          18 -16 9 -17 -14 -18 -9 -18 vhcurveto
          hintmask 11100000
          -156 -12 -184 -156 vvcurveto
          44 599 rmoveto
          29 23 24 29 28 -23 24 -29 -29 -23 -24 -28 -29 23 -24 29 hvcurveto
          endchar
        </CharString>
        <CharString name="f">
          -184 21 -21 409 65 213 73 hstemhm
          60 83 -83 246 hintmask 11110000
          143 580 rmoveto
          59 1 45 48 62 hhcurveto
          21 hlineto
          hintmask 11101000
          22 12 17 19 19 -12 18 -22 hvcurveto
          -35 hlineto
          -96 -81 -83 -104 hvcurveto
          -544 vlineto
          -17 17 -12 23 vhcurveto
          hintmask 11110000
          23 20 12 17 hvcurveto
          380 137 vlineto
          hintmask 11101000
          16 10 15 17 17 -10 16 -16 hvcurveto
          hintmask 11110000
          -137 hlineto
          endchar
        </CharString>
        <CharString name="fi">
          25 21 -21 409 65 174 112 -73 73 hstemhm
          60 83 -83 229 93 83 hintmask 11011010
          422 474 rmoveto
          -23 -33 callsubr
          hvcurveto
          -1 callgsubr
          23 24 19 15 15 vhcurveto
          415 vlineto
          -14 callgsubr
          -24 vhcurveto
          -141 213 rmoveto
          hintmask 11101010
          81 24 -39 20 hhcurveto
          19 12 33 14 36 -81 29 -77 -140 -79 -98 -101 hvcurveto
          -532 vlineto
          -17 17 -12 23 23 20 12 17 vhcurveto
          380 120 vlineto
          hintmask 11100110
          16 10 15 17 17 -10 16 -16 hvcurveto
          hintmask 11011010
          -120 90 hlineto
          59 39 64 99 vhcurveto
          endchar
        </CharString>
        <CharString name="five">
          -14 -6 76 -76 213 159 70 219 76 hstemhm
          25 84 -37 76 224 84 hintmask 10110110
          141 436 rmoveto
          15 219 rlineto
          237 hlineto
          18 9 19 19 19 -9 19 -18 hvcurveto
          -288 hlineto
          -13 -8 -12 -18 -1 hvcurveto
          -21 -280 rlineto
          -1 -6 -1 -11 -5 vvcurveto
          -19 8 -14 31 vhcurveto
          142 hlineto
          81 50 -44 -93 hvcurveto
          -19 vlineto
          -96 -50 -44 -82 vhcurveto
          hintmask 01111010
          -73 -58 37 66 20 -10 14 -32 -25 -17 -10 -30 -92 78 -81 138 120 95 59 157 hvcurveto
          19 vlineto
          151 -94 56 -121 vhcurveto
          endchar
        </CharString>
        <CharString name="fiveeighths">
          257 17 callgsubr
          111 38 -38 53 -53 121 68 48 96 53 39 -20 hstemhm
          25 61 136 61 185 -26 callsubr
          hintmask 1111001111101100
          598 383 -39 callsubr
          hintmask 1111001111110010
          -72 callsubr
          hintmask 1111001111110100
          -94 callgsubr
          -23 -45 callsubr
          -473 -188 -49 callsubr
          -134 rlineto
          -1 -8 -7 callsubr
          -21 -42 hvcurveto
          -10 vlineto
          hintmask 1110101111110100
          11 callsubr
          hintmask 1110011111110100
          14 -5 10 -26 -19 -11 -7 -23 -46 -24 callgsubr
        </CharString>
        <CharString name="fiveinferior">
          -189 -3 15 callsubr
          234 -49 callsubr
          -133 rlineto
          -1 -9 -7 callsubr
          -20 -43 hvcurveto
          -10 vlineto
          11 callsubr
          hintmask 01111100
          14 -5 10 -26 -19 -11 -6 -23 -47 -24 callgsubr
        </CharString>
        <CharString name="fivesuperior">
          -189 345 15 callsubr
          582 -49 callsubr
          -134 rlineto
          -1 -8 -7 callsubr
          -21 -42 hvcurveto
          -10 vlineto
          11 callsubr
          hintmask 01111100
          14 -5 10 -26 -19 -11 -7 -23 -46 -24 callgsubr
        </CharString>
        <CharString name="fl">
          34 21 -21 409 65 218 68 hstemhm
          60 83 -83 229 93 83 hintmask 11101100
          382 30 rmoveto
          -15 18 -15 23 24 18 15 15 vhcurveto
          664 vlineto
          45 -40 -74 21 -62 hhcurveto
          -118 -111 -73 -126 hvcurveto
          -532 vlineto
          -17 17 -12 23 vhcurveto
          hintmask 11110100
          23 20 12 17 hvcurveto
          380 120 vlineto
          hintmask 11101100
          16 10 15 17 17 -10 16 -16 hvcurveto
          hintmask 11110100
          -120 90 hlineto
          81 71 47 72 35 37 -12 -22 24 vhcurveto
          endchar
        </CharString>
        <CharString name="florin">
          -142 -137 79 417 65 269 75 hstem
          202 578 rmoveto
          63 10 51 52 65 hhcurveto
          27 hlineto
          17 15 16 23 20 -11 16 -16 hvcurveto
          -29 hlineto
          -102 -96 -86 -104 -14 hvcurveto
          -71 -514 rlineto
          -64 -9 -20 -58 -39 hhcurveto
          -21 hlineto
          -19 -14 -19 -23 -19 10 -18 18 hvcurveto
          22 hlineto
          96 43 96 105 15 hvcurveto
          41 295 rlineto
          144 hlineto
          17 11 16 18 16 -9 15 -16 hvcurveto
          -138 hlineto
          endchar
        </CharString>
        <CharString name="four">
          -39 0 248 -80 80 483 -20 hstemhm
          286 84 -84 167 hintmask 10110000
          286 -70 callsubr
          hintmask 01110000
          138 53 vlineto
          hintmask 10101000
          17 13 20 20 20 -10 20 -20 hvcurveto
          hintmask 10110000
          -53 168 hlineto
          -98 callgsubr
          -168 -173 vlineto
          219 436 rlineto
          3 5 1 4 5 vvcurveto
          20 -25 13 -16 -15 -14 -7 -17 -9 vhcurveto
          -247 -487 rlineto
          -4 -6 -1 -7 -6 vvcurveto
          hintmask 01110000
          -20 12 -13 19 vhcurveto
          250 hlineto
          endchar
        </CharString>
        <CharString name="fourinferior">
          -203 0 39 callsubr
          157 -20 hstemhm
          174 60 -60 109 hintmask 10011000
          174 20 -12 callsubr
          hintmask 01011000
          65 29 vlineto
          hintmask 10010100
          -5 callsubr
          hintmask 10011000
          -29 66 hlineto
          hintmask 00111000
          -4 callgsubr
          hintmask 10011000
          -63 callgsubr
          hintmask 01011000
          4 callgsubr
          endchar
        </CharString>
        <CharString name="foursuperior">
          -205 348 39 callsubr
          157 -20 hstemhm
          173 60 -60 109 hintmask 10011000
          173 368 -12 callsubr
          hintmask 01011000
          65 29 vlineto
          hintmask 10010100
          -5 callsubr
          hintmask 10011000
          -29 66 hlineto
          hintmask 00111000
          -4 callgsubr
          hintmask 10011000
          -66 -86 vlineto
          120 210 rlineto
          1 3 1 3 3 vvcurveto
          14 -19 9 -11 -10 -10 -5 -12 -7 vhcurveto
          -139 -247 rlineto
          -2 -5 -1 -4 -3 vvcurveto
          hintmask 01011000
          4 callgsubr
          endchar
        </CharString>
        <CharString name="fraction">
          -332 -9 -21 800 -20 hstem
          268 770 -102 callgsubr
          endchar
        </CharString>
        <CharString name="g">
          -32 callsubr
          -57 83 19 callsubr
          199 81 -53 81 hintmask 1101100100000000
          223 116 -81 callgsubr
          hintmask 1110010100000000
          -76 callsubr
          hintmask 1110100010000000
          -55 callsubr
          hintmask 1110001100000000
          -86 callsubr
          hintmask 1110100010000000
          -73 callsubr
          endchar
        </CharString>
        <CharString name="g.ss03">
          -5 -237 74 -74 114 119 75 334 75 -6 -20 hstemhm
          41 83 227 83 hintmask 10101110
          32 callsubr
          hintmask 10110110
          39 -22 -47 37 -65 hhcurveto
          -100 -80 -87 -105 hvcurveto
          -98 vlineto
          -101 82 -93 94 61 52 37 41 21 vhcurveto
          -84 vlineto
          -72 -15 -81 -116 vhcurveto
          hintmask 01110110
          -81 -32 40 -22 hhcurveto
          hintmask 10101110
          -17 -15 -20 -20 -47 84 -27 78 158 61 102 115 hvcurveto
          465 vlineto
          45 callgsubr
          hintmask 10110110
          59 52 58 64 55 56 -44 -73 vhcurveto
          -125 vlineto
          -27 -48 -65 -65 -61 -53 59 60 vhcurveto
          endchar
        </CharString>
        <CharString name="gbreve">
          -32 callsubr
          -57 83 89 42 -42 121 19 callsubr
          -13 -8 callgsubr
          -30 81 -53 81 hintmask 1101101001010000
          223 116 -81 callgsubr
          hintmask 1110100101010000
          -76 callsubr
          hintmask 1110101001001000
          -55 callsubr
          hintmask 1110100010010000
          -86 callsubr
          hintmask 1110011001001000
          -73 callsubr
          -49 801 rmoveto
          hintmask 1110101001010000
          -38 callsubr
          hintmask 1110011001010000
          -79 callsubr
          hintmask 1110011000100000
          -49 callgsubr
        </CharString>
        <CharString name="gcircumflex">
          -32 callsubr
          26 82 116 -20 19 callsubr
          199 81 -53 81 hintmask 1111101010000000
          232 647 -107 callgsubr
          95 -475 -81 callgsubr
          -76 callsubr
          hintmask 1111110001000000
          -55 callsubr
          hintmask 1111100110000000
          -86 callsubr
          hintmask 1111110001000000
          -73 callsubr
          endchar
        </CharString>
        <CharString name="gcommaaccent">
          -32 callsubr
          520 -20 19 callsubr
          53 104 42 81 -53 81 hintmask 1111010110000000
          305 646 -107 callsubr
          31 -472 -81 callgsubr
          -76 callsubr
          hintmask 1111100101000000
          -55 callsubr
          hintmask 1111001110000000
          -86 callsubr
          hintmask 1111100101000000
          -73 callsubr
          -122 898 -69 callsubr
          endchar
        </CharString>
        <CharString name="gdotaccent">
          -32 callsubr
          -57 83 82 83 19 callsubr
          68 81 50 81 -53 81 hintmask 1101110011000000
          223 116 -81 callgsubr
          hintmask 1110101011000000
          -76 callsubr
          hintmask 1110110010100000
          -55 callsubr
          hintmask 1110100111000000
          -86 callsubr
          hintmask 1110110010100000
          -73 callsubr
          -118 756 -84 callsubr
        </CharString>
        <CharString name="germandbls">
          67 -20 71 -30 -21 409 65 219 75 hstemhm
          6 177 -83 83 88 181 -71 71 -2 80 hintmask 1011100010000000
          337 -20 rmoveto
          100 93 73 150 hvcurveto
          16 vlineto
          107 -80 81 -68 13 vhcurveto
          hintmask 1011010100000000
          46 22 24 75 69 vvcurveto
          125 -78 57 -99 -127 -48 -88 -102 vhcurveto
          -104 -68 vlineto
          hintmask 1011101000000000
          -16 -10 -16 -17 -17 10 -15 16 hvcurveto
          hintmask 0111010100000000
          68 -380 hlineto
          -17 17 -12 23 23 20 12 17 vhcurveto
          549 vlineto
          59 23 56 73 70 32 -51 -77 -45 -10 -69 -64 -7 vhcurveto
          hintmask 1011101000000000
          -21 -4 -15 -3 -27 vvcurveto
          -27 14 -4 21 -4 vhcurveto
          hintmask 1011100010000000
          99 -12 45 -68 -82 vvcurveto
          -15 vlineto
          -96 -46 -51 -73 vhcurveto
          hintmask 1011101000000000
          -41 -20 17 -14 hhcurveto
          -15 -8 -23 -17 -44 69 -4 35 hvcurveto
          endchar
        </CharString>
        <CharString name="grave">
          -331 605 -21 120 -20 hstem
          127 588 -105 callgsubr
        </CharString>
        <CharString name="greater">
          -96 86 -21 425 -20 hstem
          381 277 rmoveto
          12 -7 14 -11 8 vhcurveto
          -267 175 rlineto
          3 -4 -4 1 -5 hhcurveto
          -17 -22 -17 -23 -10 6 -10 7 -4 hvcurveto
          225 -149 -225 -148 rlineto
          -7 -5 -6 -9 -11 vvcurveto
          -22 22 -17 17 5 4 1 3 4 vhcurveto
          267 175 rlineto
          12 8 6 13 12 vvcurveto
          endchar
        </CharString>
        <CharString name="greaterequal">
          -64 49 72 413 -20 hstem
          69 237 rmoveto
          -11 -5 -5 -9 -10 vvcurveto
          -20 19 -21 19 5 4 2 -29 callsubr
          267 144 rlineto
          13 6 5 15 12 vvcurveto
          12 -6 15 -12 7 vhcurveto
          -267 143 rlineto
          3 -4 -4 1 -5 hhcurveto
          -19 -19 -20 -20 -10 5 -10 11 -5 hvcurveto
          222 -116 rlineto
          98 -268 rmoveto
          20 -13 16 -16 vhcurveto
          -278 hlineto
          -15 -14 -16 -20 -22 14 -14 15 hvcurveto
          278 hlineto
          16 13 14 22 hvcurveto
          endchar
        </CharString>
        <CharString name="guillemotleft">
          -65 -62 callsubr
          107 151 rmoveto
          81 151 rlineto
          2 4 1 3 4 vvcurveto
          18 -23 24 -26 -12 -11 -5 -8 -4 vhcurveto
          -84 -157 rlineto
          -8 -15 -6 -9 -10 vvcurveto
          -11 5 -7 9 -16 vhcurveto
          84 -156 rlineto
          -9 5 9 -4 12 hhcurveto
          26 24 23 18 4 -1 4 -2 3 hvcurveto
          endchar
        </CharString>
        <CharString name="guillemotright">
          -65 95 -21 407 -20 hstem
          230 126 1 callgsubr
          12 9 4 9 5 vhcurveto
          85 -18 callsubr
          -85 157 rlineto
          8 -4 -11 5 -12 hhcurveto
          -26 -23 28 callgsubr
          82 -151 rlineto
          -269 -151 1 callgsubr
          11 10 4 9 5 vhcurveto
          84 -18 callsubr
          -84 157 rlineto
          8 -5 -10 5 -12 hhcurveto
          -27 -22 28 callgsubr
          81 -151 rlineto
          endchar
        </CharString>
        <CharString name="guilsinglleft">
          -253 -62 callsubr
          endchar
        </CharString>
        <CharString name="guilsinglright">
          -253 95 -21 407 -20 hstem
          43 126 1 callgsubr
          12 9 4 9 5 vhcurveto
          84 -18 callsubr
          -84 157 rlineto
          8 -4 -11 5 -12 hhcurveto
          -26 -23 28 callgsubr
          81 -151 rlineto
          endchar
        </CharString>
        <CharString name="h">
          5 21 -36 callgsubr
          280 -20 hstem
          60 83 223 83 vstem
          143 288 rmoveto
          73 55 44 54 62 52 -58 -59 vhcurveto
          -258 vlineto
          -20 22 -10 19 21 21 10 20 vhcurveto
          258 vlineto
          105 -81 87 -95 -65 -45 -37 -39 -20 vhcurveto
          327 vlineto
          -22 callsubr
          -701 vlineto
          -15 17 -15 24 23 19 15 15 vhcurveto
          endchar
        </CharString>
        <CharString name="hbar">
          5 21 -36 callgsubr
          93 61 -61 187 hstemhm
          3 140 -83 83 -83 214 92 83 hintmask 11101001
          3 603 rmoveto
          -18 12 -12 17 vhcurveto
          hintmask 11100101
          28 -543 hlineto
          -15 17 -15 24 23 19 15 15 vhcurveto
          258 vlineto
          73 55 44 54 62 52 -58 -59 vhcurveto
          -258 vlineto
          -20 22 -10 19 21 21 10 20 vhcurveto
          258 vlineto
          105 -81 87 -95 -65 -45 -37 -39 -20 vhcurveto
          169 101 vlineto
          hintmask 11100011
          15 15 12 18 17 -15 14 -15 hvcurveto
          hintmask 11101001
          -101 97 hlineto
          hintmask 11010101
          -22 callsubr
          hintmask 11100101
          -97 -28 vlineto
          hintmask 11101001
          -17 -12 -14 -17 hvcurveto
          endchar
        </CharString>
        <CharString name="hcircumflex">
          5 21 -36 callgsubr
          280 -20 219 -20 hstem
          60 83 223 83 vstem
          101 902 -107 callgsubr
          146 -558 rmoveto
          73 55 44 54 62 52 -58 -59 vhcurveto
          -258 vlineto
          -20 22 -10 19 21 21 10 20 vhcurveto
          258 vlineto
          105 -81 87 -95 -65 -45 -37 -39 -20 vhcurveto
          327 vlineto
          -22 callsubr
          -701 vlineto
          -15 17 -15 24 23 19 15 15 vhcurveto
          endchar
        </CharString>
        <CharString name="hungarumlaut">
          -206 604 -21 122 -20 hstem
          132 660 -99 callgsubr
          endchar
        </CharString>
        <CharString name="hyphen">
          -86 25 callsubr
          260 -34 callgsubr
          -260 -38 callgsubr
        </CharString>
        <CharString name="i">
          -41 callsubr
          150 95 hstem
          59 83 vstem
          -81 callsubr
          225 vmoveto
          -55 callgsubr
          endchar
        </CharString>
        <CharString name="iacute">
          -41 callsubr
          250 -20 hstem
          59 83 vstem
          178 646 -107 callsubr
          35 -114 rmoveto
          -93 callsubr
          endchar
        </CharString>
        <CharString name="ibreve">
          -41 callsubr
          141 -37 callgsubr
          -20 -8 callgsubr
          -163 83 hintmask 11011010
          -81 callsubr
          71 242 rmoveto
          hintmask 11101010
          -38 callsubr
          hintmask 11011010
          -79 callsubr
          hintmask 11010100
          -49 callgsubr
        </CharString>
        <CharString name="icircumflex">
          -41 callsubr
          250 -20 hstem
          59 83 vstem
          100 647 -107 callgsubr
          104 -117 rmoveto
          -93 callsubr
          endchar
        </CharString>
        <CharString name="idieresis">
          -41 callsubr
          134 83 hstemhm
          -3 81 -19 83 -14 80 hintmask 11110100
          38 671 rmoveto
          -105 callsubr
          -68 -197 rmoveto
          hintmask 11101000
          -93 callsubr
          endchar
        </CharString>
        <CharString name="igrave">
          -41 callsubr
          250 -20 hstem
          59 83 vstem
          -81 callsubr
          35 114 -105 callgsubr
        </CharString>
        <CharString name="ij">
          -106 -229 73 177 -21 474 -20 150 95 hstemhm
          59 83 11 180 -83 83 hintmask 11111010
          -81 callsubr
          225 vmoveto
          -55 callgsubr
          191 hmoveto
          -55 callgsubr
          -225 vmoveto
          26 callsubr
          hintmask 11111100
          -56 callgsubr
          endchar
        </CharString>
        <CharString name="imacron">
          -41 callsubr
          174 61 hstem
          59 83 vstem
          -81 callsubr
          -135 184 rmoveto
          -95 callgsubr
          endchar
        </CharString>
        <CharString name="infinity">
          372 55 72 218 72 hstem
          51 76 617 76 vstem
          238 417 rmoveto
          -96 -91 -60 -121 -121 91 -60 96 73 78 45 73 46 hvcurveto
          -73 47 77 -45 73 hhcurveto
          97 91 60 121 121 -91 60 -96 -74 -77 -46 -73 -47 hvcurveto
          73 -46 -78 46 -73 hhcurveto
          230 -181 rmoveto
          74 36 70 35 58 hhcurveto
          60 52 -34 -75 -75 -52 -34 -60 -58 -70 35 74 -36 hvcurveto
          -65 hmoveto
          -74 -36 -70 -35 -58 hhcurveto
          -60 -52 34 75 75 52 34 60 58 70 -35 -74 36 hvcurveto
          endchar
        </CharString>
        <CharString name="integral">
          -157 -200 69 811 68 hstemhm
          4 209 -84 84 -84 209 hintmask 11010000
          309 748 rmoveto
          -126 -54 -74 -87 hvcurveto
          -629 vlineto
          -69 -44 -20 -50 vhcurveto
          hintmask 11100000
          -21 -10 -18 -17 -19 16 -15 18 125 50 70 88 hvcurveto
          627 vlineto
          55 30 40 66 vhcurveto
          hintmask 11001000
          19 10 20 15 19 -16 14 -13 hvcurveto
          endchar
        </CharString>
        <CharString name="iogonek">
          -298 -203 41 636 -20 150 95 hstem
          3 47 9 83 vstem
          111 -162 rmoveto
          15 callgsubr
          46 31 43 42 33 hvcurveto
          11 6 8 9 10 vvcurveto
          415 -62 callgsubr
          -23 -18 -12 -17 vhcurveto
          -415 vlineto
          -8 4 -8 8 -5 vhcurveto
          -42 -37 -26 -46 -50 -71 callsubr
          vhcurveto
          -11 861 rmoveto
          -55 callgsubr
          endchar
        </CharString>
        <CharString name="itilde">
          -41 callsubr
          149 6 callgsubr
          59 83 hintmask 11011000
          -81 callsubr
          -60 162 rmoveto
          hintmask 11101000
          -91 callgsubr
          hintmask 11011000
          -91 callsubr
          endchar
        </CharString>
        <CharString name="j">
          27 callgsubr
          150 95 hstemhm
          -37 180 -83 83 hintmask 11101000
          101 699 rmoveto
          -55 callgsubr
          -225 vmoveto
          26 callsubr
          hintmask 11110000
          -56 callgsubr
          endchar
        </CharString>
        <CharString name="jcircumflex">
          27 callgsubr
          250 -20 hstemhm
          -37 180 -83 83 hintmask 11101000
          16 callgsubr
          hintmask 11110000
          -56 callgsubr
          1 173 -94 callsubr
        </CharString>
        <CharString name="k">
          -32 17 33 callsubr
          hintmask 01111000
          422 417 -52 callsubr
          hintmask 10111000
          -43 callgsubr
        </CharString>
        <CharString name="kcommaaccent">
          -32 -147 -21 185 33 callsubr
          hintmask 10111100
          303 -104 callgsubr
          232 582 -52 callsubr
          hintmask 11011100
          -43 callgsubr
        </CharString>
        <CharString name="kgreenlandic">
          -33 17 -21 25 -21 474 -20 22 -20 hstemhm
          59 83 hintmask 01011000
          421 417 rmoveto
          7 6 2 7 7 vvcurveto
          20 -23 19 -19 -6 -7 -3 -4 -5 vhcurveto
          -228 -206 rlineto
          182 vlineto
          hintmask 01101000
          -22 callsubr
          -1 callgsubr
          24 23 19 15 15 vhcurveto
          138 vlineto
          83 74 159 -233 rlineto
          hintmask 10011000
          -43 callgsubr
        </CharString>
        <CharString name="l">
          40 callgsubr
          hstem
          68 83 vstem
          109 760 rmoveto
          -53 callgsubr
          hvcurveto
          -701 vlineto
          -15 17 -15 24 23 19 15 15 vhcurveto
          701 -62 callgsubr
          vhcurveto
          endchar
        </CharString>
        <CharString name="lacute">
          40 callgsubr
          182 -20 hstem
          68 83 vstem
          191 864 -107 callsubr
          31 -46 rmoveto
          -53 callgsubr
          hvcurveto
          -701 vlineto
          -15 17 -15 24 23 19 15 15 vhcurveto
          701 -62 callgsubr
          vhcurveto
          endchar
        </CharString>
        <CharString name="lcaron">
          40 callgsubr
          hstem
          68 83 61 104 vstem
          264 741 -85 callsubr
          -155 19 rmoveto
          -53 callgsubr
          hvcurveto
          -701 vlineto
          -15 17 -15 24 23 19 15 15 vhcurveto
          701 -62 callgsubr
          vhcurveto
          endchar
        </CharString>
        <CharString name="lcommaaccent">
          -280 14 callgsubr
          760 -20 hstem
          182 -104 callgsubr
          40 925 rmoveto
          -53 callgsubr
          hvcurveto
          -701 vlineto
          -15 17 -15 24 23 19 15 15 vhcurveto
          701 -62 callgsubr
          vhcurveto
          endchar
        </CharString>
        <CharString name="ldot">
          -170 21 -21 250 100 410 -20 hstem
          68 83 64 108 vstem
          109 760 rmoveto
          -53 callgsubr
          hvcurveto
          -701 vlineto
          -15 17 -15 24 23 19 15 15 vhcurveto
          701 -62 callgsubr
          vhcurveto
          161 -410 -36 callsubr
        </CharString>
        <CharString name="less">
          -96 86 -21 425 -20 hstem
          22 277 rmoveto
          -12 6 -13 12 -8 vhcurveto
          267 -175 rlineto
          -3 4 4 -1 5 hhcurveto
          17 22 17 22 11 -6 9 -7 5 hvcurveto
          -225 148 225 149 rlineto
          7 4 6 10 10 vvcurveto
          23 -22 17 -17 -5 -4 -1 -3 -4 vhcurveto
          -267 -175 rlineto
          -11 -8 -7 -14 -12 vvcurveto
          endchar
        </CharString>
        <CharString name="lessequal">
          -64 49 72 413 -20 hstem
          145 353 rmoveto
          222 116 rlineto
          10 5 5 10 10 vvcurveto
          20 -19 20 -19 -4 -5 -1 -3 -4 vhcurveto
          -267 -143 rlineto
          -12 -7 -6 -15 -12 vvcurveto
          -12 5 -15 13 -6 vhcurveto
          267 -144 rlineto
          -2 4 5 -2 4 hhcurveto
          19 19 21 20 10 -5 9 -10 5 hvcurveto
          -321 -152 rmoveto
          -22 13 -14 17 vhcurveto
          277 hlineto
          16 14 14 22 20 -14 16 -16 hvcurveto
          -277 hlineto
          -17 -13 -16 -20 hvcurveto
          endchar
        </CharString>
        <CharString name="logicalnot">
          -13 63 213 -71 71 hstemhm
          342 83 hintmask 01100000
          44 28 callsubr
          269 -113 hlineto
          hintmask 10100000
          -15 18 -14 24 23 18 14 15 vhcurveto
          148 vlineto
          20 -15 16 -15 vhcurveto
          -322 -38 callgsubr
        </CharString>
        <CharString name="lozenge">
          -19 17 -21 739 -20 hstem
          289 701 rmoveto
          22 -12 -15 12 -22 hhcurveto
          -22 -15 -12 -22 -11 hvcurveto
          -142 -266 rlineto
          -15 -28 -11 -21 -21 vvcurveto
          -20 11 -21 15 -27 vhcurveto
          142 -267 rlineto
          -22 12 15 -12 21 hhcurveto
          21 16 13 21 11 hvcurveto
          143 267 rlineto
          15 27 11 21 20 vvcurveto
          21 -11 21 -15 28 vhcurveto
          -191 204 rmoveto
          141 -273 -141 -269 -140 269 rlineto
          endchar
        </CharString>
        <CharString name="lslash">
          -189 21 -21 760 -20 hstemhm
          16 177 -83 83 -83 186 hintmask 11010000
          151 760 rmoveto
          -53 callgsubr
          hvcurveto
          -367 vlineto
          -82 -44 rlineto
          hintmask 11100000
          -8 -4 -4 -9 -9 vvcurveto
          -18 15 -21 16 3 4 1 2 3 vhcurveto
          hintmask 11010000
          53 28 rlineto
          -260 vlineto
          -15 17 -15 24 23 19 15 15 vhcurveto
          305 vlineto
          90 48 24 callgsubr
          -3 0 -2 -4 vhcurveto
          hintmask 11100000
          -61 -33 rlineto
          323 -62 callgsubr
          vhcurveto
          endchar
        </CharString>
        <CharString name="m">
          287 43 callgsubr
          211 83 212 83 hintmask 11011100
          353 29 rmoveto
          -20 22 -9 19 21 21 9 20 vhcurveto
          262 vlineto
          70 54 44 53 51 54 -40 -77 vhcurveto
          -258 vlineto
          -15 19 -15 22 23 19 15 15 vhcurveto
          258 vlineto
          122 -83 70 -88 -58 -59 -32 -68 -35 vhcurveto
          59 -23 -51 41 -63 hhcurveto
          -66 -45 -37 -39 -22 hvcurveto
          41 vlineto
          hintmask 10111100
          -66 callgsubr
          258 vlineto
          hintmask 11011100
          75 54 42 53 56 48 -47 -68 vhcurveto
          endchar
        </CharString>
        <CharString name="m.ss04">
          285 21 -36 callgsubr
          hstem
          55 83 213 83 212 83 vstem
          550 480 rmoveto
          -61 -58 -29 -58 -39 hvcurveto
          58 -41 -59 29 -60 hhcurveto
          -93 -84 -79 -113 hvcurveto
          -259 vlineto
          -15 19 -14 23 22 19 14 15 vhcurveto
          259 vlineto
          73 53 44 52 56 52 -51 -66 vhcurveto
          -259 vlineto
          -17 19 -12 22 23 19 12 17 vhcurveto
          259 vlineto
          66 51 51 56 52 53 -45 -72 vhcurveto
          -258 vlineto
          -16 19 -14 22 24 18 14 16 vhcurveto
          258 vlineto
          113 -85 79 -94 vhcurveto
          endchar
        </CharString>
        <CharString name="macron">
          -228 628 61 hstem
          658 vmoveto
          -95 callgsubr
          endchar
        </CharString>
        <CharString name="minus">
          0 249 71 hstem
          60 284 -67 callsubr
        </CharString>
        <CharString name="mu">
          -2 -208 -21 221 75 407 -20 hstem
          66 83 225 83 vstem
          263 -8 rmoveto
          108 86 88 104 hvcurveto
          260 vlineto
          17 -18 13 -24 -21 -20 -13 -17 vhcurveto
          -260 vlineto
          -59 -51 -58 -59 -60 -55 61 42 vhcurveto
          274 vlineto
          15 -20 15 -22 -23 -18 -15 -15 vhcurveto
          -644 vlineto
          -15 17 -14 23 19 16 14 15 vhcurveto
          250 vlineto
          -31 24 45 -27 53 hhcurveto
          endchar
        </CharString>
        <CharString name="multiply">
          -99 150 -21 292 -20 hstem
          347 168 rmoveto
          6 -3 7 -5 6 vhcurveto
          -92 88 91 87 rlineto
          5 5 3 7 8 vvcurveto
          20 -19 19 -20 -8 -7 -3 -5 -5 vhcurveto
          -87 -87 -87 87 rlineto
          5 -5 -7 3 -8 hhcurveto
          -19 -20 -19 -20 -8 3 -7 5 -5 hvcurveto
          92 -87 -93 -88 rlineto
          -5 -6 -2 -6 -7 vvcurveto
          -19 20 -20 19 6 7 2 5 6 vhcurveto
          88 89 88 -89 rlineto
          -5 6 6 -2 7 hhcurveto
          20 20 20 19 hvcurveto
          endchar
        </CharString>
        <CharString name="n">
          4 43 callgsubr
          223 83 hintmask 11011000
          142 288 rmoveto
          73 55 44 54 62 52 -58 -59 vhcurveto
          -258 vlineto
          -40 callgsubr
          20 21 21 10 20 vhcurveto
          258 vlineto
          105 -81 87 -95 -67 -47 -37 -39 -20 vhcurveto
          41 vlineto
          hintmask 10111000
          17 -18 12 -20 -53 callgsubr
          vhcurveto
          -1 callgsubr
          24 22 20 15 15 vhcurveto
          endchar
        </CharString>
        <CharString name="n.ss04">
          3 21 -36 callgsubr
          hstem
          55 83 226 83 vstem
          251 480 rmoveto
          -107 -89 -90 -102 hvcurveto
          -259 vlineto
          -15 18 -14 23 22 20 14 15 vhcurveto
          259 vlineto
          60 50 57 63 63 50 -58 -59 vhcurveto
          -258 vlineto
          -16 19 -14 23 24 17 14 16 vhcurveto
          258 vlineto
          101 -89 91 -107 vhcurveto
          endchar
        </CharString>
        <CharString name="nacute">
          4 -35 callgsubr
          250 -20 hstemhm
          59 83 223 83 hintmask 11011100
          323 646 -107 callsubr
          -68 -300 rmoveto
          73 55 44 54 62 52 -58 -59 vhcurveto
          -258 vlineto
          -40 callgsubr
          20 21 21 10 20 vhcurveto
          258 vlineto
          105 -81 87 -95 -67 -47 -37 -39 -20 vhcurveto
          41 vlineto
          hintmask 10111100
          17 -18 12 -20 -53 callgsubr
          vhcurveto
          -1 callgsubr
          24 22 20 15 15 vhcurveto
          endchar
        </CharString>
        <CharString name="ncaron">
          4 -35 callgsubr
          277 -20 hstemhm
          59 83 223 83 hintmask 11011100
          147 725 -106 callgsubr
          -105 -353 rmoveto
          73 55 44 54 62 52 -58 -59 vhcurveto
          -258 vlineto
          -40 callgsubr
          20 21 21 10 20 vhcurveto
          258 vlineto
          105 -81 87 -95 -67 -47 -37 -39 -20 vhcurveto
          41 vlineto
          hintmask 10111100
          17 -18 12 -20 -53 callgsubr
          vhcurveto
          -1 callgsubr
          24 22 20 15 15 vhcurveto
          endchar
        </CharString>
        <CharString name="ncommaaccent">
          4 -147 -21 189 -30 callgsubr
          hstemhm
          59 83 223 83 hintmask 11101100
          315 -104 callgsubr
          -60 453 rmoveto
          73 55 44 54 62 52 -58 -59 vhcurveto
          -258 vlineto
          -40 callgsubr
          20 21 21 10 20 vhcurveto
          258 vlineto
          105 -81 87 -95 -67 -47 -37 -39 -20 vhcurveto
          41 vlineto
          hintmask 11011100
          17 -18 12 -20 -53 callgsubr
          vhcurveto
          -1 callgsubr
          24 22 20 15 15 vhcurveto
          endchar
        </CharString>
        <CharString name="nine">
          27 -6 76 -76 211 85 70 299 72 hstemhm
          40 0 callgsubr
          hintmask 10111100
          241 290 rmoveto
          60 53 18 44 33 hvcurveto
          -140 vlineto
          -97 -49 -45 -84 -71 -59 39 63 vhcurveto
          hintmask 01111100
          25 -22 8 -22 -26 -14 -9 -28 -86 71 -88 141 124 95 5 callsubr
          -16 callgsubr
          159 -94 59 -122 -48 callgsubr
          vhcurveto
          -21 vlineto
          -154 90 -48 111 vhcurveto
          146 197 rmoveto
          -92 -51 -35 -80 -83 -49 38 98 vhcurveto
          21 vlineto
          98 49 44 82 83 49 -44 -98 vhcurveto
          endchar
        </CharString>
        <CharString name="nineinferior">
          -167 -3 7 callgsubr
          149 20 callsubr
          28 vhcurveto
          hintmask 01111100
          18 -14 4 -13 callsubr
          -8 vlineto
          -83 52 -25 65 vhcurveto
          81 107 rmoveto
          -43 -28 -16 -41 -43 -25 17 46 vhcurveto
          8 vlineto
          45 25 20 43 43 26 -20 -45 vhcurveto
          endchar
        </CharString>
        <CharString name="ninesuperior">
          -165 345 7 callgsubr
          497 20 callsubr
          27 vhcurveto
          hintmask 01111100
          18 -14 5 -13 callsubr
          -9 vlineto
          -82 52 -25 65 vhcurveto
          81 106 rmoveto
          -42 -28 -16 -41 -43 -25 17 45 vhcurveto
          9 vlineto
          45 25 20 43 43 26 -20 -45 vhcurveto
          endchar
        </CharString>
        <CharString name="notequal">
          -10 0 -21 145 72 131 72 161 -20 hstem
          400 521 rmoveto
          2 5 2 3 5 vvcurveto
          14 -16 12 -12 -7 -6 -2 -8 -4 vhcurveto
          -74 -151 rlineto
          -206 44 callsubr
          166 hlineto
          -63 -131 rlineto
          -103 44 callsubr
          63 hlineto
          -52 -110 rlineto
          -2 -4 -1 -5 -3 vvcurveto
          -13 14 -10 12 7 6 3 8 4 vhcurveto
          66 134 rlineto
          213 -11 callsubr
          -173 hlineto
          64 131 rlineto
          109 -11 callsubr
          -69 hlineto
          endchar
        </CharString>
        <CharString name="ntilde">
          4 -35 callgsubr
          149 6 callgsubr
          59 83 223 83 hintmask 11001110
          188 636 rmoveto
          hintmask 11010110
          -91 callgsubr
          hintmask 11001110
          -91 callsubr
          -46 -348 rmoveto
          73 55 44 54 62 52 -58 -59 vhcurveto
          -258 vlineto
          -40 callgsubr
          20 21 21 10 20 vhcurveto
          258 vlineto
          105 -81 87 -95 -67 -47 -37 -39 -20 vhcurveto
          41 vlineto
          hintmask 10110110
          17 -18 12 -20 -53 callgsubr
          vhcurveto
          -1 callgsubr
          24 22 20 15 15 vhcurveto
          endchar
        </CharString>
        <CharString name="numbersign">
          110 54 -21 211 64 149 64 192 -20 hstem
          253 713 rmoveto
          -16 -15 -7 -12 -2 hvcurveto
          -29 -173 rlineto
          -107 hlineto
          -14 -10 -14 -18 -20 9 -12 19 hvcurveto
          91 hlineto
          -24 -149 rlineto
          -106 hlineto
          -15 -10 -15 -18 -19 10 -12 18 hvcurveto
          90 hlineto
          -27 -177 rlineto
          -22 19 -12 21 8 22 8 15 3 vhcurveto
          31 188 rlineto
          121 hlineto
          -29 -177 rlineto
          -22 20 -12 21 14 17 9 13 3 vhcurveto
          30 189 rlineto
          107 hlineto
          13 13 13 18 20 -15 13 -14 hvcurveto
          -92 hlineto
          25 149 rlineto
          106 hlineto
          13 13 14 18 19 -15 13 -14 hvcurveto
          -92 hlineto
          26 157 rlineto
          23 -18 12 -22 -15 -16 -7 -12 -2 vhcurveto
          -28 -173 rlineto
          -123 hlineto
          26 157 rlineto
          23 -17 12 -22 vhcurveto
          2 -256 rmoveto
          121 hlineto
          -24 -149 rlineto
          -121 hlineto
          endchar
        </CharString>
        <CharString name="o">
          -20 callgsubr
          hstem
          41 -37 callsubr
          238 480 -101 callsubr
          endchar
        </CharString>
        <CharString name="oacute">
          -20 callgsubr
          224 -20 hstem
          41 -37 callsubr
          310 646 -107 callsubr
          41 -108 -101 callsubr
          endchar
        </CharString>
        <CharString name="obreve">
          -20 callgsubr
          115 -37 callgsubr
          41 83 -7 -8 callgsubr
          -6 83 hintmask 11011001
          238 480 -101 callsubr
          -45 428 rmoveto
          hintmask 11101001
          -38 callsubr
          hintmask 11010101
          -79 callsubr
          hintmask 11010010
          -49 callgsubr
        </CharString>
        <CharString name="ocircumflex">
          -20 callgsubr
          -25 callgsubr
          41 -6 callgsubr
          hintmask 10111100
          238 647 -107 callgsubr
          104 -111 rmoveto
          -108 -89 -90 -102 hvcurveto
          -102 vlineto
          -102 91 -92 106 106 92 93 101 vhcurveto
          102 vlineto
          105 -92 87 -106 vhcurveto
          -75 callsubr
          hintmask 11011100
          -59 callsubr
          endchar
        </CharString>
        <CharString name="odieresis">
          -20 callgsubr
          108 83 hstem
          41 83 9 81 50 80 9 83 vstem
          174 671 rmoveto
          -105 callsubr
          -66 -191 -101 callsubr
          endchar
        </CharString>
        <CharString name="oe">
          278 -8 70 -70 109 112 56 136 75 31 callsubr
          83 229 79 hintmask 10111110
          238 480 rmoveto
          -108 -89 -90 -102 hvcurveto
          -102 vlineto
          -102 91 -92 106 66 59 38 54 34 vhcurveto
          -57 34 65 -35 79 hhcurveto
          94 64 44 26 hvcurveto
          hintmask 01111110
          18 -15 21 -20 vhcurveto
          hintmask 10111110
          -25 -19 -39 -74 hhcurveto
          -86 -58 47 74 hvcurveto
          30 219 vlineto
          46 43 3 81 106 -90 77 -102 -65 -57 -37 -54 -33 hvcurveto
          54 -33 -60 37 -66 hhcurveto
          -75 callsubr
          -59 callsubr
          83 -19 rmoveto
          38 vlineto
          60 52 47 63 66 48 -54 -59 -26 -9 -6 -35 vhcurveto
          endchar
        </CharString>
        <CharString name="ogonek">
          -371 -204 41 185 -20 hstem
          0 47 vstem
          108 -163 rmoveto
          15 callgsubr
          46 32 43 42 34 hvcurveto
          -36 17 rlineto
          -51 -39 -34 -52 -56 -71 callsubr
          vhcurveto
          endchar
        </CharString>
        <CharString name="ograve">
          -20 callgsubr
          224 -20 hstem
          41 -37 callsubr
          238 480 -101 callsubr
          -78 300 -105 callgsubr
        </CharString>
        <CharString name="ohungarumlaut">
          -20 callgsubr
          226 -20 hstem
          41 -37 callsubr
          252 661 -99 callgsubr
          -78 -110 -101 callsubr
          endchar
        </CharString>
        <CharString name="omacron">
          -20 callgsubr
          148 61 hstem
          41 -37 callsubr
          103 658 rmoveto
          -95 callgsubr
          135 -178 -101 callsubr
          endchar
        </CharString>
        <CharString name="one">
          -251 21 -21 732 -20 hstemhm
          9 173 -84 84 hintmask 11100000
          98 -70 callsubr
          672 vlineto
          19 -19 11 -18 -12 -7 -6 -7 -7 vhcurveto
          -92 -109 rlineto
          -9 -7 -9 -16 -12 vvcurveto
          -18 13 -17 18 6 8 3 8 7 vhcurveto
          hintmask 11010000
          37 55 rlineto
          endchar
        </CharString>
        <CharString name="one.lnum">
          -102 0 76 656 -20 hstemhm
          14 230 -172 172 -84 84 -84 229 hintmask 11100000
          14 38 rmoveto
          -21 13 -17 17 vhcurveto
          315 hlineto
          hintmask 11000100
          15 15 17 21 21 -15 17 -15 hvcurveto
          hintmask 11100000
          -115 626 hlineto
          19 -19 11 -18 -12 -7 -6 -7 -6 vhcurveto
          -94 -112 rlineto
          hintmask 11010000
          -9 -6 -7 -15 -11 vvcurveto
          -18 13 -17 17 7 7 3 8 7 vhcurveto
          hintmask 11001000
          37 55 rlineto
          -530 -116 vlineto
          hintmask 11100000
          -17 -13 -17 -21 hvcurveto
          endchar
        </CharString>
        <CharString name="oneeighth">
          139 17 callgsubr
          100 49 349 -20 58 -20 hstemhm
          80 60 210 -26 callsubr
          hintmask 1111111011000000
          80 368 -87 callgsubr
          400 -271 -39 callsubr
          hintmask 1111111100100000
          -72 callsubr
          hintmask 1111111101000000
          -74 callsubr
        </CharString>
        <CharString name="onehalf">
          126 -9 -21 30 53 275 55 349 -20 58 -20 hstem
          80 60 204 68 121 60 vstem
          353 288 -4 callsubr
          -33 callgsubr
          -84 vvcurveto
          -51 -73 callgsubr
          -36 -59 vhcurveto
          -273 80 -87 callgsubr
          377 116 -102 callgsubr
          endchar
        </CharString>
        <CharString name="oneinferior">
          -324 21 -21 384 -20 hstem
          68 60 vstem
          68 20 rmoveto
          -14 15 -6 15 15 15 6 14 vhcurveto
          344 vlineto
          12 -14 8 -12 -7 -16 callsubr
          -4 vhcurveto
          -60 -52 rlineto
          -7 -4 -5 -9 -9 vvcurveto
          -12 9 -12 12 4 4 1 4 5 vhcurveto
          20 21 rlineto
          endchar
        </CharString>
        <CharString name="onequarter">
          120 -9 -21 51 -21 732 -20 58 -20 hstem
          81 60 347 60 vstem
          81 368 -87 callgsubr
          393 116 -102 callgsubr
          14 -750 -12 callsubr
          65 29 vlineto
          -5 callsubr
          -29 66 hlineto
          -4 callgsubr
          -63 callgsubr
          4 callgsubr
          endchar
        </CharString>
        <CharString name="onesuperior">
          -324 369 -21 384 -20 hstem
          68 60 vstem
          68 368 -87 callgsubr
          endchar
        </CharString>
        <CharString name="onethird">
          140 -9 -21 27 53 -53 118 61 48 107 52 349 -20 58 -20 hstemhm
          80 60 211 12 callgsubr
          hintmask 1101111111000000
          479 50 -2 callsubr
          hintmask 1011111110100000
          -46 callgsubr
          hintmask 1101111111000000
          28 12 18 33 43 vvcurveto
          69 -61 callgsubr
          -60 callsubr
          -399 318 -87 callgsubr
          377 116 -102 callgsubr
          endchar
        </CharString>
        <CharString name="ordfeminine">
          -180 432 47 93 36 67 71 hstemhm
          32 62 -42 221 -61 61 hintmask 11101000
          147 746 rmoveto
          -43 -52 -19 -21 -14 8 -17 14 hvcurveto
          hintmask 11110100
          13 12 19 47 hhcurveto
          48 18 -39 -35 hvcurveto
          -12 -29 vlineto
          -90 -61 -19 -72 -57 37 -28 45 46 32 22 27 23 hvcurveto
          -23 vlineto
          -12 13 -10 15 18 12 10 12 vhcurveto
          162 vlineto
          65 -34 61 -92 vhcurveto
          65 -202 rmoveto
          -31 -38 -34 -35 -25 -20 14 31 41 44 7 48 vhcurveto
          26 hlineto
          endchar
        </CharString>
        <CharString name="ordmasculine">
          -168 431 55 204 56 hstem
          35 62 138 61 vstem
          165 746 rmoveto
          -72 -58 -59 -67 hvcurveto
          -62 vlineto
          -67 60 -60 70 70 61 60 67 vhcurveto
          62 vlineto
          69 -61 57 -70 vhcurveto
          70 -188 rmoveto
          -37 -32 -35 -38 -38 -30 35 37 vhcurveto
          62 vlineto
          36 30 34 38 39 31 -34 -36 vhcurveto
          endchar
        </CharString>
        <CharString name="oslash">
          -22 -11 -21 24 -29 callgsubr
          29 -83 callsubr
          endchar
        </CharString>
        <CharString name="oslashacute">
          -22 -11 -21 24 -29 callgsubr
          224 -83 callsubr
          203 460 -95 callsubr
        </CharString>
        <CharString name="otilde">
          -20 callgsubr
          123 61 -28 28 31 callsubr
          83 hintmask 11011100
          238 480 -101 callsubr
          -175 348 rmoveto
          hintmask 11101100
          -91 callgsubr
          hintmask 11011100
          -91 callsubr
          endchar
        </CharString>
        <CharString name="p">
          -5 -5 callgsubr
          -6 -20 hstemhm
          60 83 227 83 hintmask 11011100
          100 474 rmoveto
          -23 -33 callsubr
          hvcurveto
          -644 -12 callgsubr
          hintmask 11101100
          105 -80 87 -100 -65 -47 -37 -39 -22 vhcurveto
          41 vlineto
          hintmask 11011100
          17 -17 12 -22 vhcurveto
          270 -288 26 callgsubr
          hintmask 11101100
          38 callsubr
        </CharString>
        <CharString name="paragraph">
          32 21 -21 683 48 hstem
          261 60 79 60 vstem
          225 731 rmoveto
          -110 -86 -56 -150 hvcurveto
          -12 vlineto
          -150 86 -57 110 vhcurveto
          36 -276 hlineto
          -20 15 -10 15 15 15 10 20 vhcurveto
          653 79 -654 vlineto
          -20 15 -9 15 15 15 9 20 vhcurveto
          672 vlineto
          20 -15 10 -15 vhcurveto
          endchar
        </CharString>
        <CharString name="parenleft">
          -189 -20 75 638 75 hstemhm
          57 84 -84 235 hintmask 11010000
          249 -20 rmoveto
          33 10 15 22 18 -6 20 -23 hvcurveto
          hintmask 11100000
          -54 -68 18 82 hvcurveto
          424 vlineto
          55 44 59 78 vhcurveto
          hintmask 11010000
          17 12 16 22 20 -11 17 -30 -102 -92 -82 -107 hvcurveto
          -424 vlineto
          -117 90 -58 102 vhcurveto
          endchar
        </CharString>
        <CharString name="parenright">
          -189 -20 75 638 75 hstemhm
          18 235 -84 84 hintmask 11100000
          60 -20 rmoveto
          102 91 58 117 hvcurveto
          424 vlineto
          107 -92 82 -102 -31 -10 -17 -20 -22 12 -16 17 vhcurveto
          hintmask 11010000
          78 44 -59 -55 hvcurveto
          -424 vlineto
          -82 -69 -18 -53 vhcurveto
          hintmask 11100000
          -24 -5 -20 -18 -22 9 -15 33 hvcurveto
          endchar
        </CharString>
        <CharString name="partialdiff">
          -2 -8 75 344 75 159 99 -74 74 hstemhm
          45 83 231 83 hintmask 11101100
          359 404 rmoveto
          48 -19 -59 34 -60 hhcurveto
          -96 -80 -89 -103 hvcurveto
          -108 vlineto
          -102 92 -92 106 107 92 96 102 vhcurveto
          176 vlineto
          267 -96 111 -140 -74 -68 -31 -24 -11 13 -33 20 vhcurveto
          hintmask 11011100
          18 27 25 58 hhcurveto
          115 40 -101 -165 4 hvcurveto
          -231 -110 rmoveto
          59 50 58 64 62 55 -53 -61 vhcurveto
          -111 vlineto
          -61 -52 -58 -64 -64 -51 58 61 vhcurveto
          endchar
        </CharString>
        <CharString name="percent">
          266 -13 callgsubr
          hintmask 1101111111000000
          165 345 rmoveto
          72 57 32 86 hvcurveto
          150 vlineto
          -96 callgsubr
          366 -616 rmoveto
          72 57 32 86 hvcurveto
          150 vlineto
          hintmask 1110111111000000
          -96 callgsubr
          -99 505 -102 callgsubr
          endchar
        </CharString>
        <CharString name="period">
          -323 -6 105 hstem
          37 103 vstem
          89 -35 callsubr
          endchar
        </CharString>
        <CharString name="periodcentered">
          -311 250 100 hstem
          40 108 vstem
          95 350 -36 callsubr
        </CharString>
        <CharString name="perthousand">
          582 -13 callgsubr
          61 60 138 60 hintmask 1101111111110000
          165 345 rmoveto
          72 57 32 86 hvcurveto
          150 vlineto
          -96 callgsubr
          366 -616 rmoveto
          72 57 32 86 hvcurveto
          150 vlineto
          hintmask 1110111111110000
          -96 callgsubr
          250 -268 rmoveto
          72 57 32 86 hvcurveto
          150 vlineto
          -96 callgsubr
          -418 505 -102 callgsubr
          endchar
        </CharString>
        <CharString name="pi">
          6 21 -21 398 76 hstem
          59 84 219 84 vstem
          97 474 rmoveto
          -19 -19 -10 -20 hvcurveto
          -415 vlineto
          -21 callgsubr
          369 219 -369 vlineto
          -21 callgsubr
          415 vlineto
          20 -19 10 -19 vhcurveto
          endchar
        </CharString>
        <CharString name="plus">
          -68 51 225 -71 71 -71 225 hstemhm
          26 225 -72 72 -72 226 hintmask 10010000
          216 51 rmoveto
          21 14 12 17 hvcurveto
          hintmask 01010000
          125 124 vlineto
          hintmask 10000100
          -53 callsubr
          hintmask 10010000
          -124 124 hlineto
          hintmask 00101000
          15 -14 15 -21 -21 -16 -15 -15 vhcurveto
          hintmask 10001000
          -124 -124 vlineto
          hintmask 01010000
          22 callsubr
          hintmask 01001000
          124 -125 hlineto
          hintmask 10010000
          -17 16 -12 21 vhcurveto
          endchar
        </CharString>
        <CharString name="plusminus">
          -29 50 71 51 221 -71 71 -71 221 hstemhm
          46 225 -71 71 -71 225 hintmask 11001000
          236 172 rmoveto
          21 14 12 17 hvcurveto
          hintmask 10101000
          121 124 vlineto
          hintmask 11000010
          -53 callsubr
          hintmask 11001000
          -124 120 hlineto
          hintmask 10010100
          15 -14 15 -21 -20 -16 -15 -15 vhcurveto
          hintmask 11000100
          -120 -125 vlineto
          hintmask 10101000
          22 callsubr
          hintmask 10100100
          125 -121 hlineto
          hintmask 11001000
          -17 16 -12 20 vhcurveto
          -190 -87 rmoveto
          -21 12 -14 17 vhcurveto
          320 hlineto
          hintmask 11000010
          -53 callsubr
          -320 hlineto
          hintmask 11001000
          -17 -12 -16 -20 hvcurveto
          endchar
        </CharString>
        <CharString name="product">
          74 21 -21 655 76 40 callsubr
          109 731 rmoveto
          -19 -19 -10 -20 hvcurveto
          -672 vlineto
          -21 callgsubr
          626 263 -626 vlineto
          -21 callgsubr
          672 vlineto
          20 -19 10 -19 vhcurveto
          endchar
        </CharString>
        <CharString name="q">
          -5 -5 callgsubr
          -6 -20 hstemhm
          41 83 227 83 hintmask 11011100
          32 callsubr
          hintmask 11101100
          39 -22 -47 37 -65 hhcurveto
          -100 -80 -87 -105 hvcurveto
          -102 vlineto
          -101 82 -93 94 61 52 37 41 21 vhcurveto
          -269 vlineto
          -15 19 -15 23 24 17 15 15 vhcurveto
          644 vlineto
          hintmask 11011100
          45 callgsubr
          hintmask 11101100
          59 52 58 64 55 56 -44 -73 vhcurveto
          -129 vlineto
          -27 -48 -65 -65 -61 -53 59 60 vhcurveto
          endchar
        </CharString>
        <CharString name="q.ss02">
          -10 -5 callgsubr
          hstem
          41 83 227 83 vstem
          219 -8 rmoveto
          63 48 38 40 21 hvcurveto
          -270 vlineto
          -15 19 -14 23 24 17 13 16 vhcurveto
          482 vlineto
          136 -97 62 -98 -130 -68 -102 -92 vhcurveto
          -101 vlineto
          -104 82 -89 96 vhcurveto
          18 75 rmoveto
          -60 -53 59 59 hvcurveto
          101 vlineto
          48 28 71 85 61 53 -40 -88 vhcurveto
          -118 vlineto
          -33 -53 -59 -61 vhcurveto
          endchar
        </CharString>
        <CharString name="question">
          -91 -6 105 521 121 -66 66 hstemhm
          124 104 -84 66 96 72 hintmask 11010100
          378 566 rmoveto
          98 -68 77 -126 -97 -65 -52 -36 -22 18 -11 14 vhcurveto
          hintmask 10101100
          31 4 55 91 hhcurveto
          80 46 -43 -73 -94 -73 -43 -41 -41 hvcurveto
          -26 -26 -22 -37 -106 vvcurveto
          -28 11 -9 21 24 10 12 15 70 1 39 37 37 vhcurveto
          36 40 94 59 119 vvcurveto
          -202 -467 rmoveto
          hintmask 11010100
          -28 -24 -24 -29 -27 23 -25 29 30 22 25 27 29 -23 24 -29 hvcurveto
          endchar
        </CharString>
        <CharString name="questiondown">
          -91 -6 67 -67 121 521 105 hstemhm
          30 71 78 104 -85 66 hintmask 01111000
          30 169 rmoveto
          -98 68 -77 126 97 65 52 36 22 -18 11 -15 vhcurveto
          hintmask 10110100
          -31 -4 -54 -91 hhcurveto
          -80 -46 43 73 93 75 41 40 43 hvcurveto
          25 27 23 36 106 vvcurveto
          28 -11 9 -21 -25 -9 -12 -14 -71 -1 -39 -38 -37 vhcurveto
          -35 -40 -94 -59 -119 vvcurveto
          201 467 rmoveto
          hintmask 10111000
          29 23 24 29 28 -22 24 -30 -29 -23 -24 -28 -29 24 -24 28 hvcurveto
          endchar
        </CharString>
        <CharString name="quotedbl">
          -220 572 196 hstem
          40 63 73 63 vstem
          71 768 rmoveto
          -50 callsubr
          136 hmoveto
          -50 callsubr
          endchar
        </CharString>
        <CharString name="quotedblbase">
          -162 -89 188 hstem
          36 103 57 104 vstem
          248 99 rmoveto
          -29 -23 -28 callsubr
          -1 -4 -1 -3 -3 vvcurveto
          -15 17 -10 13 7 9 4 10 4 vhcurveto
          33 74 12 33 15 vvcurveto
          28 -24 24 -28 vhcurveto
          -160 hmoveto
          -42 callsubr
        </CharString>
        <CharString name="quotedblleft">
          -171 554 187 hstem
          30 104 57 104 vstem
          82 554 -69 callsubr
          161 hmoveto
          29 23 23 29 21 -13 19 -20 8 hvcurveto
          21 52 rlineto
          2 4 0 3 3 vvcurveto
          16 -16 9 -13 -8 -8 -4 -9 -5 vhcurveto
          -33 -74 -11 -34 -14 vvcurveto
          -29 23 -23 29 vhcurveto
          endchar
        </CharString>
        <CharString name="quotedblright">
          -174 554 187 hstem
          34 104 57 103 vstem
          247 -8 callsubr
          13 8 9 4 9 4 vhcurveto
          33 74 11 34 14 vvcurveto
          28 -23 24 -28 vhcurveto
          -161 hmoveto
          -29 -23 -24 -28 -22 13 -19 19 -8 hvcurveto
          -20 -52 rlineto
          -2 -3 -1 -4 -3 vvcurveto
          -15 17 -9 13 7 9 4 9 4 vhcurveto
          34 74 11 34 14 vvcurveto
          28 -24 24 -28 vhcurveto
          endchar
        </CharString>
        <CharString name="quoteleft">
          -332 41 callgsubr
          30 104 vstem
          82 554 -69 callsubr
          endchar
        </CharString>
        <CharString name="quoteright">
          -334 41 callgsubr
          34 104 vstem
          86 -8 callsubr
          14 7 9 4 9 4 vhcurveto
          33 74 12 34 14 vvcurveto
          28 -24 24 -28 vhcurveto
          endchar
        </CharString>
        <CharString name="quotesinglbase">
          38 callgsubr
          88 99 rmoveto
          -42 callsubr
        </CharString>
        <CharString name="quotesingle">
          -356 572 196 hstem
          40 63 vstem
          71 768 rmoveto
          -50 callsubr
          endchar
        </CharString>
        <CharString name="r">
          -155 43 callgsubr
          hintmask 11010000
          303 405 -51 callgsubr
          hintmask 10110000
          -66 callgsubr
          228 vlineto
          hintmask 11010000
          29 callgsubr
        </CharString>
        <CharString name="r.ss04">
          -162 21 -36 callgsubr
          hstem
          52 83 vstem
          296 405 rmoveto
          17 15 17 21 20 -13 17 -21 hvcurveto
          -52 hlineto
          -119 -71 -119 -118 hvcurveto
          -214 vlineto
          -15 17 -14 23 24 19 14 15 vhcurveto
          213 vlineto
          87 50 76 69 vhcurveto
          endchar
        </CharString>
        <CharString name="racute">
          -155 -35 callgsubr
          250 -20 hstemhm
          59 83 hintmask 11011000
          247 646 -107 callsubr
          169 -183 -51 callgsubr
          hintmask 10111000
          -66 callgsubr
          228 vlineto
          hintmask 11011000
          29 callgsubr
        </CharString>
        <CharString name="radical">
          138 -14 -21 731 72 hstem
          9 408 rmoveto
          -22 12 -14 17 vhcurveto
          34 hlineto
          126 -377 rlineto
          -20 7 22 -10 23 hhcurveto
          23 23 10 20 6 hvcurveto
          214 701 rlineto
          90 hlineto
          15 14 14 22 20 -14 16 -15 hvcurveto
          -134 hlineto
          -13 -11 -9 -13 -4 hvcurveto
          -194 -667 -104 335 rlineto
          16 -5 -9 14 -16 hhcurveto
          -78 hlineto
          -17 -12 -16 -20 hvcurveto
          endchar
        </CharString>
        <CharString name="rcaron">
          -156 -35 callgsubr
          277 -20 hstemhm
          59 83 hintmask 11011000
          69 725 -106 callgsubr
          134 -236 -51 callgsubr
          hintmask 10111000
          -66 callgsubr
          228 vlineto
          hintmask 11011000
          29 callgsubr
        </CharString>
        <CharString name="rcommaaccent">
          -155 -147 -21 189 -30 callgsubr
          hstemhm
          hintmask 11100000
          155 -104 callgsubr
          261 570 -51 callgsubr
          hintmask 11010000
          -66 callgsubr
          228 vlineto
          hintmask 11100000
          29 callgsubr
        </CharString>
        <CharString name="registered">
          211 35 49 90 209 127 47 79 49 hstem
          48 49 160 52 114 52 138 49 vstem
          -28 callgsubr
          209 -165 rmoveto
          -12 13 -7 14 13 12 7 12 vhcurveto
          146 48 vlineto
          69 -148 rlineto
          -10 5 5 -8 9 hhcurveto
          14 15 14 14 2 0 2 -1 3 hvcurveto
          -65 139 rlineto
          38 10 29 31 62 vvcurveto
          81 -51 26 -59 vhcurveto
          -90 hlineto
          -11 -7 -9 -9 hvcurveto
          108 -29 rmoveto
          35 23 -17 -48 -44 -23 -18 -35 hvcurveto
          -56 127 hlineto
          304 -148 -27 callgsubr
          endchar
        </CharString>
        <CharString name="ring">
          -311 576 38 114 40 hstem
          0 38 111 39 vstem
          94 768 -82 callgsubr
          endchar
        </CharString>
        <CharString name="s">
          -107 -8 -24 callsubr
          -9 callgsubr
          hintmask 10101100
          191 59 rmoveto
          hintmask 01011010
          -72 callgsubr
          31 callgsubr
          hintmask 10101100
          -84 callgsubr
        </CharString>
        <CharString name="sacute">
          -107 -8 -24 callsubr
          224 -20 -9 callgsubr
          hintmask 10101110
          268 646 -107 callsubr
          36 -529 rmoveto
          hintmask 01011101
          -72 callgsubr
          31 callgsubr
          hintmask 10101110
          -84 callgsubr
        </CharString>
        <CharString name="scaron">
          -107 -8 -24 callsubr
          251 -20 -9 callgsubr
          hintmask 10101110
          93 725 -106 callgsubr
          -2 -582 rmoveto
          hintmask 01011101
          -72 callgsubr
          31 callgsubr
          hintmask 10101110
          -84 callgsubr
        </CharString>
        <CharString name="scedilla">
          -107 13 callgsubr
          50 -24 callsubr
          hstemhm
          42 74 20 173 -47 47 -23 61 -61 75 hintmask 1010101100000000
          191 59 rmoveto
          hintmask 1001101010000000
          -88 -21 47 -23 hhcurveto
          -17 -12 -23 -15 -33 62 -39 89 -4 hvcurveto
          -21 -82 -64 callsubr
          hintmask 0110101100000000
          7 callsubr
          52 rlineto
          hintmask 1010011000100000
          86 10 48 49 73 181 -245 -66 102 vvcurveto
          31 callgsubr
          hintmask 1010101001000000
          -84 callgsubr
        </CharString>
        <CharString name="schwa">
          -35 -8 66 145 56 112 109 -70 70 hstemhm
          32 79 229 83 hintmask 11101100
          224 -8 rmoveto
          110 89 87 102 hvcurveto
          105 vlineto
          116 -92 78 -130 -97 -61 -45 -26 -15 14 -23 20 vhcurveto
          hintmask 11011100
          25 21 39 75 hhcurveto
          83 59 -47 -74 hvcurveto
          -30 -219 vlineto
          -45 -44 -3 -80 -107 90 -77 102 hvcurveto
          116 211 rmoveto
          -36 vlineto
          -61 -52 -48 -63 -66 -48 54 59 26 9 6 35 vhcurveto
          endchar
        </CharString>
        <CharString name="scircumflex">
          -107 -8 67 325 96 -67 67 0 108 116 -20 -9 callgsubr
          hintmask 10011101
          192 647 -107 callgsubr
          103 -532 rmoveto
          -72 callgsubr
          hintmask 10101110
          31 callgsubr
          hintmask 11001110
          -84 callgsubr
        </CharString>
        <CharString name="scommaaccent">
          -107 -147 -21 160 -24 callsubr
          -9 callgsubr
          hintmask 11010101
          269 -104 callgsubr
          35 224 rmoveto
          hintmask 10101101
          -72 callgsubr
          31 callgsubr
          hintmask 11010110
          -84 callgsubr
        </CharString>
        <CharString name="section">
          -30 -67 72 -72 202 397 199 -71 71 hstemhm
          57 72 -72 78 203 65 -53 72 hintmask 10100110
          57 416 rmoveto
          -233 281 82 -153 vvcurveto
          -66 -39 -41 -74 -88 -17 66 37 vhcurveto
          hintmask 01010101
          14 -10 13 -27 -22 -15 -9 -27 -86 68 -80 118 95 95 49 145 vhcurveto
          118 vlineto
          232 -287 -81 153 vvcurveto
          79 50 32 54 75 17 -59 -35 vhcurveto
          hintmask 10100110
          -22 11 -12 27 19 15 7 30 88 -56 74 -111 -76 -103 -37 -159 vhcurveto
          hintmask 10101001
          293 -310 rmoveto
          -65 69 -156 -22 132 vvcurveto
          26 vlineto
          65 -68 156 22 -132 vvcurveto
          endchar
        </CharString>
        <CharString name="semicolon">
          -284 -68 -21 188 218 0 105 hstemhm
          55 103 hintmask 11010000
          106 -42 callgsubr
          hintmask 10110000
          4 323 rmoveto
          -34 callsubr
        </CharString>
        <CharString name="seven">
          -29 19 -21 522 211 -76 76 hstemhm
          24 84 hintmask 11010000
          455 701 rmoveto
          15 -21 15 -17 vhcurveto
          -355 hlineto
          -19 -19 -15 -15 hvcurveto
          -151 vlineto
          -17 19 -13 23 22 20 13 17 vhcurveto
          hintmask 10110000
          105 263 -57 vlineto
          -288 -543 rlineto
          -3 -6 -1 -5 -6 vvcurveto
          -24 25 -16 26 12 10 4 10 5 vhcurveto
          284 553 rlineto
          8 15 6 16 12 vvcurveto
          endchar
        </CharString>
        <CharString name="seveneighths">
          254 17 callgsubr
          100 49 228 120 -53 53 39 -20 hstemhm
          25 61 381 -26 callsubr
          hintmask 1111101101100000
          597 383 -39 callsubr
          hintmask 1111101110010000
          -72 callsubr
          hintmask 1111101110100000
          -94 callgsubr
          -73 -45 callsubr
          -241 -59 -47 callsubr
          hintmask 1111011110100000
          0 callsubr
          -4 -1 -3 -45 callgsubr
        </CharString>
        <CharString name="seveninferior">
          -201 19 23 callsubr
          363 -47 callsubr
          hintmask 10110000
          0 callsubr
          -3 -1 -4 -45 callgsubr
        </CharString>
        <CharString name="sevensuperior">
          -201 367 23 callsubr
          711 -47 callsubr
          hintmask 10110000
          0 callsubr
          -4 -1 -3 -45 callgsubr
        </CharString>
        <CharString name="six">
          27 -6 72 299 70 85 211 -76 76 hstemhm
          55 0 callgsubr
          hintmask 11011100
          285 435 rmoveto
          -59 -53 -18 -44 -34 hvcurveto
          140 vlineto
          -3 callgsubr
          84 72 59 -39 -63 vhcurveto
          hintmask 11101100
          -25 21 -8 23 25 14 9 28 86 -71 88 -141 -124 -95 -25 callsubr
          vhcurveto
          -14 callsubr
          -159 95 -59 121 121 94 5 callsubr
          21 vlineto
          154 -89 48 -112 vhcurveto
          -146 -197 rmoveto
          92 52 35 80 82 49 -38 -98 vhcurveto
          -21 vlineto
          -98 -49 -44 -82 -82 -50 44 98 vhcurveto
          endchar
        </CharString>
        <CharString name="sixinferior">
          -166 -3 50 136 48 32 120 -53 53 hstemhm
          41 61 138 59 hintmask 11011100
          182 231 21 callgsubr
          -27 vhcurveto
          hintmask 11101100
          -19 15 -5 16 19 9 7 19 44 -39 50 10 callsubr
          9 vlineto
          82 -52 25 -65 vhcurveto
          -80 -106 rmoveto
          42 27 16 41 44 26 -17 -46 vhcurveto
          -9 35 callsubr
        </CharString>
        <CharString name="sixsuperior">
          -165 345 50 136 48 32 120 -53 53 hstemhm
          42 61 138 59 hintmask 11011100
          183 579 21 callgsubr
          -28 vhcurveto
          hintmask 11101100
          -18 15 -5 16 19 9 7 19 43 -39 51 10 callsubr
          8 vlineto
          82 -52 26 -65 vhcurveto
          -80 -107 rmoveto
          43 27 16 41 44 26 -17 -47 vhcurveto
          -8 35 callsubr
        </CharString>
        <CharString name="slash">
          -24 -9 -21 800 -20 hstem
          421 770 rmoveto
          -10 -9 -5 -10 -5 hvcurveto
          -375 -742 16 callsubr
          373 737 rlineto
          3 5 1 4 5 vvcurveto
          19 -19 14 -16 vhcurveto
          endchar
        </CharString>
        <CharString name="space">
          -299 endchar
        </CharString>
        <CharString name="sterling">
          3 0 76 291 65 261 75 hstem
          437 76 rmoveto
          -246 hlineto
          42 291 rlineto
          150 hlineto
          16 9 16 16 16 -9 17 -16 hvcurveto
          -141 hlineto
          20 140 rlineto
          65 10 55 56 77 hhcurveto
          29 hlineto
          20 12 19 18 19 -12 19 -20 hvcurveto
          -24 hlineto
          -112 -102 -86 -110 -16 hvcurveto
          -20 -140 rlineto
          -80 hlineto
          -16 -9 -16 -17 -17 9 -15 16 hvcurveto
          71 hlineto
          -41 -291 rlineto
          -57 hlineto
          -20 -9 -19 -19 -19 9 -19 20 hvcurveto
          385 hlineto
          18 10 19 19 19 -10 19 -18 hvcurveto
          endchar
        </CharString>
        <CharString name="summation">
          -17 -227 76 806 76 hstem
          250 252 rmoveto
          -215 -412 rlineto
          -5 -9 -4 -13 -11 vvcurveto
          -18 10 -16 26 vhcurveto
          367 45 callsubr
          -299 hlineto
          177 334 rlineto
          16 29 11 20 20 vvcurveto
          19 -11 21 -16 29 vhcurveto
          -177 334 rlineto
          299 45 callsubr
          -367 hlineto
          -26 -10 -16 -18 -11 4 -13 5 -9 hvcurveto
          endchar
        </CharString>
        <CharString name="t">
          -189 0 73 336 11 callgsubr
          hintmask 11110000
          140 409 rmoveto
          126 hlineto
          hintmask 11101000
          -22 callgsubr
          hintmask 11110000
          -68 callgsubr
          endchar
        </CharString>
        <CharString name="tbar">
          -186 0 73 177 65 94 11 callgsubr
          hintmask 11111000
          140 409 rmoveto
          126 hlineto
          hintmask 11110100
          -22 callgsubr
          hintmask 11111000
          -68 callgsubr
          99 126 vlineto
          hintmask 11110100
          -22 callgsubr
          hintmask 11111000
          -126 hlineto
          endchar
        </CharString>
        <CharString name="tcaron">
          -189 0 73 336 65 278 -20 hstemhm
          57 83 -83 233 -92 104 hintmask 11110100
          250 752 -85 callsubr
          -110 -343 rmoveto
          126 hlineto
          -22 callgsubr
          -126 192 hlineto
          17 -21 12 -21 -19 -22 -12 -17 vhcurveto
          -515 vlineto
          -105 58 -46 108 vhcurveto
          31 hlineto
          hintmask 11101000
          23 13 18 19 19 -13 17 -23 hvcurveto
          -31 hlineto
          hintmask 11110100
          -62 -21 21 57 hvcurveto
          endchar
        </CharString>
        <CharString name="tcommaaccent">
          -189 -147 -21 168 73 336 11 callgsubr
          hintmask 11111000
          219 -104 callgsubr
          34 574 rmoveto
          126 hlineto
          hintmask 11110100
          -22 callgsubr
          hintmask 11111000
          -68 callgsubr
          endchar
        </CharString>
        <CharString name="thorn">
          -5 -5 callgsubr
          280 -20 hstem
          60 83 227 83 vstem
          100 760 rmoveto
          -23 -33 callsubr
          hvcurveto
          -930 -12 callgsubr
          105 -80 87 -100 -63 23 callgsubr
          -18 12 -25 vhcurveto
          270 -574 26 callgsubr
          38 callsubr
        </CharString>
        <CharString name="three">
          -2 -6 76 -76 209 146 70 104 208 -75 75 hstemhm
          26 82 -66 84 84 226 -81 81 -63 84 hintmask 1011010100000000
          239 70 rmoveto
          -97 -34 57 43 hvcurveto
          hintmask 0111010001000000
          21 -9 12 -34 -28 -11 -8 -31 -76 65 -94 148 120 98 58 156 vhcurveto
          19 vlineto
          hintmask 1011001010000000
          87 -43 48 -59 24 vhcurveto
          47 22 34 59 87 vvcurveto
          130 -79 47 -112 -162 -41 -105 -60 -33 8 -10 36 29 11 15 22 vhcurveto
          hintmask 1010110010000000
          42 23 54 94 75 37 -36 -81 -96 -45 -24 -71 vhcurveto
          hintmask 1011010100000000
          -21 -8 -18 -17 -18 8 -17 21 hvcurveto
          hintmask 1011010001000000
          81 53 -35 -87 hvcurveto
          -19 vlineto
          -96 -46 -42 -88 vhcurveto
          endchar
        </CharString>
        <CharString name="threeeighths">
          258 17 callgsubr
          111 38 -38 2 callsubr
          39 -20 hstemhm
          26 12 callgsubr
          185 -26 callsubr
          hintmask 111010110111010100000000
          154 398 -2 callsubr
          hintmask 111001110110110100000000
          -47 callgsubr
          hintmask 111100110111010100000000
          28 12 18 33 42 vvcurveto
          70 -61 callgsubr
          vhcurveto
          hintmask 111010101111010100000000
          -57 callgsubr
          hintmask 111100110111001100000000
          445 -15 -39 callsubr
          hintmask 111100110111010010000000
          -72 callsubr
          hintmask 111100110111010100000000
          -74 callsubr
        </CharString>
        <CharString name="threeinferior">
          -181 -3 37 callgsubr
          hstemhm
          27 12 callgsubr
          hintmask 10110110
          155 50 -2 callsubr
          hintmask 01110101
          -46 callgsubr
          hintmask 10110110
          28 12 18 33 43 vvcurveto
          69 -61 callgsubr
          vhcurveto
          hintmask 10101110
          -60 callsubr
          endchar
        </CharString>
        <CharString name="threequarters">
          252 -9 -21 30 39 callsubr
          119 2 callsubr
          39 -20 hstemhm
          30 60 127 59 344 60 hintmask 1100101101111000
          158 398 -2 callsubr
          hintmask 1100011101111000
          -47 callgsubr
          28 12 18 33 42 vvcurveto
          70 -61 callgsubr
          vhcurveto
          hintmask 1100101011111000
          -57 callgsubr
          462 -378 -12 callsubr
          hintmask 1010101101111000
          65 29 vlineto
          -5 callsubr
          -29 66 hlineto
          hintmask 1001101101111000
          -4 callgsubr
          hintmask 1100101101111000
          -63 callgsubr
          hintmask 1010101101111000
          4 callgsubr
          -20 685 rmoveto
          -10 -10 -5 -10 -5 hvcurveto
          -375 -742 rlineto
          hintmask 1100101101111000
          -2 -4 -1 -5 -4 vvcurveto
          -16 14 -14 18 12 11 5 11 5 vhcurveto
          374 737 rlineto
          2 5 1 4 5 vvcurveto
          19 -18 14 -16 vhcurveto
          endchar
        </CharString>
        <CharString name="threesuperior">
          -182 345 2 callsubr
          hstemhm
          26 12 callgsubr
          hintmask 10110110
          154 398 -2 callsubr
          hintmask 01110101
          -47 callgsubr
          hintmask 10110110
          28 12 18 33 42 vvcurveto
          70 -61 callgsubr
          vhcurveto
          hintmask 10101110
          -57 callgsubr
          endchar
        </CharString>
        <CharString name="tilde">
          -180 603 6 callgsubr
          hintmask 01000000
          99 636 rmoveto
          hintmask 10000000
          -91 callgsubr
          hintmask 01000000
          -91 callsubr
          endchar
        </CharString>
        <CharString name="trademark">
          139 495 -21 243 51 hstem
          133 54 116 54 164 53 vstem
          59 768 rmoveto
          -12 -6 -13 -12 -13 7 -13 11 hvcurveto
          74 -225 hlineto
          -12 13 -6 14 14 13 6 12 vhcurveto
          225 74 vlineto
          11 6 13 13 12 -5 13 -12 hvcurveto
          260 -113 rmoveto
          -163 vlineto
          -12 13 -6 13 14 13 6 12 vhcurveto
          249 vlineto
          20 -12 7 -15 -19 -11 -8 -24 -11 vhcurveto
          -67 -149 -67 149 rlineto
          24 -11 -12 8 -19 hhcurveto
          -13 -14 -7 -20 hvcurveto
          -249 vlineto
          -12 14 -6 13 13 14 6 12 vhcurveto
          166 vlineto
          63 -143 rlineto
          -11 4 7 -3 7 hhcurveto
          7 7 3 11 5 hvcurveto
          endchar
        </CharString>
        <CharString name="two">
          -15 0 76 435 220 -78 78 hstemhm
          32 98 -82 82 235 84 hintmask 11010100
          48 560 rmoveto
          -37 14 -12 24 28 16 16 17 vhcurveto
          hintmask 10110100
          74 49 35 64 84 38 -63 -57 vhcurveto
          -165 -333 -77 -164 vvcurveto
          -97 vlineto
          -18 22 -12 16 vhcurveto
          356 hlineto
          16 13 19 19 21 -13 17 -16 hvcurveto
          -307 51 hlineto
          125 330 69 215 vvcurveto
          113 -90 82 -116 vhcurveto
          hintmask 11001100
          -107 -88 -70 -101 hvcurveto
          endchar
        </CharString>
        <CharString name="twoinferior">
          -188 0 20 callgsubr
          288 -4 callsubr
          vhcurveto
          hintmask 10111000
          -33 callgsubr
          -84 vvcurveto
          -51 -73 callgsubr
          -36 -59 vhcurveto
          endchar
        </CharString>
        <CharString name="twosuperior">
          -189 348 20 callgsubr
          636 -4 callsubr
          vhcurveto
          hintmask 10111000
          -33 callgsubr
          -85 vvcurveto
          -50 -73 callgsubr
          -37 -58 vhcurveto
          endchar
        </CharString>
        <CharString name="twothirds">
          254 -9 -21 27 37 callgsubr
          -35 53 203 127 -55 55 39 -20 hstemhm
          32 68 121 60 184 12 callgsubr
          hintmask 1101100101111100
          593 50 -2 callsubr
          hintmask 1011100101111010
          -46 callgsubr
          hintmask 1101100101111100
          28 12 18 33 43 vvcurveto
          69 -61 callgsubr
          vhcurveto
          hintmask 1101010101111100
          -60 callsubr
          -552 586 -4 callsubr
          vhcurveto
          hintmask 1101001011111100
          -33 callgsubr
          -85 vvcurveto
          -50 -73 callgsubr
          -37 -58 vhcurveto
          539 134 -102 callgsubr
          endchar
        </CharString>
        <CharString name="u">
          6 -8 75 407 -58 callgsubr
          endchar
        </CharString>
        <CharString name="u.ss04">
          7 -8 75 -46 -21 474 -20 hstemhm
          55 83 226 83 hintmask 10111000
          233 -8 rmoveto
          65 49 38 40 21 hvcurveto
          -41 vlineto
          hintmask 01111000
          -15 17 -14 21 24 17 14 15 vhcurveto
          415 vlineto
          17 -17 13 -24 -24 -18 -13 -17 vhcurveto
          -264 vlineto
          hintmask 10111000
          -61 -55 -52 -57 -63 -51 59 59 vhcurveto
          259 vlineto
          18 -18 12 -22 -23 -20 -12 -18 vhcurveto
          -259 vlineto
          -104 82 -89 96 vhcurveto
          endchar
        </CharString>
        <CharString name="uacute">
          -20 callsubr
          250 -20 39 callgsubr
          328 646 -107 callsubr
          38 -596 -103 callsubr
          endchar
        </CharString>
        <CharString name="ubreve">
          -20 callsubr
          141 -37 callgsubr
          55 83 -7 -8 callgsubr
          -6 83 hintmask 11011001
          -93 callgsubr
          69 724 rmoveto
          hintmask 11101001
          -38 callsubr
          hintmask 11010101
          -79 callsubr
          hintmask 11010010
          -49 callgsubr
        </CharString>
        <CharString name="ucircumflex">
          6 -8 75 407 114 116 -20 39 callgsubr
          252 647 -107 callgsubr
          105 -599 -103 callsubr
          endchar
        </CharString>
        <CharString name="udieresis">
          -20 callsubr
          134 83 hstem
          55 83 9 81 50 80 9 83 vstem
          188 671 rmoveto
          -105 callsubr
          -65 -679 -103 callsubr
          endchar
        </CharString>
        <CharString name="ugrave">
          -20 callsubr
          250 -58 callgsubr
          36 596 -105 callgsubr
        </CharString>
        <CharString name="uhungarumlaut">
          -20 callsubr
          251 -58 callgsubr
          18 668 -99 callgsubr
          endchar
        </CharString>
        <CharString name="umacron">
          -20 callsubr
          174 61 -78 callgsubr
          -135 666 rmoveto
          -95 callgsubr
          endchar
        </CharString>
        <CharString name="underscore">
          -169 -71 71 hstem
          -24 -36 -67 callsubr
        </CharString>
        <CharString name="uni00A0">
          -299 endchar
        </CharString>
        <CharString name="uni00AD">
          -26 205 71 hstem
          47 240 -67 callsubr
        </CharString>
        <CharString name="uogonek">
          6 -204 41 155 75 407 -20 hstem
          55 83 60 47 122 83 vstem
          306 -163 rmoveto
          15 callgsubr
          45 30 42 41 33 hvcurveto
          77 27 57 74 81 vvcurveto
          261 vlineto
          15 -17 14 -24 -23 -19 -14 -15 vhcurveto
          -261 vlineto
          -60 -51 -57 -63 -64 -51 58 59 vhcurveto
          260 vlineto
          15 -20 15 -21 -24 -18 -15 -15 vhcurveto
          -260 vlineto
          -100 87 -90 107 -2 vhcurveto
          -32 -34 -19 -40 -43 -71 callsubr
          vhcurveto
          endchar
        </CharString>
        <CharString name="uring">
          -20 callsubr
          122 38 114 40 hstem
          55 83 20 38 111 39 21 83 vstem
          252 768 -82 callgsubr
          -54 -681 -103 callsubr
          endchar
        </CharString>
        <CharString name="utilde">
          -20 callsubr
          149 6 callgsubr
          55 -6 callgsubr
          hintmask 11011100
          -93 callgsubr
          -61 644 rmoveto
          hintmask 11101100
          -91 callgsubr
          hintmask 11011100
          -91 callsubr
          endchar
        </CharString>
        <CharString name="v">
          -62 41 callsubr
          hstem
          180 9 rmoveto
          -12 5 16 -6 18 hhcurveto
          16 17 7 11 5 hvcurveto
          164 415 rlineto
          2 4 2 6 6 vvcurveto
          20 -35 16 -19 -15 -7 -8 -12 -5 vhcurveto
          -125 -336 -127 340 rlineto
          11 -4 -11 5 -12 hhcurveto
          -22 -31 -16 -20 -5 3 -8 1 -3 hvcurveto
          endchar
        </CharString>
        <CharString name="w">
          18 callgsubr
          hstem
          658 424 -101 callgsubr
          endchar
        </CharString>
        <CharString name="wacute">
          3 callgsubr
          419 646 -107 callsubr
          352 -164 -101 callgsubr
          endchar
        </CharString>
        <CharString name="wcircumflex">
          3 callgsubr
          337 647 -107 callgsubr
          425 -167 -101 callgsubr
          endchar
        </CharString>
        <CharString name="wdieresis">
          18 callgsubr
          132 83 hstem
          232 81 50 80 vstem
          273 671 rmoveto
          -105 callsubr
          255 -247 -101 callgsubr
          endchar
        </CharString>
        <CharString name="wgrave">
          3 callgsubr
          658 424 -101 callgsubr
          -134 579 -105 callgsubr
        </CharString>
        <CharString name="x">
          -73 13 -21 488 -20 hstem
          24 33 rmoveto
          -19 32 -22 19 8 10 4 8 5 vhcurveto
          115 177 116 -177 rlineto
          -8 5 10 -4 8 hhcurveto
          22 29 23 18 7 -2 6 -3 4 hvcurveto
          -130 190 126 182 rlineto
          4 6 1 5 5 vvcurveto
          20 -32 22 -20 -7 -10 -4 -8 -5 vhcurveto
          -112 -172 -110 172 rlineto
          9 -6 -10 3 -6 hhcurveto
          -22 -31 -22 -20 -6 3 -6 3 -4 hvcurveto
          124 -182 -129 -190 rlineto
          -3 -5 -2 -6 -6 vvcurveto
          endchar
        </CharString>
        <CharString name="y">
          13 callsubr
          -20 hstem
          -99 callsubr
          endchar
        </CharString>
        <CharString name="yacute">
          13 callsubr
          -20 244 -20 hstem
          -99 callsubr
          292 217 -95 callsubr
        </CharString>
        <CharString name="ycircumflex">
          13 callsubr
          -18 callgsubr
          hstem
          -99 callsubr
          208 218 -94 callsubr
        </CharString>
        <CharString name="ydieresis">
          13 callsubr
          -20 128 83 hstem
          118 81 50 80 vstem
          -99 callsubr
          143 242 -39 callgsubr
        </CharString>
        <CharString name="yen">
          21 0 239 -64 64 71 64 360 -20 hstemhm
          80 219 -83 83 -83 225 hintmask 10111000
          80 341 rmoveto
          -18 12 -13 17 vhcurveto
          hintmask 10110100
          107 -71 -107 hlineto
          hintmask 01111000
          -17 -12 -14 -19 -18 12 -13 17 hvcurveto
          hintmask 01110100
          107 -146 hlineto
          hintmask 10111000
          -18 20 -11 22 22 19 11 18 vhcurveto
          hintmask 01111000
          146 112 vlineto
          hintmask 10110010
          15 15 13 19 18 -15 14 -15 hvcurveto
          hintmask 10111000
          -112 71 112 hlineto
          hintmask 10110010
          15 15 13 18 18 -15 15 -15 hvcurveto
          -93 hlineto
          177 313 rlineto
          2 3 0 4 4 vvcurveto
          18 -25 18 -22 -13 -7 -8 -13 -7 vhcurveto
          -165 -308 -160 308 rlineto
          13 -6 -8 8 -13 hhcurveto
          -22 -26 -19 -17 -3 1 -5 2 -3 hvcurveto
          171 -313 rlineto
          -88 hlineto
          hintmask 10111000
          -17 -12 -15 -18 hvcurveto
          endchar
        </CharString>
        <CharString name="ygrave">
          13 callsubr
          -20 244 -20 hstem
          -99 callsubr
          233 159 -105 callgsubr
        </CharString>
        <CharString name="z">
          36 callsubr
          hstem
          132 71 -88 callsubr
          endchar
        </CharString>
        <CharString name="zacute">
          36 callsubr
          230 -20 hstem
          291 646 -107 callsubr
          -46 -517 -88 callsubr
          endchar
        </CharString>
        <CharString name="zcaron">
          36 callsubr
          257 -20 hstem
          103 725 -106 callgsubr
          -71 -570 -88 callsubr
          endchar
        </CharString>
        <CharString name="zdotaccent">
          36 callsubr
          114 83 hstem
          163 81 vstem
          132 71 -88 callsubr
          -157 600 -84 callsubr
        </CharString>
        <CharString name="zero">
          42 -6 76 252 79 254 76 hstem
          55 84 92 79 92 84 cntrmask 00011100
          270 -89 callgsubr
          -131 -112 rmoveto
          -24 -16 -16 -23 -22 16 -18 24 23 16 18 22 23 -16 16 -23 hvcurveto
          endchar
        </CharString>
        <CharString name="zeroinferior">
          -159 -3 53 280 53 hstem
          39 60 138 60 vstem
          168 -3 rmoveto
          72 57 32 86 hvcurveto
          150 vlineto
          -96 callgsubr
          endchar
        </CharString>
        <CharString name="zerosuperior">
          -156 345 53 280 53 hstem
          42 60 138 60 vstem
          171 345 rmoveto
          72 57 32 86 hvcurveto
          150 vlineto
          -96 callgsubr
          endchar
        </CharString>
      <CharString index="0">
        rmoveto
        104 -56 rlineto
        -1 4 3 -2 3 hhcurveto
        13 10 14 14 11 -5 11 -11 6 hvcurveto
        -104 55 rlineto
        3 -5 -6 2 -6 hhcurveto
        -6 -16 callsubr
        -6 hvcurveto
        -104 -56 rlineto
        -10 -5 -5 -11 -10 vvcurveto
        -15 11 -14 12 3 3 1 2 3 vhcurveto
        return
      </CharString>
      <CharString index="1">
        rmoveto
        5 -5 -5 1 -4 hhcurveto
        -13 -8 -14 -13 -10 4 -10 10 -7 hvcurveto
        102 -83 rlineto
        -6 6 7 -3 6 hhcurveto
        7 6 3 6 7 hvcurveto
        101 83 rlineto
        11 7 4 10 10 vvcurveto
        13 -9 14 -12 -4 -6 -1 -5 -4 vhcurveto
        -101 -84 rlineto
        return
      </CharString>
      <CharString index="2">
        rmoveto
        -2 4 4 -2 3 hhcurveto
        17 13 18 16 9 -3 8 -10 5 hvcurveto
        -117 62 rlineto
        1 -3 -4 1 -3 hhcurveto
        -16 -12 -18 -16 -9 4 -10 10 -5 hvcurveto
        endchar
      </CharString>
      <CharString index="3">
        -106 rmoveto
        9 5 5 9 10 vvcurveto
        16 -12 18 -17 -3 -3 -1 -1 -4 vhcurveto
        -117 -62 rlineto
        -9 -5 -4 -8 -9 vvcurveto
        -17 14 -17 16 -17 callgsubr
        4 vhcurveto
        return
      </CharString>
      <CharString index="4">
        rmoveto
        310 hlineto
        18 11 18 21 18 -9 19 -20 hvcurveto
        -356 hlineto
        -19 -19 -10 -20 hvcurveto
        -671 vlineto
        -20 19 -10 19 vhcurveto
        356 hlineto
        20 9 19 18 21 -11 18 -18 hvcurveto
        -310 255 156 hlineto
        20 9 18 16 19 -11 17 -18 hvcurveto
        -156 hlineto
        return
      </CharString>
      <CharString index="5">
        rmoveto
        -10 -10 -5 -10 -5 hvcurveto
        -375 -742 rlineto
        -2 -4 -1 -5 -4 vvcurveto
        -16 14 -14 18 12 11 5 11 5 vhcurveto
        374 737 rlineto
        2 5 1 4 5 vvcurveto
        19 -18 14 -16 vhcurveto
        return
      </CharString>
      <CharString index="6">
        rmoveto
        2 4 2 7 5 vvcurveto
        22 -31 14 -21 -12 -11 -6 -10 -3 vhcurveto
        -122 -339 -92 306 rlineto
        15 -5 -12 5 -15 hhcurveto
        -14 -12 -5 -15 -5 hvcurveto
        -94 -303 -121 336 rlineto
        11 -4 -11 5 -12 hhcurveto
        -22 -29 -15 -21 -4 2 -6 2 -6 hvcurveto
        155 -412 rlineto
        -16 6 12 -5 16 hhcurveto
        17 14 7 14 5 hvcurveto
        95 291 97 -294 rlineto
        -12 5 12 -6 17 hhcurveto
        15 13 5 13 5 hvcurveto
        return
      </CharString>
      <CharString index="7">
        -25 -21 -39 -75 hhcurveto
        -83 -59 47 74 hvcurveto
        30 219 vlineto
        45 44 3 80 107 -90 77 -102 hvcurveto
        -116 -211 rmoveto
        36 vlineto
        61 52 48 63 66 48 -54 -59 -26 -9 -6 -35 vhcurveto
        return
      </CharString>
</ttFont>
